<svg t="1760593303394" class="icon" viewBox="0 0 1289 1024" version="1.1" xmlns="http://www.w3.org/2000/svg" p-id="76105" width="64" height="64"><path d="M724.260571 207.68c12.370286 3.236571 22.793143 0.402286 31.268572-8.502857 25.6-15.177143 39.286857-36.937143 41.051428-65.28 1.188571-18.925714 2.102857-47.817143-12.068571-61.348572a205.339429 205.339429 0 0 1-18.742857-20.388571c-1.892571-2.377143-2.834286-5.12-2.834286-8.228571 0.091429-18.468571 13.44-25.874286 31.177143-26.057143 67.291429-0.667429 134.244571-0.978286 200.868571-0.914286 45.961143 0.064 77.924571 3.931429 95.908572 11.611429 36.269714 15.478857 58.514286 42.450286 66.742857 80.914285 3.593143 16.950857 3.931429 35.657143 1.005714 56.137143-2.678857 18.651429-9.444571 35.291429-20.297143 49.92-3.355429 4.516571-2.468571 7.954286 2.651429 10.331429 25.508571 11.977143 35.382857 28.342857 35.565714 57.325714 0.118857 21.458286-0.210286 42.24-1.005714 62.354286-0.246857 5.485714 2.377143 8.137143 7.862857 7.954285 20.662857-0.64 58.514286-3.565714 75.245714 10.971429 10.24 8.905143 15.387429 16.850286 15.451429 23.862857 0.246857 42.24 0.429714 84.781714 0.548571 127.634286 0.064 10.358857-4.690286 22.308571-14.262857 35.84-4.507429 6.464-10.029714 10.761143-16.548571 12.891428a88 88 0 0 1-21.302857 4.114286c-23.497143 2.102857-46.72 5.028571-70.582857 4.937143a55415.314286 55415.314286 0 0 0-652.251429 0.731429c-21.394286 0.182857-44.278857 0-68.662857-0.548572-17.554286 11.766857-29.988571 29.046857-37.302857 51.84-0.978286 3.053714 0.118857 4.699429 3.291428 4.937143l27.702857 1.737143 760.777143 1.92c1.344 3.172571 4.507429 3.812571 9.508572 1.92 35.355429 27.611429 54.006857 64.521143 55.954285 110.72 1.581714 36.699429-8.137143 69.056-29.165714 97.097143-11.821714 15.725714-18.898286 26.971429-21.211428 33.737143-9.417143 27.245714-4.662857 54.4 0 85.211428 1.764571 11.821714 0.914286 21.394286-2.56 28.708572-5.485714 11.401143-14.262857 17.188571-26.331429 17.371428-164.324571 1.828571-379.547429 1.892571-645.668571 0.182857-35.904-0.246857-60.589714-3.565714-74.057143-9.965714-48.64-22.948571-58.605714-88.96-36.114286-135.314286 2.377143-4.845714 9.325714-10.788571 11.885714-16.822857 1.462857-3.593143 0.274286-5.302857-3.565714-5.12-23.469714 1.042286-39.68-8.438857-48.64-28.434286-8.594286-19.474286-15.817143-69.668571-15.451429-96.182857 0.182857-15.725714-3.136-16.512-9.965714-2.377143-38.4 79.725714-76.342857 164.571429-127.542857 239.177143-26.057143 38.034286-51.657143 16.731429-80.182857 3.291429a3586.285714 3586.285714 0 0 1-72.045714-34.925714c-43.611429-21.76-77.44-60.708571-53.028572-112 123.154286-259.108571 246.857143-517.942857 370.742857-776.685715 12.553143-26.212571 34.075429-31.661714 64.548572-16.365714 31.753143 15.908571 64.850286 32.274286 99.291428 49.097143 23.222857 11.337143 38.829714 23.707429 46.811429 37.12 17.737143 29.741714 14.656 61.897143-9.234286 96.457143a4.48 4.48 0 0 0 3.657143 6.948571l131.108571 0.457143z m-344.594285-44.434286l-273.462857 565.211429a8627.154286 8627.154286 0 0 1-45.074286 98.651428c-8.164571 17.673143-5.302857 31.424 8.594286 41.234286 16.64 11.766857 39.616 22.345143 68.937142 31.725714l33.005715 17.737143a20.224 20.224 0 0 0 15.36 1.545143 19.995429 19.995429 0 0 0 11.885714-9.773714c90.633143-171.392 175.387429-341.540571 254.262857-510.445714a20216.338286 20216.338286 0 0 0 85.577143-187.337143c11.949714-26.450286 20.690286-50.770286 26.24-72.96 0.731429-2.797714 0.118857-5.942857-1.828571-9.417143-2.925714-4.754286-6.336-8.073143-10.24-9.965714-37.485714-18.340571-76.224-37.668571-116.205715-57.965715a16.502857 16.502857 0 0 0-6.491428-0.548571 8.018286 8.018286 0 0 0-6.765715 4.937143l-43.794285 97.371428z m461.897143-62.902857l-2.377143 55.862857c-2.258286 18.651429-10.605714 35.291429-25.051429 49.92a4.388571 4.388571 0 0 0 3.291429 7.405715l54.4-2.194286c3.291429-0.118857 5.12-1.828571 5.485714-5.12l5.485714-49.005714 0.548572-63.542858-4.845715-21.76c-0.795429-3.721143-3.108571-5.604571-6.948571-5.668571l-31.268571-0.64a5.485714 5.485714 0 0 0-4.288 2.020571 5.293714 5.293714 0 0 0-1.014858 4.571429l6.582858 28.16z m69.302857 9.874286l-0.182857 43.885714-4.662858 57.782857a2.450286 2.450286 0 0 0 1.545143 2.468572 2.468571 2.468571 0 0 0 1.005715 0.182857l59.529142-1.554286c1.526857-0.064 2.441143-0.850286 2.742858-2.377143l11.062857-56.411428c1.581714-19.072 0.393143-36.050286-3.565715-50.925715l-9.6-26.514285c-2.011429-5.485714-5.942857-8.32-11.794285-8.502857l-42.697143-1.188572c-5.056-0.118857-7.341714 2.313143-6.857143 7.314286l3.474286 35.84z m106.514285-34.651429c-2.130286 13.284571-0.182857 30.564571 5.851429 51.84 5.485714 19.629714 4.269714 47.021714-3.657143 82.194286-0.667429 3.108571 0.576 4.662857 3.748572 4.662857h20.205714c2.925714 0 4.452571-1.462857 4.571428-4.388571l4.754286-100.297143c-5.184-22.125714-17.005714-33.462857-35.474286-34.011429z m60.708572 71.954286l-11.428572 62.08c-1.216 6.4 0.886857 7.771429 6.308572 4.114286 31.817143-21.632 42.541714-52.443429 32.182857-92.434286-3.958857-15.36-11.702857-26.331429-23.222857-32.914286a9.234286 9.234286 0 0 0-9.435429 0.009143 9.417143 9.417143 0 0 0-4.644571 8.32c0.301714 14.445714 3.264 27.721143 8.868571 39.862857 1.6 3.382857 2.084571 7.222857 1.371429 10.971429z m-518.674286 127.085714l-37.577143 67.382857a6.308571 6.308571 0 0 0 4.662857 9.325715c24.073143 3.410286 50.194286 5.211429 78.354286 5.394285 46.747429 0.301714 93.531429 0.429714 140.342857 0.365715 1.581714 0 3.995429 0.484571 7.222857 1.462857 2.496 0.731429 5.001143 0.850286 7.497143 0.365714 19.84-4.114286 43.702857-1.554286 64.182857-0.914286 37.302857 1.188571 79.817143-2.651429 121.325715 1.005715 21.851429 1.92 44.982857-2.011429 64.091428-1.737143 39.798857 0.612571 79.936-0.795429 120.411429-4.205714 4.507429-0.429714 6.582857-2.898286 6.217143-7.405715a195.986286 195.986286 0 0 1 1.554285-47.451428c3.474286-22.765714-12.16-35.474286-34.468571-32.64-7.131429-4.507429-16.301714-6.738286-27.52-6.674286-135.68 0.850286-303.296 0.365714-502.857143-1.462857-4.937143-0.064-9.417143 5.668571-13.44 17.188571z m-39.497143 245.394286l702.262857-0.182857c3.227429 0 4.873143-1.609143 4.937143-4.845714l1.188572-50.925715 0.182857-58.88a6.235429 6.235429 0 0 0-6.217143-6.217143l-712.594286-2.834285c-4.086857-0.064-6.948571 1.773714-8.594285 5.485714l-50.56 112.914286c-1.398857 3.053714-0.429714 4.608 2.925714 4.662857l66.468571 0.822857z m-115.382857 219.154286l2.285714 11.154285 2.742858 33.554286c0.182857 2.075429 1.133714 4.013714 2.651428 5.412572a8.182857 8.182857 0 0 0 5.577143 2.176l773.942857 0.64c2.88 0 5.659429-1.078857 7.789714-3.008 2.130286-1.92 3.456-4.571429 3.730286-7.405715 2.011429-19.931429 8.502857-63.725714-9.782857-75.52l-42.057143-2.011428-744.594286-3.291429a12.891429 12.891429 0 0 0-11.702857 18.285714l9.417143 20.022858z m744.411429 184.594285l4.937143-58.514285a5.467429 5.467429 0 0 0-1.353143-4.050286 5.220571 5.220571 0 0 0-3.858286-1.709714l-388.114286 0.274285-178.651428-0.457142a21.76 21.76 0 0 0-21.577143 18.194285c-5.001143 29.568-6.646857 55.561143-4.937143 77.988572a8.228571 8.228571 0 0 0 8.228571 7.68l583.405715 0.731428a5.659429 5.659429 0 0 0 2.358857-0.493714 5.668571 5.668571 0 0 0 3.163428-3.501714 5.787429 5.787429 0 0 0 0.237715-2.404572l-3.84-33.737143z" fill="#273C49" p-id="76106"></path><path d="M436.717714 61.485714a2425.234286 2425.234286 0 0 1 16.457143 40.502857c15.36 38.765714 37.12 65.28 69.668572 92.251429a13.257143 13.257143 0 0 0 21.668571-9.051429 59.081143 59.081143 0 0 1 8.594286-25.965714c1.700571-2.742857 2.56-5.732571 2.56-8.96v-20.022857c0-1.828571 0.886857-2.496 2.651428-2.011429l4.845715 1.188572c1.947429 3.474286 2.56 6.610286 1.828571 9.417143-5.549714 22.189714-14.290286 46.509714-26.24 72.96a20193.170286 20193.170286 0 0 1-85.577143 187.337143c-3.84-26.944-8.896-43.126857-15.177143-48.548572-6.4-7.186286-12.918857-14.08-19.565714-20.662857-1.883429-1.828571-3.245714-4.114286-3.977143-6.646857a16.027429 16.027429 0 0 1-0.219428-7.890286 17.645714 17.645714 0 0 1 3.574857-7.332571c1.764571-2.166857 4.022857-3.913143 6.564571-5.101715 3.410286-1.581714 5.851429-3.986286 7.314286-7.222857 1.28-2.861714 3.446857-3.931429 6.491428-3.2l10.971429 2.742857c3.410286 0.850286 5.878857-0.338286 7.405714-3.565714 2.377143-5.12 2.925714-10.422857 1.645715-15.908571a21.174857 21.174857 0 0 1-0.274286-8.96c4.022857-20.781714 2.834286-40.502857-3.565714-59.154286a12.8 12.8 0 0 0-3.565715-5.302857l-33.92-30.08a16.64 16.64 0 0 0-27.062857 7.954286l-4.48 15.451428c1.216-21.513143-0.676571-32.338286-5.668571-32.457143l43.794285-97.371428c1.344-2.925714 3.593143-4.571429 6.765715-4.937143 2.258286-0.246857 4.416-0.064 6.491428 0.548571z" fill="#FE8692" p-id="76107"></path><path d="M436.717714 61.485714c39.981714 20.297143 78.72 39.616 116.205715 57.965715 3.904 1.892571 7.314286 5.211429 10.24 9.965714l-4.845715-1.188572c-1.764571-0.484571-2.651429 0.182857-2.651428 2.011429v20.022857c0 3.227429-0.859429 6.217143-2.56 8.96a59.081143 59.081143 0 0 0-8.594286 25.965714 13.257143 13.257143 0 0 1-21.668571 9.051429c-32.548571-26.971429-54.308571-53.485714-69.668572-92.251429a2424.594286 2424.594286 0 0 0-16.457143-40.502857z" fill="#FC3F53" p-id="76108"></path><path d="M883.346286 93.668571c-8.173714 12.315429-22.098286 14.537143-41.782857 6.674286l-6.582858-28.16a5.220571 5.220571 0 0 1 1.014858-4.562286 5.394286 5.394286 0 0 1 4.288-2.011428l31.268571 0.64c3.84 0.054857 6.153143 1.938286 6.948571 5.668571l4.845715 21.76zM978.340571 103.268571c-13.897143 12.196571-36.388571 14.509714-67.474285 6.948572l-3.474286-35.84c-0.484571-5.001143 1.801143-7.433143 6.857143-7.314286l42.697143 1.188572c5.851429 0.182857 9.782857 3.017143 11.794285 8.502857l9.6 26.514285zM1052.854857 109.577143c-0.731429 7.862857-5.696 11.739429-14.902857 11.611428a10.779429 10.779429 0 0 1-8.128-3.766857 10.614857 10.614857 0 0 1-2.386286-8.576c1.344-8.466286-2.011429-19.565714-10.057143-33.28 18.468571 0.548571 30.290286 11.885714 35.474286 34.011429z" fill="#98F2FC" p-id="76109"></path><path d="M1017.380571 75.565714c8.045714 13.714286 11.401143 24.804571 10.057143 33.28a10.614857 10.614857 0 0 0 6.034286 11.337143c1.398857 0.658286 2.934857 1.005714 4.48 1.005714 9.206857 0.118857 14.171429-3.748571 14.902857-11.611428l-4.754286 100.297143c-0.118857 2.925714-1.645714 4.388571-4.571428 4.388571h-20.205714c-3.172571 0-4.416-1.554286-3.748572-4.662857 7.926857-35.172571 9.142857-62.564571 3.657143-82.194286-6.034286-21.275429-7.981714-38.555429-5.851429-51.84z" fill="#00B3D9" p-id="76110"></path><path d="M1078.089143 147.52c0.713143-3.748571 0.228571-7.588571-1.371429-10.971429-5.613714-12.132571-8.566857-25.417143-8.868571-39.862857a9.426286 9.426286 0 0 1 9.362286-9.6c1.664 0 3.291429 0.438857 4.717714 1.28 11.52 6.582857 19.254857 17.554286 23.222857 32.914286 10.358857 39.981714-0.365714 70.793143-32.182857 92.434286-5.430857 3.657143-7.524571 2.285714-6.308572-4.114286l11.428572-62.08z" fill="#E5E8EA" p-id="76111"></path><path d="M883.346286 93.668571l-0.548572 63.542858c-15.478857 4.690286-30.016 4.361143-43.611428-1.005715l2.377143-55.862857c19.684571 7.862857 33.609143 5.641143 41.782857-6.674286zM978.340571 103.268571c3.958857 14.875429 5.147429 31.844571 3.565715 50.925715-24.502857 4.205714-48.246857 4.178286-71.222857-0.091429l0.182857-43.885714c31.085714 7.561143 53.577143 5.238857 67.474285-6.948572z" fill="#00D5E4" p-id="76112"></path><path d="M910.683429 154.102857c22.976 4.269714 46.72 4.297143 71.222857 0.091429l-11.062857 56.411428c-0.301714 1.526857-1.216 2.313143-2.742858 2.377143l-59.52 1.554286a2.468571 2.468571 0 0 1-2.56-2.651429l4.662858-57.782857zM839.186286 156.205714c13.586286 5.366857 28.123429 5.696 43.611428 1.005715l-5.485714 49.005714c-0.365714 3.291429-2.194286 5.001143-5.485714 5.12l-54.4 2.194286a4.388571 4.388571 0 0 1-3.291429-7.405715c14.445714-14.628571 22.793143-31.268571 25.051429-49.92z" fill="#018FCA" p-id="76113"></path><path d="M379.666286 163.245714c4.992 0.118857 6.884571 10.944 5.668571 32.457143a319077.065143 319077.065143 0 0 0-248.594286 524.251429c-3.410286 7.314286-8.896 12.132571-16.457142 14.445714-6.336 1.892571-11.035429-0.091429-14.08-5.942857l273.462857-565.211429z" fill="#FDFEFE" p-id="76114"></path><path d="M437.997714 350.582857c-6.4-1.161143-10.029714-0.182857-10.88 2.925714-10.486857 38.829714-21.211429 69.211429-32.182857 91.154286a1100.205714 1100.205714 0 0 0-41.234286 92.8c-11.885714 30.262857-25.965714 59.154286-38.308571 89.234286-7.625143 18.715429-18.011429 40.658286-31.177143 65.828571-10.852571 20.845714-21.275429 43.858286-31.268571 69.028572-6.646857 16.758857-15.268571 33.645714-25.874286 50.651428-24.32 39.222857-32.822857 78.171429-88.411429 87.862857-29.321143-9.389714-52.297143-19.958857-68.937142-31.725714-13.897143-9.810286-16.758857-23.561143-8.594286-41.234286 15.177143-32.667429 30.198857-65.554286 45.074286-98.651428 3.044571 5.851429 7.744 7.835429 14.08 5.942857 7.552-2.313143 13.037714-7.131429 16.457142-14.445714 83.017143-175.478857 165.878857-350.235429 248.594286-524.251429l4.48-15.451428a16.64 16.64 0 0 1 27.062857-7.954286l33.92 30.08c1.618286 1.435429 2.843429 3.264 3.565715 5.302857 6.4 18.651429 7.588571 38.372571 3.565714 59.154286-0.548571 2.989714-0.457143 5.970286 0.274286 8.96 1.28 5.485714 0.731429 10.788571-1.645715 15.908571-1.526857 3.227429-3.995429 4.416-7.405714 3.565714l-10.971429-2.742857c-3.053714-0.731429-5.211429 0.338286-6.491428 3.2-1.462857 3.227429-3.904 5.641143-7.314286 7.222857-2.541714 1.188571-4.8 2.925714-6.564571 5.101715a17.645714 17.645714 0 0 0-3.574857 7.332571c-0.585143 2.651429-0.512 5.357714 0.219428 7.890286s2.102857 4.818286 3.977143 6.646857c6.646857 6.582857 13.165714 13.467429 19.565714 20.662857z" fill="#FF5468" p-id="76115"></path><path d="M755.529143 199.177143c-8.475429 8.896-18.898286 11.730286-31.268572 8.502857l31.268572-8.502857zM1103.232 265.554286c-1.764571 4.571429-5.604571 6.921143-11.52 7.04-138.907429 1.709714-316.342857 2.377143-532.297143 2.011428 4.022857-11.52 8.502857-17.252571 13.44-17.188571 199.561143 1.828571 367.177143 2.313143 502.857143 1.462857 11.218286-0.064 20.388571 2.166857 27.52 6.674286z" fill="#E5E8EA" p-id="76116"></path><path d="M1103.232 265.554286c22.308571-2.834286 37.942857 9.874286 34.468571 32.64a195.986286 195.986286 0 0 0-1.554285 47.451428c0.365714 4.507429-1.709714 6.985143-6.217143 7.405715-40.475429 3.410286-80.612571 4.818286-120.411429 4.205714-19.108571-0.274286-42.24 3.657143-64.091428 1.737143-41.508571-3.657143-84.022857 0.182857-121.325715-1.005715-20.48-0.64-44.342857-3.2-64.182857 0.914286a15.634286 15.634286 0 0 1-7.497143-0.365714c-3.227429-0.978286-5.641143-1.462857-7.222857-1.462857-46.811429 0.064-93.595429-0.064-140.342857-0.365715-28.16-0.182857-54.281143-1.984-78.354286-5.394285a6.317714 6.317714 0 0 1-4.662857-9.325715l37.577143-67.382857c215.954286 0.365714 393.389714-0.301714 532.297143-2.011428 5.915429-0.118857 9.755429-2.468571 11.52-7.04z" fill="#275F7C" p-id="76117"></path><path d="M437.997714 350.582857c6.281143 5.421714 11.337143 21.604571 15.177143 48.548572-78.875429 168.896-163.629714 339.044571-254.262857 510.445714a19.904 19.904 0 0 1-11.885714 9.773714 20.050286 20.050286 0 0 1-15.36-1.545143l-33.005715-17.737143c55.588571-9.691429 64.091429-48.64 88.411429-87.862857 10.605714-17.005714 19.227429-33.892571 25.874286-50.651428 9.993143-25.170286 20.416-48.182857 31.268571-69.028572 13.165714-25.170286 23.561143-47.113143 31.177143-65.828571 12.342857-30.08 26.422857-58.971429 38.308571-89.234286 12.617143-32.246857 26.358857-63.177143 41.234286-92.8 10.971429-21.942857 21.696-52.324571 32.182857-91.154286 0.850286-3.108571 4.48-4.086857 10.88-2.925714z" fill="#FC3F53" p-id="76118"></path><path d="M1228.306286 464.045714l-2.56-4.48a7.771429 7.771429 0 0 0-7.222857-4.205714 55319.131429 55319.131429 0 0 0-586.422858-2.194286c-30.537143 0-52.726857 3.538286-66.56 10.605715-22.555429 11.456-37.76 30.198857-45.622857 56.228571l-66.468571-0.822857c-3.355429-0.064-4.324571-1.618286-2.925714-4.662857l50.56-112.914286c1.645714-3.721143 4.507429-5.549714 8.594285-5.485714l712.594286 2.834285a6.235429 6.235429 0 0 1 6.217143 6.217143l-0.182857 58.88z" fill="#E5E8EA" p-id="76119"></path><path d="M1228.306286 464.045714l-1.188572 50.925715c-0.064 3.227429-1.709714 4.845714-4.937143 4.845714l-702.262857 0.182857c7.862857-26.029714 23.067429-44.772571 45.622857-56.228571 13.833143-7.067429 36.022857-10.605714 66.56-10.605715a55319.04 55319.04 0 0 1 586.422858 2.194286 7.771429 7.771429 0 0 1 7.222857 4.205714l2.56 4.48z" fill="#FDFEFE" p-id="76120"></path><path d="M1222.546286 568.822857c-15.789714 0-27.190857 13.229714-34.194286 39.68-2.742857 10.304-0.521143 19.565714 6.674286 27.794286-5.001143 1.892571-8.164571 1.252571-9.508572-1.92-4.324571-3.172571-6.034286-7.04-5.12-11.611429 1.764571-8.164571-1.554286-12.224-9.965714-12.16-220.096 1.956571-433.764571 0.914286-641.005714-3.108571-37.604571-0.731429-69.421714-8.438857-95.451429-23.131429l-2.925714-10.422857c24.374857 0.548571 47.268571 0.731429 68.662857 0.548572 217.417143-1.517714 434.834286-1.764571 652.251429-0.731429 23.862857 0.091429 47.085714-2.834286 70.582857-4.937143z" fill="#51C0D9" p-id="76121"></path><path d="M431.049143 573.942857l2.925714 10.422857c-7.926857 5.851429-12.041143 10.395429-12.342857 13.622857a94.646857 94.646857 0 0 1-6.4 27.337143c-1.097143 2.56-0.246857 3.904 2.56 4.022857 3.657143 0.064 5.970286 1.097143 6.948571 3.108572l-27.702857-1.737143c-3.172571-0.246857-4.269714-1.892571-3.291428-4.937143 7.314286-22.793143 19.748571-40.073143 37.302857-51.84z" fill="#018FCA" p-id="76122"></path><path d="M433.974857 584.365714c26.029714 14.692571 57.837714 22.4 95.451429 23.131429 207.241143 4.022857 420.900571 5.056 641.005714 3.108571 8.411429-0.064 11.730286 3.995429 9.965714 12.16-0.914286 4.571429 0.795429 8.438857 5.12 11.611429l-760.777143-1.92c-0.978286-2.011429-3.291429-3.044571-6.948571-3.108572-2.806857-0.118857-3.657143-1.462857-2.56-4.022857 3.474286-8.713143 5.604571-17.828571 6.4-27.337143 0.301714-3.227429 4.416-7.771429 12.342857-13.622857z" fill="#00B3D9" p-id="76123"></path><path d="M1151.414857 704.137143c4.818286 7.067429 7.405714 11.428571 7.771429 13.074286 2.624 13.531429-2.953143 20.388571-16.731429 20.571428-249.782857 3.044571-495.753143 3.501714-737.92 1.371429l-9.417143-20.022857a12.882286 12.882286 0 0 1 11.702857-18.285715l744.594286 3.291429z" fill="#FDFEFE" p-id="76124"></path><path d="M1151.414857 704.137143l42.057143 2.011428-1.188571 41.417143a4.955429 4.955429 0 0 1-4.937143 4.845715l-780.525715-2.102858-2.285714-11.154285c242.157714 2.139429 488.137143 1.673143 737.92-1.371429 13.778286-0.182857 19.355429-7.04 16.731429-20.571428-0.365714-1.645714-2.953143-5.997714-7.771429-13.074286z" fill="#51C0D9" p-id="76125"></path><path d="M1193.472 706.148571c18.285714 11.794286 11.794286 55.588571 9.782857 75.52-0.274286 2.843429-1.6 5.485714-3.730286 7.414858-2.130286 1.929143-4.909714 2.998857-7.789714 3.017142l-773.942857-0.64a8.182857 8.182857 0 0 1-5.577143-2.185142 8.356571 8.356571 0 0 1-2.651428-5.412572l-2.742858-33.554286 780.525715 2.102858a4.937143 4.937143 0 0 0 4.937143-4.845715l1.188571-41.417143z" fill="#018FCA" p-id="76126"></path><path d="M760.557714 859.748571c0.246857 2.496 2.102857 3.84 5.577143 4.022858 0.704 0.064 1.371429 0.365714 1.883429 0.859428a3.236571 3.236571 0 0 1 0.950857 1.883429c0.301714 2.130286-0.365714 3.474286-2.011429 4.022857-17.490286 5.915429-34.221714 5.211429-50.194285-2.102857a12.900571 12.900571 0 0 0-9.051429-0.731429c-7.497143 2.130286-15.021714 4.333714-22.582857 6.582857-22.244571 6.582857-45.504 8.256-69.76 5.028572-13.961143-1.828571-23.899429 3.382857-29.805714 15.634285-5.485714 11.154286-10.88 28.251429-4.845715 39.68 8.32 15.817143 27.337143 16.64 40.868572 7.04 22.674286-16.155429 50.56-24.347429 83.657143-24.594285 148.050286-1.216 295.954286 1.005714 443.702857 6.674285l3.84 33.737143a5.787429 5.787429 0 0 1-1.444572 4.498286 5.558857 5.558857 0 0 1-1.956571 1.408 5.659429 5.659429 0 0 1-2.358857 0.493714l-583.405715-0.731428a8.210286 8.210286 0 0 1-8.228571-7.68c-1.709714-22.427429-0.064-48.420571 4.937143-77.988572a21.76 21.76 0 0 1 21.577143-18.194285l178.651428 0.457142z" fill="#FDFEFE" p-id="76127"></path><path d="M1148.946286 923.748571c-147.748571-5.668571-295.652571-7.890286-443.702857-6.674285-33.097143 0.246857-60.982857 8.438857-83.657143 24.594285-13.531429 9.6-32.548571 8.777143-40.868572-7.04-6.034286-11.428571-0.64-28.525714 4.845715-39.68 5.906286-12.251429 15.844571-17.462857 29.805714-15.634285 24.256 3.227429 47.515429 1.554286 69.76-5.028572 7.552-2.249143 15.085714-4.452571 22.582857-6.582857 3.108571-0.850286 6.125714-0.612571 9.051429 0.731429 15.963429 7.314286 32.694857 8.018286 50.194285 2.102857 1.645714-0.548571 2.313143-1.892571 2.011429-4.022857a3.236571 3.236571 0 0 0-0.950857-1.883429 3.072 3.072 0 0 0-1.883429-0.859428c-3.474286-0.182857-5.339429-1.517714-5.577143-4.022858l388.114286-0.274285a5.12 5.12 0 0 1 3.858286 1.709714 5.467429 5.467429 0 0 1 1.353143 4.050286l-4.937143 58.514285z" fill="#E5E8EA" p-id="76128"></path></svg>