<svg t="1760594018539" class="icon" viewBox="0 0 1024 1024" version="1.1" xmlns="http://www.w3.org/2000/svg" p-id="120772" width="64" height="64"><path d="M620.846 264.302h174.876v30.01h-174.876z" fill="#E6E9ED" p-id="120773"></path><path d="M956.028 184.032l-137.386 137.386-174.266-174.282 138.916-138.9z" fill="#5D9CEC" p-id="120774"></path><path d="M783.292 8.236l-138.916 138.9 122.928-122.912 172.736 175.796 15.988-15.988zM759.558 294.312h31.978l-29.994-30.01h-31.978z" opacity=".2" p-id="120775"></path><path d="M238.618 562.854c31.024 13.162 45.5 48.952 32.368 79.944-13.14 30.994-48.934 45.5-79.944 32.352-31.01-13.146-98.484-88.188-93.59-105.892 4.896-17.692 110.148-19.504 141.166-6.404z" fill="#A0D468" p-id="120776"></path><path d="M238.618 562.854c-31.016-13.1-136.27-11.288-141.166 6.402-0.46 1.654-0.102 3.952 0.626 6.528 31.89-8.244 100.482-7.106 124.552 3.06 31.024 13.162 45.5 48.95 32.368 79.942a61.28 61.28 0 0 1-5.674 10.352c9.266-6.354 16.956-15.238 21.664-26.34 13.128-30.994-1.346-66.782-32.37-79.944z" opacity=".2" p-id="120777"></path><path d="M207.03 659.16c-28.104-11.914-85.978-74.524-92.964-99.368-9.204 2.376-15.512 5.496-16.614 9.462-4.894 17.706 62.58 92.746 93.59 105.892 27.3 11.57 58.272 1.688 74.268-22-16.59 11.386-38.38 14.446-58.28 6.014z" fill="#FFFFFF" opacity=".4" p-id="120778"></path><path d="M431.566 503.82c-28.292 18.266-36.45 56.02-18.19 84.298 18.22 28.278 55.974 36.458 84.268 18.222 28.326-18.254 81.966-103.738 74.128-120.336-7.854-16.598-111.866-0.39-140.206 17.816z" fill="#A0D468" p-id="120779"></path><path d="M571.772 486.004c-7.854-16.598-111.866-0.39-140.206 17.816a60.8 60.8 0 0 0-17.51 17.206c0.538-0.376 0.96-0.86 1.522-1.218 28.338-18.204 132.352-34.412 140.206-17.814 6.182 13.084-25.858 68.934-53.582 100.944 29.114-23.502 77.016-101.18 69.57-116.934z" opacity=".2" p-id="120780"></path><path d="M513.632 590.35c-28.292 18.238-66.046 10.056-84.268-18.22-13.63-21.11-12.514-47.466 0.68-67.092-26.958 18.642-34.57 55.366-16.668 83.08 18.22 28.278 55.974 36.458 84.268 18.222 5.988-3.858 13.116-10.82 20.548-19.394-1.568 1.264-3.114 2.468-4.56 3.404z" fill="#FFFFFF" opacity=".4" p-id="120781"></path><path d="M230.366 225.488c-25.856-41.096-80.13-53.462-121.242-27.636-41.126 25.856-53.494 80.162-27.636 121.256 14.522 23.14 38.05 37.162 63.174 40.41l10.696 17.018 94.76-59.584-10.712-17.018c7.948-24.046 5.496-51.308-9.04-74.446z" fill="#FFCE54" p-id="120782"></path><path d="M239.406 299.934c7.948-24.046 5.496-51.308-9.04-74.446-18.19-28.918-50.464-43.236-82.316-40.394 26.262 2.466 51.198 16.332 66.328 40.394 14.536 23.138 16.988 50.4 9.04 74.446l15.662 24.358 11.04-7.338-10.714-17.02z" opacity=".2" p-id="120783"></path><path d="M137.308 353.162c-15.896-6.776-29.948-18.314-39.832-34.054-25.856-41.096-13.49-95.402 27.636-121.256 12.18-7.652 25.514-11.554 38.926-12.756-18.612-1.75-37.864 2.046-54.914 12.756-41.126 25.856-53.494 80.162-27.636 121.256 14.522 23.14 38.05 37.162 63.174 40.41 0-0.002 0.108-3.172-7.354-6.356zM206.024 306.928l-28.824-0.78-11.804 26.294 17.02 27.074 40.61-25.544z" fill="#FFFFFF" opacity=".6" p-id="120784"></path><path d="M262.092 366.074l-5.01 22.046-40.612 25.546-22.048-5.028-25.528-40.596 67.67-42.564z" fill="#AAB2BD" p-id="120785"></path><path d="M236.564 325.478l-11.46 7.214 21 33.382-7.822 34.272 18.8-12.226 5.01-22.046z" opacity=".2" p-id="120786"></path><path d="M210.412 408.638L181.12 360.734l-12.226 7.308 25.528 40.596 22.048 5.028 4.262-2.67zM131.358 278.292c4.714 7.496 2.452 17.364-5.012 22.046a15.956 15.956 0 0 1-22.046-5.028c-4.7-7.462-2.452-17.332 5.012-22.016a15.98 15.98 0 0 1 22.046 4.998zM199.028 235.76c4.714 7.462 2.466 17.332-5.012 22.046-7.478 4.684-17.348 2.436-22.046-5.028-4.7-7.496-2.452-17.364 5.012-22.046a15.982 15.982 0 0 1 22.046 5.028z" fill="#FFFFFF" opacity=".6" p-id="120787"></path><path d="M269.666 399.612l-8.322-12.398-40.612 25.544 8.338 12.398s8.494 13.552 28.808 0.78c20.282-12.77 11.788-26.324 11.788-26.324z" fill="#656D78" p-id="120788"></path><path d="M245.058 425.158l-12.88-19.612-11.446 7.212 8.338 12.398s6.434 10.18 21.454 4.48c-3.67-1.856-5.466-4.478-5.466-4.478z" fill="#FFFFFF" opacity=".2" p-id="120789"></path><path d="M195.78 759.948h287.794v31.978H195.78zM435.61 1015.766h-191.862l-31.978-223.84h255.816z" fill="#ED5564" p-id="120790"></path><path d="M214.064 807.93l29.684 207.836h31.976l-29.682-207.836z" fill="#FFFFFF" opacity=".3" p-id="120791"></path><path d="M464.792 807.93l-29.682 207.836h-31.978l29.684-207.836z" opacity=".2" p-id="120792"></path><path d="M465.3 807.914l2.286-15.988H211.77l2.286 15.988z" opacity=".2" p-id="120793"></path><path d="M195.78 759.948h31.838v31.978H195.78z" fill="#FFFFFF" opacity=".3" p-id="120794"></path><path d="M451.668 759.948h31.836v31.978h-31.836z" opacity=".2" p-id="120795"></path><path d="M825.262 147.136c12.492 12.492 12.492 32.742 0 45.234-12.49 12.474-32.726 12.474-45.216 0-12.492-12.492-26.374-64.064-22.61-67.842 3.764-3.764 55.336 10.134 67.826 22.608z" fill="#E6E9ED" p-id="120796"></path><path d="M796.034 176.38c-8.134-8.134-16.848-32.836-20.892-50.136-9.226-2.17-16.394-3.03-17.706-1.718-3.764 3.778 10.118 55.35 22.61 67.842 12.49 12.474 32.726 12.474 45.216 0 2.826-2.826 4.934-6.09 6.48-9.526-11.774 5.28-26.044 3.188-35.708-6.462z" fill="#FFFFFF" p-id="120797"></path><path d="M620.83 296.28l-73.306 47.966 0.016-127.91 73.306 47.966z" fill="#656D78" p-id="120798"></path><path d="M620.846 264.302h16.222v31.978h-16.222z" opacity=".2" p-id="120799"></path><path d="M214.806 688c-9.258 0-18.298-1.86-26.886-5.496-30.548-12.946-104.902-91.03-98.172-115.372 4.762-17.208 46.654-20.828 80.966-20.828 30.852 0 57.404 3.434 71.012 9.18 35.03 14.864 51.448 55.43 36.622 90.436A68.906 68.906 0 0 1 214.806 688z m-44.094-125.708c-39.574 0-62.698 5.856-65.868 9.79-0.976 12.07 58.326 82.566 89.32 95.712a52.642 52.642 0 0 0 20.64 4.216 52.934 52.934 0 0 0 48.818-32.338c11.39-26.886-1.226-58.052-28.128-69.464-11.382-4.81-36.818-7.916-64.782-7.916zM339.414 767.942c-0.734 0-1.484-0.11-2.226-0.312a8.002 8.002 0 0 1-5.464-9.898c0.508-1.748 49.122-176.608-62.074-312.496a7.984 7.984 0 0 1 1.118-11.242 7.964 7.964 0 0 1 11.25 1.124c116.62 142.492 65.594 325.22 65.07 327.046a8.008 8.008 0 0 1-7.674 5.778zM159.72 384.466a7.94 7.94 0 0 1-6.588-3.466l-9.322-13.522c-27.122-3.452-51.338-18.16-66.888-40.768-14.53-21.096-19.978-46.592-15.334-71.792 4.646-25.202 18.824-47.092 39.934-61.628 16.082-11.07 34.874-16.926 54.328-16.926a95.964 95.964 0 0 1 79.076 41.534 95.646 95.646 0 0 1 14.232 77.006l9.328 13.552c1.204 1.734 1.664 3.888 1.282 5.98a8.014 8.014 0 0 1-3.326 5.136l-92.192 63.486a7.964 7.964 0 0 1-4.53 1.408z m-3.872-192.112c-16.2 0-31.852 4.872-45.256 14.114-17.588 12.1-29.41 30.338-33.282 51.338-3.872 21.016 0.67 42.25 12.78 59.848 13.568 19.72 35.038 32.21 58.918 34.304a7.968 7.968 0 0 1 5.886 3.434l6.872 9.962 79.022-54.414-6.878-9.994a7.938 7.938 0 0 1-1.108-6.714 79.794 79.794 0 0 0-11.04-67.28 80.046 80.046 0 0 0-65.914-34.598z" fill="#3A3847" p-id="120800"></path><path d="M186.046 366.324a7.95 7.95 0 0 1-6.59-3.466l-18.134-26.326a7.974 7.974 0 0 1-0.844-7.494l10.696-26.778a7.988 7.988 0 0 1 7.3-5.028l28.832-0.438c3.208-0.14 5.192 1.264 6.706 3.466l18.12 26.326a8 8 0 0 1-2.044 11.118l-39.512 27.214a7.996 7.996 0 0 1-4.53 1.406z m-9.134-35.334l11.172 16.222 26.348-18.142-11.164-16.222-19.22 0.296-7.136 17.846zM149.79 313.642a7.986 7.986 0 0 1-6.588-3.45l-18.152-26.326a8.01 8.01 0 0 1 2.044-11.132 7.998 7.998 0 0 1 11.118 2.046l18.152 26.324a8.008 8.008 0 0 1-2.046 11.132 7.948 7.948 0 0 1-4.528 1.406zM189.286 286.458a7.972 7.972 0 0 1-6.598-3.464l-18.134-26.358a7.998 7.998 0 0 1 2.06-11.118 7.984 7.984 0 0 1 11.118 2.062l18.134 26.356a8 8 0 0 1-6.58 12.522z" fill="#3A3847" p-id="120801"></path><path d="M222.324 419.004c-0.484 0-0.968-0.046-1.444-0.126l-22.234-4.09a8.01 8.01 0 0 1-5.136-3.34l-27.208-39.52a7.992 7.992 0 0 1 2.044-11.118l65.836-45.342c3.662-2.498 8.626-1.594 11.118 2.06l27.2 39.488c1.204 1.734 1.664 3.888 1.282 5.964l-4.084 22.25a7.99 7.99 0 0 1-3.326 5.154L226.86 417.6a8.028 8.028 0 0 1-4.536 1.404z m-17.526-19.344l15.714 2.888 34.054-23.452 2.888-15.74-20.784-30.182L184 369.446l20.798 30.214z" fill="#3A3847" p-id="120802"></path><path d="M177.856 410.792a7.956 7.956 0 0 1-6.59-3.466 8 8 0 0 1 2.046-11.118l92.176-63.454c3.668-2.484 8.626-1.592 11.118 2.062a8 8 0 0 1-2.046 11.118l-92.176 63.454a7.994 7.994 0 0 1-4.528 1.404zM118.492 312.378c-7.9 0-15.294-3.888-19.774-10.398a23.784 23.784 0 0 1-3.826-17.926 23.804 23.804 0 0 1 9.962-15.41c10.58-7.246 26.122-4.388 33.358 6.152a23.8 23.8 0 0 1 3.842 17.956 23.806 23.806 0 0 1-9.978 15.396 23.848 23.848 0 0 1-13.584 4.23z m-0.024-31.978c-1.624 0-3.2 0.484-4.552 1.42a7.894 7.894 0 0 0-3.302 5.122 7.88 7.88 0 0 0 1.272 5.964c2.42 3.514 7.58 4.512 11.118 2.076a7.934 7.934 0 0 0 3.326-5.136 7.884 7.884 0 0 0-1.282-5.98 7.986 7.986 0 0 0-6.58-3.466zM184.336 267.036a23.99 23.99 0 0 1-19.782-10.4c-7.488-10.882-4.748-25.84 6.128-33.334 10.594-7.292 26.154-4.372 33.374 6.152 7.496 10.868 4.748 25.842-6.136 33.352a23.86 23.86 0 0 1-13.584 4.23z m-0.046-31.994c-1.616 0-3.184 0.5-4.536 1.422a8.012 8.012 0 0 0-2.03 11.116c2.42 3.498 7.596 4.466 11.14 2.062a8.014 8.014 0 0 0 2.022-11.118 7.986 7.986 0 0 0-6.596-3.482zM153.874 291.408a8.01 8.01 0 0 1-6.596-3.466 8 8 0 0 1 2.06-11.118l13.17-9.056a8.04 8.04 0 0 1 11.116 2.062 7.998 7.998 0 0 1-2.06 11.118l-13.17 9.056a7.94 7.94 0 0 1-4.52 1.404zM246.806 436.446c-3.06 0-5.674-0.546-7.814-1.264-6.91-2.326-10.4-7.01-11.032-7.932a7.994 7.994 0 0 1 13.062-9.214c0.89 1.11 5.776 5.95 17.806-2.326 13.006-8.962 8.674-15.598 8.626-15.66a8 8 0 0 1 2.06-11.118 7.986 7.986 0 0 1 11.118 2.06c4.692 6.824 8.08 23.53-12.732 37.878-8.368 5.764-15.48 7.576-21.094 7.576zM323.806 688a7.96 7.96 0 0 1-6.136-2.858c-54.166-64.736-138.254-79.552-139.096-79.694a7.994 7.994 0 0 1-6.558-9.212c0.734-4.356 4.832-7.322 9.212-6.556 3.684 0.624 90.794 16.004 148.698 85.188a8.008 8.008 0 0 1-1 11.274 7.978 7.978 0 0 1-5.12 1.858zM464.698 624.044h-0.008c-23.584 0-45.28-11.804-58.038-31.604-9.984-15.458-13.342-33.896-9.454-51.914 3.886-18.004 14.55-33.428 30.034-43.422 22.428-14.412 82.416-26.012 117.136-26.012 20.19 0 30.87 3.544 34.63 11.492 10.79 22.858-49.136 112.498-77.024 130.468a68.624 68.624 0 0 1-37.276 10.992z m79.672-136.962c-34.968 0-90.734 12.054-108.486 23.468-11.874 7.666-20.072 19.516-23.054 33.35-2.99 13.834-0.406 27.996 7.26 39.878 9.798 15.208 26.474 24.28 44.602 24.28h0.008c10.148 0 20.042-2.92 28.612-8.432 28.2-18.176 74.384-97.336 71.202-110.264-0.206 0.468-4.47-2.28-20.144-2.28z" fill="#3A3847" p-id="120803"></path><path d="M371.656 656.022a7.984 7.984 0 0 1-7.346-11.13c37.926-88.688 119.71-117.636 123.17-118.822 4.2-1.438 8.712 0.78 10.148 4.95a7.99 7.99 0 0 1-4.942 10.164c-0.782 0.266-78.624 28.028-113.686 109.984a7.974 7.974 0 0 1-7.344 4.854zM435.61 1023.76h-191.862a7.988 7.988 0 0 1-7.916-6.87l-31.978-223.842a7.968 7.968 0 0 1 1.876-6.354 7.96 7.96 0 0 1 6.042-2.766h255.818c2.318 0 4.52 1 6.042 2.766a7.972 7.972 0 0 1 1.874 6.354l-31.976 223.842a7.998 7.998 0 0 1-7.92 6.87z m-184.932-15.988h177.998l29.69-207.852H220.99l29.688 207.852zM483.7 767.942H195.78a7.988 7.988 0 0 1-7.994-7.994 7.99 7.99 0 0 1 7.994-7.994h287.92a7.99 7.99 0 0 1 7.994 7.994 7.988 7.988 0 0 1-7.994 7.994z" fill="#3A3847" p-id="120804"></path><path d="M483.576 799.92H195.78a7.99 7.99 0 0 1-7.994-7.994 7.99 7.99 0 0 1 7.994-7.996h287.794a7.99 7.99 0 0 1 7.994 7.996 7.988 7.988 0 0 1-7.992 7.994z" fill="#3A3847" p-id="120805"></path><path d="M195.78 799.92a7.99 7.99 0 0 1-7.994-7.994v-31.978a7.99 7.99 0 0 1 7.994-7.994 7.988 7.988 0 0 1 7.994 7.994v31.978a7.988 7.988 0 0 1-7.994 7.994z" fill="#3A3847" p-id="120806"></path><path d="M483.576 799.92h-0.032a7.99 7.99 0 0 1-7.962-8.026l0.126-31.978a7.994 7.994 0 0 1 7.994-7.962h0.032a7.99 7.99 0 0 1 7.962 8.026l-0.126 31.978a7.994 7.994 0 0 1-7.994 7.962z" fill="#3A3847" p-id="120807"></path><path d="M387.644 1023.76a7.99 7.99 0 0 1-7.994-7.994v-7.978a7.988 7.988 0 0 1 7.994-7.994 7.988 7.988 0 0 1 7.994 7.994v7.978a7.99 7.99 0 0 1-7.994 7.994z" fill="#3A3847" p-id="120808"></path><path d="M339.678 1023.76a7.99 7.99 0 0 1-7.996-7.994v-7.978a7.99 7.99 0 0 1 7.996-7.994 7.988 7.988 0 0 1 7.994 7.994v7.978a7.99 7.99 0 0 1-7.994 7.994z" fill="#3A3847" p-id="120809"></path><path d="M291.712 1023.76a7.99 7.99 0 0 1-7.994-7.994v-7.978a7.988 7.988 0 0 1 7.994-7.994 7.988 7.988 0 0 1 7.994 7.994v7.978a7.99 7.99 0 0 1-7.994 7.994z" fill="#3A3847" p-id="120810"></path><path d="M500.15 338.218a7.98 7.98 0 0 1-7.744-6.042 7.986 7.986 0 0 1 5.792-9.698 72.81 72.81 0 0 1 17.808-2.216 7.988 7.988 0 0 1 7.994 7.994 7.988 7.988 0 0 1-7.994 7.994c-4.692 0-9.36 0.578-13.89 1.718a7.75 7.75 0 0 1-1.966 0.25z" fill="#3A3847" p-id="120811"></path><path d="M451.918 394.304c-0.258 0-0.524-0.016-0.782-0.032a8.004 8.004 0 0 1-7.182-8.744c2.952-30.276 24.756-55.616 54.25-63.048 4.292-1.108 8.626 1.516 9.704 5.792a7.982 7.982 0 0 1-5.8 9.696c-22.958 5.808-39.94 25.528-42.242 49.122a7.994 7.994 0 0 1-7.948 7.214zM451.598 448.17a7.99 7.99 0 0 1-7.994-7.994v-15.988a7.99 7.99 0 0 1 7.994-7.994 7.99 7.99 0 0 1 7.994 7.994v15.988a7.988 7.988 0 0 1-7.994 7.994z" fill="#3A3847" p-id="120812"></path><path d="M515.554 288.286h-15.992a7.99 7.99 0 0 1-7.994-7.994 7.99 7.99 0 0 1 7.994-7.996h15.992a7.988 7.988 0 0 1 7.992 7.996 7.988 7.988 0 0 1-7.992 7.994z" fill="#3A3847" p-id="120813"></path><path d="M438.312 302.306a8 8 0 0 1-6.598-3.466 8 8 0 0 1 2.06-11.118c14.694-10.086 31.916-15.426 49.8-15.426h15.988a7.99 7.99 0 0 1 7.994 7.996 7.988 7.988 0 0 1-7.994 7.994h-15.988c-14.638 0-28.73 4.356-40.744 12.616a7.93 7.93 0 0 1-4.518 1.404zM403.632 429.888a7.99 7.99 0 0 1-7.994-7.994v-61.66c0-15.912 4.28-31.478 12.382-45.046 2.264-3.78 7.182-5.042 10.96-2.764a8.008 8.008 0 0 1 2.764 10.976c-6.622 11.07-10.118 23.81-10.118 36.834v61.66a7.988 7.988 0 0 1-7.994 7.994zM403.632 464.346a7.988 7.988 0 0 1-7.994-7.994v-15.988a7.99 7.99 0 0 1 7.994-7.994 7.99 7.99 0 0 1 7.996 7.994v15.988a7.99 7.99 0 0 1-7.996 7.994z" fill="#3A3847" p-id="120814"></path><path d="M515.554 240.32h-0.032l-15.992-0.062a7.994 7.994 0 1 1 0.032-15.988h0.032l15.992 0.062a7.988 7.988 0 0 1 7.96 8.026 7.99 7.99 0 0 1-7.992 7.962z" fill="#3A3847" p-id="120815"></path><path d="M395.482 258.26a7.996 7.996 0 0 1-4.684-14.474c17.838-12.866 38.95-19.674 61.036-19.674l47.754 0.156a7.996 7.996 0 0 1 7.97 8.026 7.992 7.992 0 0 1-7.994 7.962h-0.024l-47.73-0.156c-18.682 0-36.56 5.762-51.66 16.644a7.88 7.88 0 0 1-4.668 1.516zM355.448 451.576a7.99 7.99 0 0 1-7.994-7.994v-115.106c0-16.926 4.136-33.742 11.976-48.622 2.054-3.936 6.91-5.402 10.796-3.358a7.984 7.984 0 0 1 3.348 10.79c-6.72 12.788-10.132 26.636-10.132 41.19v115.106a7.99 7.99 0 0 1-7.994 7.994zM355.448 496.138a7.99 7.99 0 0 1-7.994-7.994v-15.99a7.99 7.99 0 0 1 7.994-7.994 7.99 7.99 0 0 1 7.994 7.994v15.99a7.99 7.99 0 0 1-7.994 7.994z" fill="#3A3847" p-id="120816"></path><path d="M793.504 304.274h-172.674a7.988 7.988 0 0 1-7.994-7.994 7.988 7.988 0 0 1 7.994-7.994h172.674a7.99 7.99 0 0 1 7.994 7.994 7.99 7.99 0 0 1-7.994 7.994zM761.542 272.296h-140.698c-4.42 0-7.994-3.576-7.994-7.994s3.574-7.994 7.994-7.994h140.698c4.418 0 7.992 3.576 7.992 7.994s-3.574 7.994-7.992 7.994z" fill="#3A3847" p-id="120817"></path><path d="M547.524 352.24a7.854 7.854 0 0 1-3.794-0.966 7.97 7.97 0 0 1-4.2-7.028l0.016-127.908c0-2.936 1.608-5.636 4.2-7.026a7.91 7.91 0 0 1 8.182 0.344l73.306 47.966a7.98 7.98 0 0 1 3.608 6.682l-0.016 31.978c0 2.702-1.36 5.214-3.608 6.682l-73.306 47.966a8 8 0 0 1-4.388 1.31z m8.01-121.116l-0.016 98.336 57.318-37.506 0.016-23.326-57.318-37.504zM818.642 329.414a7.974 7.974 0 0 1-5.652-2.342l-174.268-174.282a7.992 7.992 0 1 1 11.304-11.304l174.266 174.284a7.986 7.986 0 0 1 0 11.304 7.972 7.972 0 0 1-5.65 2.34z" fill="#3A3847" p-id="120818"></path><path d="M644.376 155.13a7.992 7.992 0 0 1-5.652-13.646l138.918-138.9a7.992 7.992 0 1 1 11.304 11.304l-138.918 138.9a7.966 7.966 0 0 1-5.652 2.342zM818.642 329.414a7.974 7.974 0 0 1-5.652-2.342 7.988 7.988 0 0 1 0-11.304l137.384-137.386a7.988 7.988 0 0 1 11.304 0 7.988 7.988 0 0 1 0 11.304l-137.386 137.386a7.966 7.966 0 0 1-5.65 2.342z" fill="#3A3847" p-id="120819"></path><path d="M956.028 192.026a7.978 7.978 0 0 1-5.7-2.388L777.594 13.84a8.006 8.006 0 0 1 0.094-11.304 7.99 7.99 0 0 1 11.304 0.094l172.734 175.796a7.976 7.976 0 0 1-0.094 11.304 7.966 7.966 0 0 1-5.604 2.296zM802.652 209.716a39.76 39.76 0 0 1-28.26-11.694c-10.554-10.556-32.82-68.888-22.626-79.132 2.686-2.67 6.23-2.982 8.682-2.982 12.552 0 57.038 12.162 70.464 25.574 15.598 15.584 15.598 40.956 0 56.54a39.72 39.72 0 0 1-28.26 11.694z m-37.394-77.366c2.216 13.694 11.93 45.858 20.44 54.368 9.054 9.056 24.858 9.056 33.912 0 9.354-9.354 9.354-24.576 0-33.93-8.198-8.198-39.816-18.19-54.352-20.438z" fill="#3A3847" p-id="120820"></path><path d="M915.276 144.388c-0.264 0-0.53-0.016-0.794-0.046a7.976 7.976 0 0 1-7.168-8.728c1.968-20.172 2.794-77.35-16.926-99.444-13.334-14.944-24.714-21.626-32.898-19.33-10.382 2.936-18.08 21.204-21.11 38.036-0.782 4.326-4.964 7.12-9.274 6.45a7.994 7.994 0 0 1-6.464-9.292c2.358-13.116 10.242-44.296 32.492-50.588 14.708-4.138 31.242 3.966 49.184 24.078 28.418 31.852 21.218 108.422 20.906 111.654a7.994 7.994 0 0 1-7.948 7.21z" fill="#3A3847" p-id="120821"></path></svg>