<svg t="1760593696724" class="icon" viewBox="0 0 1024 1024" version="1.1" xmlns="http://www.w3.org/2000/svg" p-id="95338" width="64" height="64"><path d="M441.72872 673.283595h140.798557a217.59777 217.59777 0 0 1 217.59777 217.597769V1024h-575.994096V890.753366a217.59777 217.59777 0 0 1 217.597769-217.469771z" fill="#D0F0FE" p-id="95339"></path><path d="M582.27128 673.283595h-30.335689A197.501976 197.501976 0 0 1 749.437566 870.401574v153.598426h50.303485V890.753366A217.59777 217.59777 0 0 0 582.27128 673.283595z" fill="#A6D3E8" p-id="95340"></path><path d="M680.958268 822.402066l20.607789-35.583635a6.271936 6.271936 0 0 0 0-5.247946L665.598426 689.795426c-3.967959-1.663983-7.935919-3.199967-12.031877-4.607953h-1.279987a217.59777 217.59777 0 0 0-69.759285-11.519882h-140.798557a217.59777 217.59777 0 0 0-69.759285 11.519882h-1.279987c-4.095958 1.407986-8.063917 2.94397-12.031876 4.607953l-36.607625 91.775059a6.271936 6.271936 0 0 0 0 5.247946l20.607789 35.583635a5.88794 5.88794 0 0 1 0 4.863951l-14.975847 49.279494a6.271936 6.271936 0 0 0 2.94397 7.295926L512 976.000492l181.374141-92.159055a6.271936 6.271936 0 0 0 2.94397-7.295926l-15.871838-49.279494a5.88794 5.88794 0 0 1 0.511995-4.863951z" fill="#E6FAFF" p-id="95341"></path><path d="M652.030565 684.803477c-8.063917 116.09481-47.999508 243.197507-140.030565 291.197015-92.031057-48.255505-131.966647-175.102205-140.030565-291.197015a217.59777 217.59777 0 0 1 69.759285-11.519882h140.798557a217.59777 217.59777 0 0 1 69.503288 11.519882z" fill="#133246" p-id="95342"></path><path d="M567.167435 742.402886a77.823202 77.823202 0 0 1-122.622744-16.127834 77.951201 77.951201 0 1 0 134.910618 0 72.703255 72.703255 0 0 1-12.287874 16.127834z" fill="#FFD18D" p-id="95343"></path><path d="M652.030565 684.803477a544.890415 544.890415 0 0 1-35.455637 163.83832L512 755.202755v-81.91916h70.27128a217.59777 217.59777 0 0 1 69.759285 11.519882zM512 673.283595V755.202755l-104.574928 93.439042a544.890415 544.890415 0 0 1-35.455637-163.83832 217.59777 217.59777 0 0 1 69.759285-11.519882z" fill="#3E78A2" p-id="95344"></path><path d="M809.980946 179.208659l-9.087907 239.485545h-55.167435v-179.198163a68.607297 68.607297 0 0 1-28.159711 6.015939 69.759285 69.759285 0 0 1-69.631286-69.375289 144.638517 144.638517 0 0 1-109.182881 45.695531 164.222317 164.222317 0 0 1-36.863622-4.223956 181.630138 181.630138 0 0 1-143.102534 63.999344 200.061949 200.061949 0 0 1-81.151168-16.895827A164.478314 164.478314 0 0 1 215.42704 217.608266a124.030729 124.030729 0 0 1-27.135722-76.799213c0-78.0792 76.799213-140.798557 170.75025-140.798557a194.430007 194.430007 0 0 1 102.39895 27.903714A155.006411 155.006411 0 0 1 539.007723 7.562418a142.334541 142.334541 0 0 1 115.198819 53.631451h41.343577A114.046831 114.046831 0 0 1 809.980946 179.208659z" fill="#9F582D" p-id="95345"></path><path d="M695.934115 61.193869h-41.343577a142.334541 142.334541 0 0 0-115.198819-53.631451 159.99836 159.99836 0 0 0-28.543707 2.559974 135.422612 135.422612 0 0 1 86.911109 51.199475h41.471575A114.046831 114.046831 0 0 1 752.765532 179.208659l-6.655932 177.150184v62.975355h55.167435L809.980946 179.208659a114.046831 114.046831 0 0 0-114.046831-118.01479z" fill="#89380B" p-id="95346"></path><path d="M745.981602 240.392032v179.198163H223.106961L215.42704 217.608266a164.478314 164.478314 0 0 0 62.46336 47.871509 200.061949 200.061949 0 0 0 81.151168 16.895827 181.630138 181.630138 0 0 0 143.102533-63.999344 164.222317 164.222317 0 0 0 36.863622 4.223956 144.638517 144.638517 0 0 0 109.182881-45.695531 69.759285 69.759285 0 0 0 69.631286 69.375289 68.607297 68.607297 0 0 0 28.159712-5.88794z" fill="#89380B" p-id="95347"></path><path d="M232.066869 380.038601h559.866262A52.223465 52.223465 0 0 1 844.796589 432.262065a52.223465 52.223465 0 0 1-52.223465 52.223465H232.066869a52.223465 52.223465 0 0 1-52.223464-52.223465 52.223465 52.223465 0 0 1 52.223464-52.223464z" fill="#F4C4B3" p-id="95348"></path><path d="M434.048799 593.156416v93.69504a77.951201 77.951201 0 0 0 155.902402 0v-93.69504z" fill="#EAA28F" p-id="95349"></path><path d="M745.981602 240.392032v179.198163a233.981602 233.981602 0 0 1-467.451209 0v-153.598425a200.061949 200.061949 0 0 0 81.151168 16.895826 181.630138 181.630138 0 0 0 143.102533-63.999344 164.222317 164.222317 0 0 0 36.863623 4.223957 144.638517 144.638517 0 0 0 109.18288-45.695532 69.759285 69.759285 0 0 0 69.631287 69.375289 68.607297 68.607297 0 0 0 27.519718-6.399934z" fill="#FFD2C0" p-id="95350"></path><path d="M717.82189 246.40797a71.679265 71.679265 0 0 1-23.551758-4.095958v177.406182a268.029253 268.029253 0 0 1-53.119456 153.598426A164.606313 164.606313 0 0 1 512 641.027925a234.1096 234.1096 0 0 0 233.725604-221.949725v-179.198163a68.607297 68.607297 0 0 1-27.903714 6.527933z" fill="#EAA28F" p-id="95351"></path><path d="M627.198819 389.766501a12.799869 12.799869 0 0 1-3.071968 0l-2.94397-0.895991-2.559974-1.407985a11.519882 11.519882 0 0 1-2.431975-1.919981l-1.791982-2.559974a27.135722 27.135722 0 0 1-1.407985-2.687972 19.839797 19.839797 0 0 1-0.895991-2.94397 20.991785 20.991785 0 0 1 0-2.94397 24.831745 24.831745 0 0 1 0-3.071968 18.175814 18.175814 0 0 1 0.895991-2.815971 12.799869 12.799869 0 0 1 1.407985-2.687973l1.919981-2.431975 2.431975-1.91998 2.559974-1.407986 2.943969-0.895991a15.871837 15.871837 0 0 1 6.015939 0l2.94397 0.895991 2.687972 1.407986 2.303976 1.91998a11.519882 11.519882 0 0 1 1.919981 2.431975 8.959908 8.959908 0 0 1 1.407985 2.687973 10.367894 10.367894 0 0 1 0.895991 2.815971 12.799869 12.799869 0 0 1 0 3.071968 11.007887 11.007887 0 0 1 0 2.94397 11.263885 11.263885 0 0 1-0.895991 2.94397 27.135722 27.135722 0 0 1-1.407985 2.687972 15.231844 15.231844 0 0 1-1.919981 2.303977 10.75189 10.75189 0 0 1-2.303976 1.91998l-2.687972 1.407986-2.94397 0.895991a11.519882 11.519882 0 0 1-3.071969 0.255997zM396.801181 389.766501a11.519882 11.519882 0 0 1-2.94397 0l-2.94397-0.895991-2.687972-1.407985a10.75189 10.75189 0 0 1-2.303977-1.919981 15.231844 15.231844 0 0 1-1.91998-2.303976 13.567861 13.567861 0 0 1-1.407986-2.687973 11.263885 11.263885 0 0 1-0.89599-2.943969 11.007887 11.007887 0 0 1 0-2.94397 12.799869 12.799869 0 0 1 0-3.071969 10.367894 10.367894 0 0 1 0.89599-2.815971 8.959908 8.959908 0 0 1 1.407986-2.687972 11.519882 11.519882 0 0 1 1.91998-2.431975l2.303977-1.919981 2.687972-1.407985 2.94397-0.895991a15.871837 15.871837 0 0 1 6.015938 0l2.815971 0.895991a12.799869 12.799869 0 0 1 2.687973 1.407985l2.431975 1.919981 1.91998 2.431975a12.799869 12.799869 0 0 1 1.407986 2.687972 18.175814 18.175814 0 0 1 0.895991 2.815971 24.831745 24.831745 0 0 1 0 3.071969 20.991785 20.991785 0 0 1 0 2.94397 19.839797 19.839797 0 0 1-0.895991 2.943969 27.135722 27.135722 0 0 1-1.407986 2.687973l-1.91998 2.303976a11.519882 11.519882 0 0 1-2.431975 1.919981 12.799869 12.799869 0 0 1-2.687973 1.407985l-2.815971 0.895991a12.799869 12.799869 0 0 1-3.071968 0z" fill="#2B2F52" p-id="95352"></path><path d="M512 537.604986a52.479462 52.479462 0 0 1-52.479462-52.479463v-27.519717a4.86395 4.86395 0 0 1 4.991949-4.863951h94.975026a4.86395 4.86395 0 0 1 4.991949 4.863951v27.903714A52.479462 52.479462 0 0 1 512 537.604986z" fill="#FFFFFF" p-id="95353"></path><path d="M555.90355 943.744823A180.734147 180.734147 0 0 1 512 976.000492a180.734147 180.734147 0 0 1-43.90355-32.255669l15.871837-106.238911a77.439206 77.439206 0 0 0 56.063426 0z" fill="#F5E3BF" p-id="95354"></path></svg>