<svg t="1760596771191" class="icon" viewBox="0 0 1261 1024" version="1.1" xmlns="http://www.w3.org/2000/svg" p-id="11301" width="64" height="64"><path d="M958.494514 307.124309c-0.606067-2.27275-1.742442-4.5455-3.257609-6.666734-0.378792-0.151517-0.530308-0.378792-0.757583-0.530308-0.530308-0.606067-1.136375-0.9091-1.742442-1.515167l-1.287892-0.984858c-1.136375-0.757583-2.500025-1.136375-3.787917-1.363651-1.136375-0.378792-2.121234-0.606067-3.409125-0.606066H672.052231c-3.787917 0-7.197042 1.515167-10.075859 4.393983-1.742442 1.515167-2.651542 3.257609-3.409125 5.303084-0.378792 1.515167-0.757583 2.878817-0.757584 4.393984v0.757583c0.151517 3.6364 1.515167 6.818251 4.166709 9.697068 2.878817 2.651542 6.287942 4.015192 10.075859 4.015192h161.819814v-8.333418c0-3.787917 1.36365-7.197042 4.015192-9.848584 0.378792-0.227275 0.530308-0.606067 0.530308-0.606066 2.878817-2.500025 5.90915-3.787917 9.697068-3.787917 3.6364 0 6.818251 1.36365 9.469792 3.787917 0.151517 0 0.151517 0.378792 0.530309 0.606066 2.651542 2.651542 4.166709 6.060667 4.166708 9.848584v8.333418h81.894766c0.9091 0 1.893958 0 2.651541-0.227275 2.500025-0.378792 4.772775-1.515167 6.666734-3.030334 0.227275-0.378792 0.606067-0.606067 0.9091-0.757583 0.606067-0.757583 1.136375-1.515167 1.893959-2.500025 0.984858-1.36365 1.515167-3.030334 1.893958-4.772776l0.227275-2.121233v-3.484884z" p-id="11302"></path><path d="M954.479322 299.927267c0.227275 0.151517 0.378792 0.378792 0.757583 0.530308-0.757583-0.757583-1.515167-1.36365-2.500025-2.121233 0.606067 0.606067 1.212133 0.984858 1.742442 1.590925" fill="#333333" p-id="11303"></path><path d="M953.570222 320.836569c1.136375-0.984858 2.121234-1.893958 2.878817-3.257609-0.757583 0.9091-1.36365 1.742442-1.893959 2.500025-0.45455 0.151517-0.833342 0.378792-0.984858 0.757584m13.484984 183.86549c9.318276 5.151567 19.015343 9.848584 28.863928 14.242568 10.075859 4.5455 20.151718 8.939484 30.757885 13.333468 1.36365 0.530308 2.878817 0.984858 4.393984 0.984858 1.136375 0.227275 2.27275 0 3.409125-0.151517 0.9091-0.227275 1.893958-0.378792 3.030334-0.984858 0.757583-0.151517 1.515167-0.530308 2.27275-0.9091l1.36365-1.36365c0.984858-0.606067 1.742442-1.515167 2.27275-2.27275 0.606067-0.9091 1.287892-2.121234 1.742442-3.030334 0.378792-0.984858 0.757583-1.893958 0.757584-2.878817 0.378792-1.893958 0.378792-3.6364 0-5.151567 0-0.984858-0.378792-1.893958-0.984859-2.878817-0.378792-1.136375-0.9091-2.27275-1.515167-3.030334-0.757583-1.36365-1.893958-2.27275-3.257608-3.030333l-2.878817-1.742442c-0.378792-0.151517-0.984858-0.378792-1.136375-0.378792-70.682531-28.485136-128.561902-65.909756-173.789631-111.895067V315.685001c0-3.787917-1.515167-7.197042-4.166709-9.848584-0.378792-0.227275-0.378792-0.606067-0.530308-0.606066-2.651542-2.500025-5.90915-3.787917-9.469793-3.787917-3.787917 0-6.818251 1.36365-9.697067 3.787917 0 0-0.151517 0.378792-0.530309 0.606066-2.651542 2.651542-4.015192 6.060667-4.015192 9.848584v84.546308c0 3.409125 1.36365 6.439459 3.787917 9.091 0.227275 0.227275 0.606067 0.378792 0.984859 0.757584 5.90915 6.287942 12.121334 12.575884 18.636551 18.409276 31.212436 29.091202 67.879472 54.31873 109.698076 76.21289" p-id="11304"></path><path d="M995.919134 518.944627c-9.848584-4.393984-19.545652-9.091001-28.863928-14.242568H229.623528c-1.515167 0-3.030334 0.378792-4.393984 0.757583-1.36365 0.606067-2.878817 1.136375-4.015192 2.121234-0.757583 0.378792-1.136375 0.757583-1.742442 1.287892-0.606067 0.530308-0.984858 1.136375-1.515167 1.742441-1.36365 1.742442-2.27275 3.6364-2.500025 5.909151-0.151517 0.757583-0.151517 1.742442-0.151517 2.500025 0 0.984858 0 1.742442 0.151517 2.651542 0.227275 1.893958 1.136375 3.787917 2.27275 5.681876 0.530308 0.606067 1.136375 1.136375 1.742442 1.893958 0.378792 0.378792 0.984858 0.984858 1.742442 1.515167 1.742442 1.136375 3.6364 1.893958 5.681875 2.27275 0.757583 0.151517 1.742442 0.151517 2.651542 0.151517h801.523234c-1.515167 0-3.030334-0.378792-4.393984-0.984859-10.681926-4.318225-20.682027-8.712209-30.757885-13.257709" p-id="11305"></path><path d="M1040.162004 507.505118c-1.136375-0.984858-2.500025-1.515167-4.015192-2.121234 0.151517 0 0.757583 0.227275 1.136375 0.378792l2.878817 1.742442z m5.681875 8.939484c-0.151517-2.27275-1.136375-4.166709-2.500025-5.909151 0.606067 0.757583 1.136375 1.893958 1.515167 3.030334 0.606067 0.984858 0.984858 1.969717 0.984858 2.878817m0 5.151567c0 0.9091-0.378792 1.893958-0.757583 2.878817-0.378792 0.984858-1.136375 2.121234-1.742442 3.030333 1.36365-1.893958 2.348509-3.787917 2.500025-5.90915m-11.363751 11.363751c1.893958-0.378792 3.6364-0.984858 5.303084-1.893959-0.757583 0.378792-1.515167 0.757583-2.27275 0.9091-1.136375 0.606067-2.121234 0.833342-3.030334 0.984859" fill="#333333" p-id="11306"></path><path d="M1166.829948 738.71957c0-1.893958-0.378792-3.787917-1.36365-5.681875 0 0.378792 0 0.984858-0.227275 1.36365-0.984858 3.787917-3.030334 6.818251-6.439459 8.712209-3.257609 2.27275-6.818251 2.651542-10.606168 1.742442-17.500176-4.166709-34.545803-8.939484-51.061121-14.242568-5.90915-1.893958-11.969818-3.787917-18.030485-6.060667H109.773834c-3.787917 0-7.197042 1.515167-9.848584 4.166708-2.651542 2.878817-4.166709 5.90915-4.393984 9.469793v0.606067c0 4.015192 1.515167 7.424317 4.393984 10.075859 2.651542 2.878817 6.060667 4.166709 9.848584 4.166708h1042.813546c3.787917 0 7.197042-1.36365 10.075859-4.166708 2.651542-2.803059 4.166709-6.212184 4.166709-10.151618" p-id="11307"></path><path d="M1165.314781 734.325587c0.227275-0.378792 0.227275-0.984858 0.227275-1.363651 0.530308-3.409125 0-6.439459-1.893958-9.469792-1.893958-3.257609-4.924292-5.303084-8.712209-6.287942-86.212991-21.060818-159.395547-55.076313-219.547669-101.970725V533.187195H906.827326v69.697672h-56.818755c-3.787917 0-7.424317 1.515167-10.075859 4.166709-2.651542 2.878817-4.166709 6.287942-4.166709 10.075859 0 4.015192 1.515167 7.424317 4.166709 10.075859 2.651542 2.878817 6.287942 4.166709 10.075859 4.166709h60.000605c5.90915 4.924292 11.969818 9.697067 18.25776 14.242568 44.091354 32.651844 94.243375 59.091505 150.834854 78.788673 6.060667 2.27275 12.121334 4.166709 18.030485 6.060667 16.515318 5.303084 33.636703 10.075859 51.061121 14.242568 3.787917 0.9091 7.424317 0.606067 10.606168-1.742442 3.484884-1.8182 5.606117-4.848534 6.515217-8.63645m-159.319788 18.636551V904.554576H720.310294v-89.849391c0-3.787917-1.36365-7.197042-4.166709-10.075859-2.651542-2.878817-6.060667-4.166709-10.075859-4.166709H555.384388c-4.015192 0-7.424317 1.36365-10.075859 4.166709-2.878817 2.878817-4.166709 6.287942-4.166709 10.075859V904.554576H255.457121V752.962138h-28.485135V904.554576H14.242568c-4.015192 0-7.197042 1.515167-10.075859 4.166709-2.651542 2.878817-4.166709 6.287942-4.166709 10.075859 0 4.015192 1.515167 7.424317 4.166709 10.227376 2.878817 2.651542 6.060667 4.015192 10.075859 4.015192h1232.966978c4.015192 0 7.424317-1.36365 10.227376-4.015192 2.651542-2.878817 4.015192-6.287942 4.015192-10.227376 0-3.787917-1.287892-7.197042-4.015192-10.075859-2.878817-2.651542-6.287942-4.166709-10.227376-4.166709h-212.729418V752.962138h-28.485135zM597.581783 904.554576h-27.954827v-75.606823h122.122444v75.606823H597.581783z" p-id="11308"></path><path d="M597.581783 843.190321h94.243375v61.364255H597.581783z" fill="#FF0815" p-id="11309"></path><path d="M1005.994993 904.554576v-137.34987h-100.83435v55.303588c0 4.015192-1.36365 7.424317-4.166709 10.075859-2.651542 2.651542-6.060667 4.166709-10.075859 4.166709-3.787917 0-7.424317-1.515167-10.075859-4.166709s-4.166709-6.060667-4.166709-10.075859v-55.303588H383.867507v55.303588c0 4.015192-1.515167 7.424317-4.166708 10.075859-2.878817 2.651542-6.287942 4.166709-10.07586 4.166709-4.015192 0-7.424317-1.515167-10.075859-4.166709-2.878817-2.651542-4.166709-6.060667-4.166709-10.075859v-55.303588h-59.849088V904.554576h245.608537v-89.849391c0-3.787917 1.36365-7.197042 4.166709-10.075859 2.651542-2.878817 6.060667-4.166709 10.075859-4.166709H706.067726c4.015192 0 7.424317 1.36365 10.075859 4.166709 2.878817 2.878817 4.166709 6.287942 4.166709 10.075859V904.554576h285.684699z" fill="#FF0815" p-id="11310"></path><path d="M592.809008 15.98501c-9.697067 9.697067-14.62136 22.045677-14.848635 36.288244 0 15.227426 5.151567 27.576036 15.000152 37.197345l0.757583 0.757584c2.878817 2.500025 5.90915 4.5455 9.091001 6.287942 1.136375-2.651542 2.27275-5.303084 3.6364-7.954626 1.515167-3.787917 4.166709-6.287942 7.803109-7.803109 3.6364-1.36365 7.045526-1.36365 10.833443 0.151517 1.515167 0.606067 2.651542 1.36365 3.787917 2.27275 0.9091-0.757583 2.121234-1.515167 3.409125-2.27275 0.378792-0.151517 1.136375-0.378792 1.742442-0.378792 3.030334-1.136375 6.060667-0.984858 9.091001 0.151517 0.9091 0.378792 2.121234 0.9091 3.030333 1.742442 2.121234 1.36365 3.6364 3.257609 4.924292 5.90915 1.36365 3.030334 2.878817 6.060667 4.393984 9.318276 3.787917-2.121234 7.197042-4.5455 10.454651-7.575834h0.227275c10.833443-10.075859 16.136526-22.575985 16.363801-37.803412 0-14.242568-5.151567-26.212386-15.606218-35.909453 0-0.151517 0-0.151517-0.227275-0.151516v-0.227275l-0.378791-0.378792C656.446013 5.151567 644.476196 0 630.233628 0s-26.591177 5.151567-37.42462 15.98501m20.378993 20.07596c4.924292-4.924292 10.606168-7.575834 17.121385-7.575834 6.287942 0 11.363751 2.27275 15.757735 7.045525 0 0 0.151517 0.378792 0.378792 0.530309 0.151517 0 0.378792 0.227275 0.530308 0.378791 4.5455 4.393984 7.045526 9.469792 7.045526 15.757735 0 6.666734-2.27275 12.348609-7.045526 16.515318v0.227275c-4.772775 4.015192-10.075859 6.060667-16.742593 6.060667-1.515167 0-3.257609-0.227275-4.772776-0.606066-4.772775-0.530308-9.091001-2.500025-12.954676-5.681876-4.015192-4.393984-6.060667-9.848584-6.060667-16.515318 0.075758-6.439459 2.121234-11.742543 6.742492-16.136526" p-id="11311"></path><path d="M625.460852 74.470448c1.515167 0.378792 3.257609 0.606067 4.772776 0.606067 6.666734 0 11.969818-2.121234 16.742593-6.060668v-0.151516c4.772775-4.166709 7.045526-9.848584 7.045526-16.515318 0-6.287942-2.500025-11.363751-7.045526-15.757735-0.151517-0.151517-0.378792-0.378792-0.530308-0.378792-0.606067-0.151517-1.287892-0.151517-1.893959-0.151516-6.439459 0.151517-12.197093 2.500025-17.121385 7.575834-4.5455 4.393984-6.666734 9.697067-6.666734 16.136526 0 5.757634 1.515167 10.681926 4.697017 14.697118" fill="#FF0815" p-id="11312"></path><path d="M614.324377 80.75839c-3.6364 1.515167-6.287942 4.015192-7.803109 7.803109-1.36365 2.651542-2.500025 5.303084-3.636401 7.954626C561.293539 183.335182 464.625897 249.775246 313.03346 296.13935c0.9091-0.378792 2.121234-0.606067 3.030333-0.606067h83.788724C516.671877 248.487354 593.1878 185.986724 628.945736 108.258667c7.045526 14.394085 15.378943 28.485136 25.303286 41.970121 42.348912 58.712713 111.137484 107.122292 206.441475 145.304495h83.561449c1.287892 0 2.27275 0.151517 3.409125 0.606067-151.213646-46.136829-248.487354-112.425376-292.124158-198.48685-1.515167-3.257609-3.030334-6.287942-4.393983-9.318276-1.287892-2.651542-2.878817-4.5455-4.924292-5.90915-0.9091-0.757583-2.121234-1.36365-3.030334-1.742442-3.030334-1.136375-6.060667-1.36365-9.091001-0.151517-0.606067 0-1.36365 0.151517-1.742442 0.378792-1.287892 0.757583-2.500025 1.515167-3.409125 2.27275-1.136375-0.9091-2.27275-1.742442-3.787917-2.27275-3.863675-1.515167-7.272801-1.515167-10.833442-0.151517M398.110075 315.685001v78.788674c-45.000454 45.60652-102.576792 82.425074-172.880531 110.910209 1.36365-0.378792 2.878817-0.757583 4.393984-0.757583h64.924897c48.409579-25.227527 89.849391-55.455105 124.243677-90.3797H574.248215v11.212235c0 1.136375 0.151517 2.121234 0.378792 3.030333 0.378792 2.651542 1.742442 4.924292 3.787916 7.197043 2.878817 2.651542 6.287942 4.015192 10.07586 4.015192h83.561448c4.015192 0 7.197042-1.287892 10.07586-4.015192 2.121234-2.27275 3.409125-4.5455 3.787917-7.197043 0.378792-0.984858 0.378792-1.893958 0.378791-3.030333v-11.212235h64.167314c3.787917 0 7.424317-1.287892 10.075859-4.166708 2.878817-2.651542 4.166709-6.287942 4.166709-10.075859 0-4.015192-1.287892-7.424317-4.166709-10.07586-2.651542-2.651542-6.287942-4.166709-10.075859-4.166708h-64.167314v-61.743047h-14.242568c-3.787917 0-7.197042-1.287892-10.075859-4.015192-2.651542-2.878817-4.015192-6.060667-4.166709-9.697068v100.83435h-55.076312v-100.758591c0 3.6364-1.36365 6.818251-4.166709 9.697067-2.878817 2.651542-6.060667 4.015192-10.075859 4.015192H574.248215v61.743047H426.595211v-70.076464c0-3.787917-1.36365-7.197042-4.166709-9.848584-2.651542-2.878817-6.287942-4.393984-10.075859-4.393984s-7.197042 1.515167-10.075859 4.393984c-2.651542 2.575784-4.166709 5.984909-4.166709 9.772825" p-id="11313"></path><path d="M398.110075 324.018419v-8.333418c0-3.787917 1.515167-7.197042 4.166709-9.848584 2.878817-2.878817 6.287942-4.393984 10.075859-4.393983s7.424317 1.515167 10.075859 4.393983c2.878817 2.651542 4.166709 6.060667 4.166709 9.848584v8.333418h161.819813c4.015192 0 7.197042-1.287892 10.07586-4.015192 2.878817-2.878817 4.166709-6.060667 4.166708-9.697068v-0.757583c0-1.515167-0.378792-2.878817-0.757583-4.393984-0.606067-2.121234-1.742442-3.787917-3.409125-5.303084-2.878817-2.878817-6.060667-4.393984-10.07586-4.393983H316.063793c-0.9091 0-2.121234 0.151517-3.030333 0.606066-1.893958 0.227275-3.409125 0.984858-4.924292 2.121234-0.757583 0.378792-1.36365 0.9091-2.121234 1.742442l-0.606067 0.530308c-1.742442 1.893958-2.878817 4.166709-3.257608 6.439459-0.151517 0.984858-0.378792 1.893958-0.378792 2.878817 0 0.757583 0 1.515167 0.227275 2.121233 0.151517 1.515167 0.530308 2.878817 1.36365 4.393984l1.136375 1.893959c0.530308 0.757583 0.984858 1.136375 1.515167 1.893958 0.378792 0.151517 0.530308 0.378792 0.9091 0.757584l0.606067 0.378791c1.742442 1.515167 3.787917 2.27275 5.90915 2.651542 0.984858 0.227275 1.742442 0.227275 2.651542 0.227275h82.046282z" p-id="11314"></path><path d="M588.490783 279.24524c-3.787917 0-7.197042 1.287892-10.07586 4.015192-2.651542 2.878817-4.166709 6.287942-4.166708 10.227376v2.121233h14.242568c4.015192 0 7.197042 1.515167 10.075859 4.393984 1.742442 1.515167 2.878817 3.257609 3.409125 5.303084 0.378792 1.515167 0.757583 2.878817 0.757584 4.393984v-1.893959h55.076312v1.893959c0-1.515167 0.378792-2.878817 0.757584-4.393984 0.757583-2.121234 1.742442-3.787917 3.409125-5.303084 2.878817-2.878817 6.287942-4.393984 10.075859-4.393984h14.242568v-2.121233c0-4.015192-1.36365-7.424317-4.166708-10.227376-2.878817-2.651542-6.060667-4.015192-10.07586-4.015192H588.490783z" p-id="11315"></path><path d="M578.414923 283.184674c2.878817-2.651542 6.287942-4.015192 10.07586-4.015192h83.561448c4.015192 0 7.197042 1.287892 10.07586 4.015192 2.878817 2.878817 4.166709 6.287942 4.166708 10.227376v2.121233H860.614739c-95.37975-38.182203-164.092564-86.591782-206.441476-145.304495-35.909453 57.727855-96.28885 106.213192-181.213948 145.304495H574.248215v-2.121233c0-3.939434 1.515167-7.348559 4.166708-10.227376" fill="#F9BC26" p-id="11316"></path><path d="M944.251946 324.018419h-0.606067c0.984858 0.151517 2.121234 0 3.257609-0.227275-0.757583 0.227275-1.742442 0.227275-2.651542 0.227275" fill="#323333" p-id="11317"></path><path d="M626.066919 325.760861h31.742744v85.455407h-31.742744z" fill="#FF0815" p-id="11318"></path><path d="M302.200017 306.972792c-0.378792 1.742442-0.530308 3.409125-0.151517 4.924292-0.227275-0.530308-0.227275-1.287892-0.227275-2.121233 0-0.9091 0.227275-1.893958 0.378792-2.803059m5.909151-8.787967c-1.136375 0.530308-2.121234 1.287892-2.651542 2.27275l0.606066-0.530308c0.681825-0.757583 1.287892-1.36365 2.045476-1.742442m5.303083 25.682077c1.136375 0.227275 2.27275 0.378792 3.636401 0.227275h-0.984859c-0.9091-0.075758-1.666683-0.075758-2.651542-0.227275" fill="#333333" p-id="11319"></path><path d="M219.547668 508.868768c0.606067-0.606067 0.984858-0.9091 1.742442-1.287892-1.36365 0.757583-2.27275 1.742442-3.257608 3.030333 0.606067-0.606067 0.984858-1.212133 1.515166-1.742441m-4.166708 10.075859c0-0.757583 0-1.742442 0.151516-2.500025-0.378792 1.515167-0.378792 3.257609 0 5.151567-0.151517-0.984858-0.151517-1.742442-0.151516-2.651542m109.773834 14.242568v81.515973C264.775397 661.976372 191.214049 696.219142 104.622267 717.27996c-3.787917 0.984858-6.818251 3.030334-8.939484 6.287942-1.893958 3.409125-2.500025 7.045526-1.515167 10.833443 0.378792 1.515167 0.757583 2.651542 1.287892 3.787917 0.151517-3.6364 1.742442-6.666734 4.393984-9.469793 2.651542-2.651542 6.060667-4.166709 9.848584-4.166708h70.455256c64.77338-22.575985 121.213343-53.788421 169.395647-93.107H754.553063c4.015192 0 7.197042-1.36365 10.075859-4.166708 2.878817-2.651542 4.166709-6.060667 4.166709-10.07586 0-3.787917-1.36365-7.197042-4.166709-10.075859-2.878817-2.651542-6.060667-4.166709-10.075859-4.166708H353.715688v-69.697673h-28.560894zM217.880985 527.278044c0.757583 1.136375 2.121234 2.500025 3.409125 3.409125-0.757583-0.530308-1.36365-1.136375-1.742442-1.515166-0.530308-0.757583-1.136375-1.287892-1.666683-1.893959m9.091001 5.681876c1.136375 0.151517 2.500025 0.378792 3.6364 0.151516h-0.9091c-0.984858 0.075758-1.969717 0.075758-2.7273-0.151516" p-id="11320"></path><path d="M833.872045 400.004034v-61.743047H726.370961v47.500479h24.091152c3.787917 0 7.424317 1.515167 10.075859 4.166708 2.878817 2.651542 4.166709 6.060667 4.166709 10.07586h69.167364z" fill="#FF0815" p-id="11321"></path><path d="M682.128091 435.76197c-2.878817 2.651542-6.060667 4.015192-10.07586 4.015192H588.490783c-3.787917 0-7.197042-1.287892-10.07586-4.015192-2.121234-2.27275-3.409125-4.5455-3.787916-7.197042H458.944022c-28.106344 28.485136-61.13698 54.167213-98.788875 76.137131h606.900059c-41.742845-21.818402-78.409882-47.121687-109.773834-76.137131H685.916008c-0.378792 2.651542-1.742442 4.924292-3.787917 7.197042" fill="#F9BC26" p-id="11322"></path><path d="M754.70458 602.884867c4.015192 0 7.197042 1.515167 10.075859 4.166709 2.878817 2.878817 4.166709 6.287942 4.166709 10.075859h66.818855c0-3.787917 1.515167-7.197042 4.166709-10.075859 2.651542-2.651542 6.287942-4.166709 10.075859-4.166709h56.818755v-55.455104H393.79185v55.455104h360.91273zM574.248215 338.260987H466.671372v47.500479h107.576843v-47.500479z" fill="#FF0815" p-id="11323"></path><path d="M79.773532 908.645526l28.485135-0.227275-0.530308-69.546156c0-4.015192-1.36365-7.424317-4.242467-10.075859-2.651542-2.651542-6.136426-4.09095-10.075859-4.09095-3.787917 0-7.197042 1.590925-10.000101 4.242467-2.651542 2.651542-4.166709 6.136426-4.09095 10.075859l0.45455 69.621914z m1134.32962 5.681876l-0.681825-99.849492c0-5.757634-1.590925-10.606168-4.242467-14.469843-2.651542-3.787917-6.287942-5.984909-10.075859-5.90915-4.015192 0-7.424317 2.196992-10.000101 6.060667-2.803059 3.863675-4.09095 8.787967-4.090951 14.469843l0.681825 99.849491 28.409378-0.151516zM764.931956 1023.949719h-349.245946c-5.530359 0.45455-10.909201-2.196992-13.863776-6.969767-2.954575-4.772775-2.954575-10.757684 0-15.53046 2.954575-4.772775 8.257659-7.424317 13.863776-6.969767h349.245946c5.530359-0.45455 10.909201 2.27275 13.863776 6.969767 2.954575 4.772775 2.954575 10.757684 0 15.53046-2.954575 4.697017-8.333417 7.424317-13.863776 6.969767M358.18543 1023.949719h-31.212436c-7.651592-0.606067-13.560743-7.045526-13.560743-14.772876s5.90915-14.091051 13.560743-14.772876h31.212436c5.530359-0.45455 10.909201 2.27275 13.863776 6.969767 2.954575 4.772775 2.954575 10.757684 0 15.53046-2.954575 4.772775-8.257659 7.500076-13.863776 7.045525M275.836115 1023.949719H181.062432c-5.530359 0.45455-10.909201-2.196992-13.863776-6.969767-2.954575-4.772775-2.954575-10.757684 0-15.53046 2.954575-4.772775 8.257659-7.424317 13.863776-6.969767h94.773683c5.530359-0.45455 10.909201 2.27275 13.863776 6.969767 2.954575 4.772775 2.954575 10.757684 0 15.53046-2.954575 4.697017-8.333417 7.424317-13.863776 6.969767" p-id="11324"></path></svg>