<svg t="1760593085883" class="icon" viewBox="0 0 1024 1024" version="1.1" xmlns="http://www.w3.org/2000/svg" p-id="57751" width="64" height="64"><path d="M511.600312 511.600312m-511.600312 0a511.600312 511.600312 0 1 0 1023.200625 0 511.600312 511.600312 0 1 0-1023.200625 0Z" fill="#107CBB" p-id="57752"></path><path d="M765.801717 205.4395L747.416081 223.825137l-176.661983 2.398126L446.850898 271.787666l126.301327 126.301327 7.194379 85.533177-59.153786-66.348165-36.771272 83.934426L239.812646 820.159251l-24.78064 19.984387 169.467604 167.868852c40.76815 10.391881 83.135051 15.98751 127.100702 15.98751 282.179547 0 511.600312-229.420765 511.600313-511.600312 0-18.385636-0.799375-35.971897-3.197502-54.357533L765.801717 205.4395z" fill="#00628D" p-id="57753"></path><path d="M207.837627 837.745511h314.154567V418.07338L207.837627 837.745511z m117.508197-58.35441l137.492583-183.856363v183.856363H325.345824z" fill="#F3F7FC" p-id="57754"></path><path d="M256.599532 806.569867h1.598751v25.580016h-1.598751zM269.389539 817.761124h1.598751v14.388759h-1.598751zM283.778298 806.569867h1.598751v25.580016h-1.598751zM297.367681 817.761124h1.598751v14.388759h-1.598751zM311.75644 806.569867h1.598751v25.580016H311.75644zM325.345824 817.761124h1.598751v14.388759h-1.598751zM338.935207 806.569867h1.598751v25.580016h-1.598751zM352.52459 817.761124h1.598751v14.388759h-1.598751zM366.913349 806.569867h1.598751v25.580016h-1.598751zM380.502732 817.761124h1.598751v14.388759h-1.598751zM394.092116 806.569867h1.598751v25.580016h-1.598751zM407.681499 817.761124h1.598751v14.388759H407.681499zM422.070258 806.569867h1.598751v25.580016h-1.598751zM435.659641 817.761124h1.598751v14.388759h-1.598751zM450.0484 806.569867h1.598751v25.580016h-1.598751zM462.838407 817.761124h1.598751v14.388759h-1.598751zM477.227166 806.569867h1.598751v25.580016h-1.598751zM490.81655 817.761124h1.598751v14.388759h-1.598751zM505.205308 806.569867h1.598751v25.580016h-1.598751z" fill="#CD6510" p-id="57755"></path><path d="M749.814208 196.64637h-42.366901c-12.790008-19.984387-53.558158-34.373146-101.520687-34.373146-47.962529 0-88.730679 14.388759-101.520687 34.373146h-42.366901c-11.990632 0-21.583138 8.79313-21.583138 19.185012v39.968774c0 10.391881 9.592506 19.185012 21.583138 19.185012h288.574551c11.990632 0 21.583138-8.79313 21.583138-19.185012v-39.968774c-0.799375-10.391881-10.391881-19.185012-22.382513-19.185012z" fill="#E1770F" p-id="57756"></path><path d="M558.763466 274.185792h93.526932v586.741608H558.763466z" fill="#F39E34" p-id="57757"></path><path d="M601.130367 292.571429h43.965652v3.996877h-43.965652zM619.516003 308.558938h25.580016v3.996878h-25.580016zM601.130367 325.345824h43.965652v3.996877h-43.965652zM619.516003 341.333333h25.580016v3.996878h-25.580016zM601.130367 357.320843h43.965652v3.996878h-43.965652zM619.516003 373.308353h25.580016v3.996877h-25.580016zM601.130367 390.095238h43.965652v3.996878h-43.965652zM619.516003 406.082748h25.580016v3.996877h-25.580016zM601.130367 422.869633h43.965652v3.996878h-43.965652zM619.516003 438.857143h25.580016v3.996877h-25.580016zM601.130367 454.844653h43.965652v3.996877h-43.965652zM619.516003 470.832162h25.580016v3.996878h-25.580016zM601.130367 487.619048h43.965652v3.996877h-43.965652zM619.516003 503.606557h25.580016v3.996878h-25.580016zM601.130367 520.393443h43.965652v3.996877h-43.965652zM619.516003 536.380952h25.580016v3.996878h-25.580016zM601.130367 552.368462h43.965652v3.996878h-43.965652zM619.516003 569.155347h25.580016v3.996878h-25.580016zM601.130367 585.142857h43.965652v3.996878h-43.965652zM619.516003 601.130367h25.580016v3.996877h-25.580016zM601.130367 617.917252h43.965652v3.996878h-43.965652zM619.516003 633.904762h25.580016v3.996877h-25.580016zM601.130367 650.691647h43.965652v3.996878h-43.965652zM619.516003 666.679157h25.580016v3.996877h-25.580016zM601.130367 682.666667h43.965652v3.996877h-43.965652zM619.516003 698.654176h25.580016v3.996878h-25.580016zM601.130367 716.240437h43.965652v3.996878h-43.965652zM619.516003 732.227947h25.580016v3.996877h-25.580016zM601.130367 749.014832h43.965652v3.996878h-43.965652zM619.516003 765.002342h25.580016v3.996877h-25.580016zM601.130367 781.789227h43.965652v3.996878h-43.965652zM619.516003 798.576112h25.580016v3.996878h-25.580016zM601.130367 815.362998h43.965652v3.996877h-43.965652zM619.516003 831.350507h25.580016v3.996878h-25.580016z" fill="#790A08" p-id="57758"></path><path d="M693.857923 652.290398l-3.197501-1.598751 10.391881-25.580015-8.79313-3.197502-10.391882 25.580015-2.398126-0.799375-6.395004 15.987509 2.398126 1.598751-9.592506 25.580016 7.993755 3.197502 10.391882-25.580016 2.398126 0.799376z" fill="#1C1413" p-id="57759"></path><path d="M595.071101 624.83185l1.478844-3.717096 173.848181 69.042061-1.478844 3.717096z" fill="#1C1413" p-id="57760"></path><path d="M780.989852 412.477752c-23.181889-8.79313-48.761905 2.398126-57.555035 24.78064-8.79313 23.181889 2.398126 48.761905 24.78064 57.555035 23.181889 8.79313 48.761905-2.398126 57.555035-24.78064 8.79313-23.181889-2.398126-48.761905-24.78064-57.555035z m-25.580016 63.950039c-12.790008-4.796253-18.385636-19.185012-13.589383-31.97502 4.796253-12.790008 19.185012-19.185012 31.975019-13.589383 12.790008 4.796253 19.185012 19.185012 13.589384 31.975019s-19.984387 18.385636-31.97502 13.589384z" fill="#9ED8F5" p-id="57761"></path><path d="M764.202966 745.017955l9.592506 72.743169 14.388759-72.743169-3.996877-262.19516h-23.981265z" fill="#A4A5A0" p-id="57762"></path><path d="M772.996097 741.820453l0.799375 75.940671 14.388759-72.743169-3.996877-262.19516-13.589384 2.398126z" fill="#1C1413" p-id="57763"></path><path d="M564.359094 665.879781L507.603435 711.444184l39.169399-62.351288 183.056986-187.853239 17.586261 16.786885z" fill="#A4A5A0" p-id="57764"></path><path d="M564.359094 665.879781L507.603435 711.444184l47.163154-51.160031 183.056986-189.451991 9.592506 7.19438z" fill="#1C1413" p-id="57765"></path><path d="M780.989852 412.477752c-23.181889-8.79313-48.761905 2.398126-57.555035 24.78064-8.79313 23.181889 2.398126 48.761905 24.78064 57.555035 23.181889 8.79313 48.761905-2.398126 57.555035-24.78064 8.79313-23.181889-2.398126-48.761905-24.78064-57.555035z m-25.580016 63.950039c-12.790008-4.796253-18.385636-19.185012-13.589383-31.97502 4.796253-12.790008 19.185012-19.185012 31.975019-13.589383 12.790008 4.796253 19.185012 19.185012 13.589384 31.975019s-19.984387 18.385636-31.97502 13.589384z" fill="#1C1413" p-id="57766"></path><path d="M780.190476 459.640906c-3.197502 8.79313-13.589383 12.790008-22.382513 9.592505-8.79313-3.197502-12.790008-13.589383-9.592506-22.382513 3.197502-8.79313 13.589383-12.790008 22.382513-9.592506 8.79313 3.996877 12.790008 13.589383 9.592506 22.382514z" fill="#A4A5A0" p-id="57767"></path><path d="M796.977361 410.079625l16.786886-43.166276c2.398126-6.395004-0.799375-13.589383-7.19438-16.786885l-3.996877-1.598751c-6.395004-2.398126-13.589383 0.799375-16.786885 7.194379l-15.98751 43.965652 27.178766 10.391881z" fill="#1C1413" p-id="57768"></path></svg>