<svg t="1760596941519" class="icon" viewBox="0 0 1024 1024" version="1.1" xmlns="http://www.w3.org/2000/svg" p-id="22638" width="64" height="64"><path d="M513.84 63.56L126.32 287.3v447.47l387.52 223.74 387.53-223.74V287.3z" fill="#5D11A0" p-id="22639"></path><path d="M364.86 708.96c0 66.41 14.33 129.37 39.62 186.41l109.37 63.14 387.52-223.74V287.3l-66.77-38.55c-3.05-0.06-6-0.46-9.07-0.46-254.42 0-460.67 206.25-460.67 460.67z" fill="#7A28BF" p-id="22640"></path><path d="M876.35 272.86c1.2 13.52 2.07 27.13 2.07 40.96 0 253.32-205.36 458.68-458.68 458.68-111.63 0-213.88-39.95-293.41-106.24v68.51l387.52 223.74 387.52-223.74V287.3l-25.02-14.44z" fill="#7214AC" p-id="22641"></path><path d="M513.62 958.51L125.87 734.66V286.92L513.62 63.03l387.75 223.89v447.74L513.62 958.51zM161.69 713.98l351.93 203.17 351.93-203.17V307.6L513.62 104.39 161.69 307.6v406.38z" fill="#9E4AD1" p-id="22642"></path><path d="M739.58 650.65c0 12.43-10.28 22.48-22.71 22.48H697.5c1.43 4.54 2.39 9.33 2.39 14.35 0 5.74-0.96 11.24-3.35 16.26-6.22 16.98-22.48 28.93-41.85 28.93-24.87 0-45.19-20.32-45.19-45.19 0-5.02 1.2-9.8 2.63-14.35H455.99c1.67 4.54 2.63 9.33 2.63 14.35 0 24.87-20.32 45.19-45.19 45.19-25.11 0-45.19-20.32-45.19-45.19 0-5.02 0.96-9.8 2.39-14.35h-60.26c-12.43 0-22.72-10.04-22.72-22.48v-339.3c0-12.43 10.28-22.48 22.72-22.48 12.43 0 22.48 10.04 22.48 22.72v316.59h384.02c12.67 0 22.71 10.04 22.71 22.47z" fill="#FF812A" p-id="22643"></path><path d="M728.58 311.35v101.62c0 12.43-10.04 22.72-22.48 22.72H378.51c-12.43 0-22.72-10.28-22.72-22.72V311.35c0-12.43 10.04-22.48 22.72-22.48H706.1c12.44 0 22.48 10.04 22.48 22.48z" fill="#FF812A" p-id="22644"></path><path d="M728.58 311.35v87.04L355.8 316.37v-5.02c0-12.43 10.04-22.48 22.72-22.48h327.59c12.43 0 22.47 10.04 22.47 22.48z" fill="#FEA13C" p-id="22645"></path><path d="M424.01 322.65h11.3c6.24 0 11.3 5.05 11.3 11.3s-5.05 11.3-11.3 11.3h-11.3c-12.68 0-22.99 10.31-22.99 22.99 0 6.24-5.05 11.3-11.3 11.3-6.24 0-11.3-5.05-11.3-11.3 0.01-25.13 20.47-45.59 45.59-45.59z" fill="#FFFFFF" p-id="22646"></path><path d="M378.43 605.4h327.59c12.49 0 22.59-10.11 22.59-22.59V481.14c0-12.49-10.11-22.59-22.59-22.59H378.43c-12.49 0-22.59 10.11-22.59 22.59v101.67c-0.01 12.48 10.15 22.59 22.59 22.59z" fill="#FF812A" p-id="22647"></path><path d="M424.01 494.32h11.3c6.24 0 11.3 5.05 11.3 11.3 0 6.24-5.05 11.3-11.3 11.3h-11.3c-12.68 0-22.99 10.31-22.99 22.99 0 6.24-5.05 11.3-11.3 11.3-6.24 0-11.3-5.05-11.3-11.3 0.01-25.13 20.47-45.59 45.59-45.59z" fill="#FFFFFF" p-id="22648"></path><path d="M696.54 703.74c-6.22 16.98-22.48 28.93-41.85 28.93-24.87 0-45.19-20.32-45.19-45.19 0-5.02 1.2-9.8 2.63-14.35H455.99c1.67 4.54 2.63 9.33 2.63 14.35 0 24.87-20.32 45.19-45.19 45.19-25.11 0-45.19-20.32-45.19-45.19 0-5.02 0.96-9.8 2.39-14.35h-60.26c-12.43 0-22.72-10.04-22.72-22.48V492.12c14.59 2.39 29.65 5.5 45.19 9.33v126.73h274.03c35.15 24.63 65.28 50.21 89.67 75.56z" fill="#FD6800" p-id="22649"></path></svg>