<svg t="1760593769125" class="icon" viewBox="0 0 1024 1024" version="1.1" xmlns="http://www.w3.org/2000/svg" p-id="100545" width="64" height="64"><path d="M793.968 469.839m-32.258 0a32.258 32.258 0 1 0 64.516 0 32.258 32.258 0 1 0-64.516 0Z" fill="#FFFFFF" p-id="100546"></path><path d="M834.746 468.304c-0.379-11.213-5.103-21.605-13.299-29.266-8.198-7.661-18.928-11.675-30.098-11.29-11.213 0.379-21.605 5.103-29.266 13.299s-11.67 18.885-11.29 30.097c0.379 11.213 5.103 21.605 13.299 29.266a41.838 41.838 0 0 0 16.18 9.423c-16.436 71.123-44.257 111.08-82.748 118.802-52.382 10.511-107.915-40.8-114.209-48.421a9.98 9.98 0 0 0-6.428-5.557c-5.319-1.49-10.84 1.604-12.334 6.92-1.874 6.668 3.35 11.803 8.402 16.769 10.965 10.778 30.665 26.176 53.069 37.069 20.065 9.756 39.153 14.647 57.042 14.647 9.09-0.001 17.872-1.264 26.312-3.795 43.308-12.987 73.948-58.501 91.12-135.259 20.053-3.741 34.958-21.708 34.248-42.704z m-25.902 16.441a21.857 21.857 0 0 1-15.329 6.966 21.842 21.842 0 0 1-15.766-5.914 21.856 21.856 0 0 1-6.967-15.329 21.857 21.857 0 0 1 5.914-15.766 21.857 21.857 0 0 1 15.329-6.966c0.255-0.009 0.509-0.013 0.763-0.013 5.594 0 10.896 2.089 15.003 5.927a21.856 21.856 0 0 1 6.967 15.329 21.86 21.86 0 0 1-5.914 15.766z" fill="#723703" p-id="100547"></path><path d="M232.677 468.226m-32.258 0a32.258 32.258 0 1 0 64.516 0 32.258 32.258 0 1 0-64.516 0Z" fill="#FFFFFF" p-id="100548"></path><path d="M457.946 584.884c-1.417-5.339-6.896-8.515-12.23-7.1a9.979 9.979 0 0 0-6.509 5.463c-6.405 7.53-62.68 58.027-114.902 46.755-38.374-8.281-65.61-48.637-81.011-119.988a41.834 41.834 0 0 0 16.315-9.191c8.307-7.54 13.181-17.863 13.723-29.069 0.542-11.205-3.312-21.951-10.851-30.258-7.54-8.308-17.864-13.181-29.069-13.723-23.118-1.126-42.862 16.788-43.981 39.92-1.016 20.983 13.626 39.166 33.621 43.199 16.054 76.998 46.027 122.951 89.142 136.568 8.846 2.794 18.084 4.188 27.689 4.188 17.472-0.001 36.148-4.617 55.811-13.824 22.56-10.565 42.482-25.675 53.604-36.293 5.126-4.893 10.426-9.953 8.648-16.647zM209.407 468.66c0.569-11.756 10.314-20.937 21.962-20.937 0.356 0 0.716 0.009 1.076 0.026 5.87 0.284 11.277 2.836 15.227 7.188s5.968 9.979 5.684 15.85-2.837 11.277-7.188 15.228c-4.35 3.949-9.975 5.972-15.85 5.684a21.861 21.861 0 0 1-15.227-7.188 21.858 21.858 0 0 1-5.684-15.851z" fill="#723703" p-id="100549"></path><path d="M691.414 492.111h-0.184c37.838-42.423 60.845-98.359 60.845-159.677 0-132.548-107.452-240-240-240s-240 107.452-240 240c0 61.32 23.014 117.254 60.854 159.677h-0.193l5.78 6.063c0.448 0.469 0.891 0.943 1.343 1.409l125.138 131.271 47.063 6.761v0.007l0.013-0.003 0.013 0.003v-0.007l47.063-6.761 125.719-131.881c0.621-0.645 1.239-1.292 1.853-1.944l4.693-4.918z" fill="#FFC912" p-id="100550"></path><path d="M399.86 499.584c-0.452-0.466-0.895-0.94-1.343-1.409l-5.78-6.063h0.193c-37.84-42.424-60.854-98.357-60.854-159.677 0-122.388 91.612-223.373 210-238.137a242.268 242.268 0 0 0-30-1.863c-132.548 0-240 107.451-240 240 0 61.32 23.014 117.253 60.854 159.677h-0.193l5.78 6.063c0.448 0.469 0.891 0.943 1.343 1.409l125.138 131.271 47.063 6.761v0.007l0.013-0.003 0.013 0.003v-0.007l29.987-4.308-17.077-2.453L399.86 499.584z" fill="#FFB408" p-id="100551"></path><path d="M495.069 889.391v50h-98s2-46 98-50z" fill="#FFC912" p-id="100552"></path><path d="M502.064 882.253V759.395c0-5.522-4.478-10-10-10s-10 4.478-10 10v120.81c-91.666 7.903-94.893 56.594-94.986 58.752a9.997 9.997 0 0 0 9.991 10.435h98c5.522 0 10-4.478 10-10v-50a10 10 0 0 0-3.005-7.139z m-90.458 47.138c7.176-10.378 25.555-25.304 72.267-29.273 0.355 0.507 0.754 0.981 1.195 1.413v27.86h-73.462z" fill="#723703" p-id="100553"></path><path d="M529.082 889.391v50h98s-2-46-98-50z" fill="#FFC912" p-id="100554"></path><path d="M542.086 880.205v-120.81c0-5.522-4.478-10-10-10s-10 4.478-10 10v122.858a9.996 9.996 0 0 0-3.004 7.138v50c0 5.522 4.478 10 10 10h98a9.999 9.999 0 0 0 9.991-10.435c-0.094-2.158-3.321-50.848-94.987-58.751z m-3.004 49.186v-27.86c0.441-0.432 0.839-0.905 1.194-1.412 37.18 3.179 56.082 13.345 65.517 21.727 2.955 2.625 5.142 5.198 6.758 7.545h-73.469z" fill="#723703" p-id="100555"></path><path d="M429.595 144.434m-60 0a60 60 0 1 0 120 0 60 60 0 1 0-120 0Z" fill="#FFFFFF" p-id="100556"></path><path d="M429.596 214.434c-38.598 0-70-31.402-70-70s31.402-70 70-70 70 31.402 70 70-31.403 70-70 70z m0-120c-27.57 0-50 22.43-50 50s22.43 50 50 50 50-22.43 50-50-22.43-50-50-50z" fill="#723703" p-id="100557"></path><path d="M429.595 144.434m-16 0a16 16 0 1 0 32 0 16 16 0 1 0-32 0Z" fill="#723703" p-id="100558"></path><path d="M594.555 144.434m-60 0a60 60 0 1 0 120 0 60 60 0 1 0-120 0Z" fill="#FFFFFF" p-id="100559"></path><path d="M594.556 214.434c-38.598 0-70-31.402-70-70s31.402-70 70-70 70 31.402 70 70-31.403 70-70 70z m0-120c-27.57 0-50 22.43-50 50s22.43 50 50 50 50-22.43 50-50-22.43-50-50-50z" fill="#723703" p-id="100560"></path><path d="M594.555 144.434m-16 0a16 16 0 1 0 32 0 16 16 0 1 0-32 0Z" fill="#723703" p-id="100561"></path><path d="M587.075 695.84h-150c-13.255 0-24-10.745-24-24v-20c0-13.255 10.745-24 24-24h150c13.255 0 24 10.745 24 24v20c0 13.254-10.745 24-24 24z" fill="#AEE2FF" p-id="100562"></path><path d="M587.075 761.846h-150c-13.255 0-24-10.745-24-24v-20c0-13.255 10.745-24 24-24h150c13.255 0 24 10.745 24 24v20c0 13.255-10.745 24-24 24z" fill="#AEE2FF" p-id="100563"></path><path d="M552.075 827.855h-80c-13.255 0-24-10.745-24-24v-20c0-13.255 10.745-24 24-24h80c13.255 0 24 10.745 24 24v20c0 13.255-10.745 24-24 24z" fill="#AEE2FF" p-id="100564"></path><path d="M508.075 803.855v-20c0-9.851 5.937-18.311 14.426-22.009h-25.426c-13.255 0-24-10.745-24-24v-20c0-10.875 7.235-20.055 17.153-23.003-9.918-2.948-17.153-12.128-17.153-23.003v-20c0-13.255 10.745-24 24-24h-60c-13.255 0-24 10.745-24 24v20c0 10.875 7.235 20.055 17.153 23.003-9.918 2.948-17.153 12.128-17.153 23.003v20c0 13.255 10.745 24 24 24h25.426c-8.489 3.698-14.426 12.159-14.426 22.009v20c0 13.255 10.745 24 24 24h60c-13.255 0-24-10.745-24-24z" fill="#64D0FF" p-id="100565"></path><path d="M697.203 411.831a8 8 0 0 1-7.419-10.987c17.222-42.822 12.508-74.674 12.458-74.991a8 8 0 0 1 6.665-9.142 7.997 7.997 0 0 1 9.142 6.665c0.23 1.471 5.43 36.568-13.421 83.438a8.002 8.002 0 0 1-7.425 5.017zM664.001 469.816a8.002 8.002 0 0 1-5.815-13.494c12.447-13.179 18.044-26.606 18.099-26.741 1.677-4.078 6.342-6.043 10.426-4.376 4.084 1.666 6.053 6.315 4.396 10.403-0.266 0.655-6.673 16.226-21.287 31.7a7.983 7.983 0 0 1-5.819 2.508z" fill="#FFFFFF" p-id="100566"></path><path d="M561.529 627.949a6.084 6.084 0 0 1-6.083-6.083V360.415a106.688 106.688 0 0 0-0.319-3.659c-2.556 5.774-6.279 15.835-11.698 33.024-5.061 16.049-7.983 23.042-14.683 22.499-6.106-0.479-7.663-7.613-8.5-11.445-0.968-4.432-1.889-10.583-3.055-18.369-0.613-4.097-1.291-8.629-2.072-13.539-1.008-6.344-2.033-10.461-2.882-13.101-1.518 4.143-3.335 11.235-4.568 21.735-2.658 22.639-6.744 31.553-14.572 31.792a9.609 9.609 0 0 1-0.294 0.005c-7.707 0.001-12.7-9.438-16.66-31.429-2.299-12.764-4.317-19.792-5.752-23.623a54.443 54.443 0 0 0-1.773 6.496v261.064a6.084 6.084 0 0 1-12.166 0V360.201c0-0.385 0.036-0.768 0.108-1.146 2.625-13.69 7.245-20.632 13.729-20.632h0.051c8.167 0.046 12.818 9.819 17.775 37.349 1.579 8.767 3.163 14.159 4.402 17.415 0.938-3.236 2.068-8.524 3.069-17.047 1.09-9.277 2.75-17.341 4.801-23.317 1.875-5.464 5.146-12.743 11.865-12.88 0.065-0.002 0.132-0.002 0.197-0.002 9.118 0 12.447 13.002 14.685 27.074 0.786 4.949 1.471 9.519 2.089 13.647 0.467 3.121 0.939 6.276 1.402 9.182a279.85 279.85 0 0 0 1.199-3.723c12.27-38.918 17.617-48.728 25.951-47.746 7.753 0.919 9.103 11.077 9.821 21.403 0.01 0.141 0.015 0.281 0.015 0.422v261.665a6.081 6.081 0 0 1-6.082 6.084z" fill="#FC7070" p-id="100567"></path></svg>