<svg t="1760589109471" class="icon" viewBox="0 0 1024 1024" version="1.1" xmlns="http://www.w3.org/2000/svg" p-id="19616" width="64" height="64"><path d="M886.4 467.9c-21.9-19.9-52.6-37.5-91.4-52.4-12.5-4.8-25.6-9.2-39.4-13.3 6.7-28 10.9-54.7 12.5-79.3 0.8-13.2-9.3-24.6-22.5-25.4-13.2-0.8-24.6 9.3-25.4 22.5-1.3 21.5-5.1 45.2-11.1 70.3-31.8-7-65.8-12.3-101.3-15.7-20.7-29-42.3-55.9-64.3-80 20.5-19.4 40.8-35.6 60.4-48 11.2-7.1 14.5-21.9 7.4-33.1-7.1-11.2-21.9-14.5-33.1-7.4-22 13.9-45.1 32.3-68.3 54.3-10.4-9.9-20.8-19.1-31.3-27.5-32.2-26.1-62.9-43.9-91-52.9-32.5-10.4-62-8.8-85.3 4.7-23.3 13.5-39.5 38.2-46.7 71.5-6.3 28.9-6.2 64.3 0.3 105.3 2.1 13.2 4.8 26.8 8.2 40.8-13.7 4.1-26.9 8.5-39.4 13.3-38.7 14.9-69.4 32.5-91.4 52.4-25.3 22.9-38.6 49.3-38.6 76.2s13.4 53.3 38.6 76.2c21.9 19.9 52.6 37.5 91.4 52.4 12.5 4.8 25.7 9.2 39.4 13.3-3.3 13.9-6.1 27.6-8.2 40.8-6.5 41-6.6 76.4-0.3 105.3 7.2 33.3 23.4 58.1 46.7 71.5 13.2 7.6 28.4 11.4 45 11.4 12.7 0 26.3-2.3 40.4-6.8 28.2-9 58.8-26.8 91-52.9 10.4-8.4 20.8-17.6 31.2-27.5 10.4 9.9 20.8 19 31.2 27.5 32.2 26.1 62.9 43.9 91 52.9 14.1 4.5 27.6 6.8 40.4 6.8 16.6 0 31.8-3.8 45-11.4 23.3-13.5 39.5-38.2 46.7-71.5 6.3-28.9 6.2-64.3-0.3-105.3-2.1-13.2-4.8-26.8-8.2-40.8 13.7-4.1 26.9-8.5 39.4-13.3 38.7-14.9 69.4-32.5 91.4-52.4 25.3-22.9 38.6-49.3 38.6-76.2s-13.4-53.3-38.7-76.3zM696 436.5c-5.4 16.6-11.6 33.7-18.5 50.9-5.4-10.2-11-20.3-16.9-30.4-5.9-10.2-11.9-20.2-18-30 18.5 2.7 36.3 5.8 53.4 9.5z m-18.3 164.2c7 17.3 13.2 34.4 18.5 51.1-17.2 3.7-35.1 6.9-53.5 9.5 6.1-9.8 12.1-19.8 18-30 5.8-10.2 11.5-20.4 17-30.6z m-58.6 6.5c-12.1 21-24.8 41.2-37.9 60.5-23.3 1.7-47.1 2.5-71.4 2.5-24.2 0-48.1-0.9-71.4-2.5-13.1-19.3-25.8-39.5-37.9-60.5-12.1-21-23.3-42.1-33.5-63.1 10.2-21 21.4-42.1 33.5-63.1 12.1-20.9 24.8-41.2 38-60.5 23.2-1.7 47.1-2.5 71.3-2.5 24.2 0 48.1 0.9 71.4 2.5 13.1 19.3 25.8 39.5 37.9 60.5 12.1 21 23.3 42 33.4 63-10.2 21.2-21.3 42.3-33.4 63.2zM509.8 759.3c-11.8-13-23.5-26.9-35-41.6 11.6 0.4 23.2 0.6 35 0.6 11.7 0 23.4-0.2 35-0.6-11.5 14.7-23.2 28.6-35 41.6zM359 631.2c5.9 10.2 11.9 20.2 18 30-18.5-2.6-36.4-5.8-53.5-9.5 5.4-16.7 11.6-33.8 18.5-51.1 5.5 10.3 11.1 20.5 17 30.6z m-17-143.5c-7-17.3-13.2-34.4-18.5-51.1 17.2-3.7 35.1-6.9 53.5-9.5-6.1 9.8-12.1 19.8-18 30s-11.5 20.4-17 30.6zM509.8 370c-11.7 0-23.3 0.2-34.9 0.6 11.5-14.7 23.2-28.5 34.9-41.5 11.8 13 23.4 26.9 34.9 41.5-11.4-0.4-23.1-0.6-34.9-0.6z m-206.5-16c-10.4-65.7-1.8-113.5 23-127.8 5.9-3.4 13-5.1 21-5.1 25.8 0 61.7 17.1 101.1 49.1 9.3 7.5 18.6 15.7 27.9 24.5-3.4 3.7-6.7 7.4-10.1 11.3-18.7 21.3-36.8 44.3-54.3 68.7-35.5 3.4-69.6 8.7-101.4 15.7-2.9-12.5-5.3-24.7-7.2-36.4z m-61.4 273.9c-62.1-23.8-99.2-55.2-99.2-83.8 0-28.6 37.1-59.9 99.2-83.8 11.1-4.3 22.9-8.2 35.1-11.9 9.8 31.1 22.3 63.2 37.1 95.7-14.8 32.5-27.3 64.6-37.1 95.7-12.3-3.6-24-7.6-35.1-11.9z m84.4 234.2c-24.8-14.3-33.4-62.1-23-127.8 1.9-11.8 4.3-23.9 7.2-36.3 31.8 7 65.9 12.3 101.4 15.7 20.7 29.1 42.3 55.9 64.3 80-9.3 8.8-18.6 16.9-27.9 24.4-51.6 41.9-97.3 58.3-122 44z m390.1-127.7c10.4 65.7 1.8 113.5-23 127.8-24.8 14.3-70.4-2.1-122.1-44-9.3-7.5-18.6-15.7-27.9-24.4 22-24.1 43.6-50.9 64.3-80 35.5-3.4 69.6-8.7 101.4-15.7 3 12.3 5.4 24.5 7.3 36.3z m61.4-106.5c-11.1 4.3-22.9 8.2-35.1 11.9-9.9-31.1-22.3-63.2-37.1-95.7 14.8-32.5 27.3-64.7 37.1-95.7 12.2 3.7 23.9 7.6 35.1 11.9 62.1 23.8 99.2 55.2 99.2 83.8 0 28.7-37.1 60-99.2 83.8z" fill="#13227a" p-id="19617"></path><path d="M640 203a72 72 0 1 0 144 0 72 72 0 1 0-144 0z" fill="#13227a" p-id="19618"></path></svg>