<svg t="1760596875908" class="icon" viewBox="0 0 1024 1024" version="1.1" xmlns="http://www.w3.org/2000/svg" p-id="20407" width="64" height="64"><path d="M618.94 727.88s106.4 94.46 40.6 150.71c-65.8 56.25-260.02 42.45-298.23 38.21S139.5 857.36 98.11 744.86s82.78-209.08 105.07-214.39c0 0 102.95-58.37 241.98-66.86 139.03-8.49 264.27 11.67 271.7 11.67s158.9 23.35 203.62 74.29c44.72 50.94 0 85.97 0 85.97S899.4 657.83 668.03 652c0 0-65.8 4.25-72.7 18.04-6.9 13.79-14.86 25.47 23.61 57.84z" fill="#F4E871" p-id="20408"></path><path d="M457.56 934.37c-54.28 0-96.7-4.56-97.69-4.67-22.84-2.54-79.78-18.7-134.86-46.7-50.46-25.65-115.56-69.66-139.1-133.66C70.47 707.38 74.75 662 98.29 618.12c28.04-52.29 78.95-92.91 99.85-99.71 6-3.28 30.87-16.39 69.45-30.4 40.14-14.58 103.4-32.89 176.77-37.37 118.14-7.21 226.44 6.06 262.03 10.42 4.9 0.6 9.53 1.17 10.71 1.24 6.79 0.17 48.14 6.71 91.02 18.5 60.58 16.66 101.67 36.91 122.11 60.2 17.01 19.38 24.7 39.3 22.84 59.22-2.61 28.03-23.7 44.84-24.59 45.54v-0.01c-10.7 8.44-57.59 24.31-260.16 19.23-2.75 0.2-15.35 1.16-28.95 3.2-24.12 3.63-31.31 7.56-32.92 8.65l-0.27 0.54c-3.23 6.38-4.19 8.74-3.27 12.19 1.24 4.61 6.47 13.27 24.4 28.35l0.26 0.23c2.73 2.43 66.97 60.1 66.44 116.63-0.2 21.02-8.95 39.08-26.02 53.67-44.19 37.79-137.89 45.93-210.43 45.93z m58.26-459.85c-22.54 0-46.01 0.6-69.88 2.06-134.48 8.21-235.36 64.63-236.36 65.2l-1.6 0.91-1.79 0.43c-8.88 2.24-57.97 36.09-85.57 88.36-19.7 37.32-23.18 73.96-10.32 108.9 20.64 56.09 80.18 95.92 126.49 119.47 56.6 28.77 110.19 42.29 125.96 44.04 22.16 2.46 79.24 6.36 136.69 3.52 73.9-3.66 126.34-17.04 151.66-38.69 11.26-9.63 16.8-20.8 16.93-34.16 0.35-37.11-41.32-82.37-57.58-96.85-19.24-16.21-29.31-28.98-32.63-41.39-3.57-13.33 1.48-23.34 5.18-30.64l0.73-1.44c5.11-10.22 19.61-16.56 48.49-21.21 17.72-2.85 34.29-3.94 34.99-3.99l0.58-0.04 0.58 0.01c203.98 5.15 240.73-11.83 244.03-13.63l0.07-0.06c0.06-0.05 13.32-10.94 14.77-27.76 1.07-12.45-4.49-25.7-16.52-39.4-16.59-18.9-53.81-36.81-107.62-51.78-42.94-11.95-81.49-17.76-86.5-18.09-1.88-0.03-4.72-0.37-13.36-1.43-27.8-3.42-100.65-12.34-187.42-12.34z m90.24 202.62z m0.89-1.29l-0.02 0.03c0.01-0.01 0.01-0.02 0.02-0.03z m305.66-50.6zM716.7 488.28h0.15-0.15z m0.17-25.98h-0.02 0.22-0.2z" p-id="20409"></path><path d="M809.19 407.36s-72.17 331.13-65.8 405.42c6.37 74.29 32.7-8.49 32.7-8.49s89.35-292.92 97.84-357.66-18.4-74.29-31.13-72.17c-12.74 2.12-21.94 3.19-33.61 32.9z" fill="#FFFFFF" p-id="20410"></path><path d="M753.85 856.74c-0.66 0-1.33-0.04-2.02-0.11-5.27-0.59-12.44-3.83-16.65-15.92-2.18-6.25-3.73-15.03-4.74-26.81-6.46-75.38 63.09-395.7 66.05-409.3l0.22-1.02 0.38-0.97c13.16-33.5 26.1-38.06 42.94-40.86l0.62-0.1c10.93-1.82 22.52 1.99 31.01 10.19 14.82 14.31 19.91 40.05 15.13 76.49-8.53 65.06-94.63 347.76-98.29 359.76l-0.05 0.15c-0.14 0.44-3.5 10.95-8.2 21.49-6 13.45-13.82 27.01-26.4 27.01z m67.81-445.59c-4.41 20.37-71.29 331.02-65.33 400.52 0.2 2.38 0.42 4.52 0.65 6.44 2.37-5.39 4.78-11.66 6.71-17.69 1.89-6.19 89.15-292.91 97.36-355.48 4.96-37.85-3.54-50.67-7.42-54.42-3.95-3.81-7.94-3.37-8.69-3.25l-0.64 0.11c-9.92 1.65-14.11 2.35-22.64 23.77z" p-id="20411"></path><path d="M710.95 336.54s148.43 374.48 156.86 462.9-37.82-3.57-37.82-3.57-159.42-326.28-182.25-400.6c-22.83-74.31 4.83-90.78 19.31-90.77s24.85-0.55 43.9 32.04z" fill="#FFFFFF" p-id="20412"></path><path d="M862.1 850.86c-11.95 0-22-12.86-30.39-25.89-7.28-11.29-13.07-22.78-13.31-23.27l-0.07-0.13c-6.53-13.36-160.13-328.06-182.99-402.49-12.89-41.96-12.38-72.78 1.53-91.59 7.4-10.01 18.69-15.98 30.19-15.98H667.87c19.22 0 33.4 2.73 54.3 38.48l0.5 0.85 0.36 0.92c6.09 15.36 149.21 377.22 157.72 466.46 2.15 22.59 3.04 47.09-13.85 51.96-1.64 0.46-3.24 0.68-4.8 0.68z m-20.47-60.76c4.4 8.73 9.61 17.54 14.16 24.22-0.11-3.63-0.39-8.12-0.91-13.64-7.96-83.49-147.43-437.64-155.64-458.42-7.08-11.98-13.23-19.58-18.29-22.61-3.46-2.07-6.52-2.12-13.18-2.15h-0.72c-1.24 0-5.57 0.39-9.3 5.45-3.96 5.35-11.65 22.75 2.41 68.52 22.17 72.14 178.42 392.38 181.47 398.63z" p-id="20413"></path><path d="M909.12 169.57l-59.76 55.49c-20.48 18.89-33.23 44.89-34.8 72.7-0.39 6.87-0.08 13.46 1.35 19.04 6.37 24.76 15.92 40.33 32.9 44.22 16.98 3.89 38.67 4.55 56.25-30.42 16.89-33.61 15.38-59.49 15.38-59.49l-11.32-101.54z" fill="#FDBC2D" p-id="20414"></path><path d="M862.64 375.87c-7.19 0-13.12-1.36-16.74-2.19-27.42-6.28-37.43-33.63-42.58-53.65-1.65-6.43-2.24-14.17-1.74-23.01 1.75-31.01 15.59-59.96 38.96-81.51l59.73-55.46c3.59-3.34 8.76-4.37 13.36-2.66s7.84 5.86 8.39 10.74l11.32 101.53c0.03 0.23 0.04 0.45 0.06 0.68 0.07 1.2 1.5 29.78-16.74 66.08-16.54 32.92-38.28 39.45-54.02 39.45z m36.43-179.24l-40.87 37.95c-18.42 16.99-29.3 39.68-30.67 63.91-0.35 6.17-0.03 11.24 0.96 15.07 7.14 27.76 16.16 33.18 23.22 34.79 13.56 3.11 27.95 3.85 41.74-23.6 14.12-28.09 14.08-50.22 14.03-52.68l-8.41-75.44z" p-id="20415"></path><path d="M584.57 81.5l-23.37 90.48c-8.08 30.88-4.32 63.85 11.35 91.66 3.87 6.87 8.24 13.04 13.07 17.54 21.45 19.96 40.29 29.08 59.08 22.34 18.79-6.74 40.13-19.51 35.47-64.12-4.47-42.87-21.93-66.91-21.93-66.91L584.57 81.5z" fill="#BBD04F" p-id="20416"></path><path d="M632.31 318.69c-22.39 0-41.88-15.3-55.54-28.01-5.42-5.05-10.65-12-15.53-20.67-17.23-30.57-21.71-66.56-12.6-101.32L572 78.25c1.23-4.75 5.02-8.4 9.82-9.44 4.79-1.04 9.77 0.71 12.85 4.52l73.67 90.97 0.42 0.54c0.8 1.1 19.56 27.39 24.33 73.19 5.58 53.49-22.44 69.96-44.01 77.7-5.73 2.05-11.33 2.96-16.77 2.96zM590.7 109.71l-16.92 65.52c-7.4 28.25-3.81 57.36 10.09 82.03 3.57 6.34 7.14 11.18 10.6 14.4 24.79 23.07 37.52 22.6 45.84 19.62 15.71-5.63 30.73-14.18 26.94-50.55s-17.78-58.05-19.4-60.46l-57.15-70.56z" p-id="20417"></path><path d="M439.14 539.14a59.79 35.2 0 1 0 119.58 0 59.79 35.2 0 1 0-119.58 0Z" fill="#F4CE76" p-id="20418"></path><path d="M498.93 587.33c-40.81 0-72.78-21.17-72.78-48.19s31.97-48.19 72.78-48.19 72.78 21.17 72.78 48.19-31.97 48.19-72.78 48.19z m0-70.4c-26.35 0-46.8 11.94-46.8 22.21s20.44 22.21 46.8 22.21c26.36 0 46.8-11.94 46.8-22.21s-20.45-22.21-46.8-22.21z" p-id="20419"></path><path d="M253.06 604.24a77.83 46.17 0 1 0 155.66 0 77.83 46.17 0 1 0-155.66 0Z" fill="#BBD04F" p-id="20420"></path><path d="M330.89 663.39c-50.93 0-90.82-25.99-90.82-59.16s39.89-59.16 90.82-59.16 90.82 25.99 90.82 59.16-39.9 59.16-90.82 59.16z m0-92.33c-38.21 0-64.84 17.48-64.84 33.18s26.63 33.18 64.84 33.18c38.21 0 64.84-17.48 64.84-33.18s-26.63-33.18-64.84-33.18z" p-id="20421"></path><path d="M279.95 764.49a90.74 48.64 0 1 0 181.48 0 90.74 48.64 0 1 0-181.48 0Z" fill="#33ABE0" p-id="20422"></path><path d="M370.69 826.13c-26.34 0-51.31-5.61-70.3-15.79-21.56-11.56-33.43-27.84-33.43-45.84s11.87-34.29 33.43-45.84c18.99-10.18 43.96-15.79 70.3-15.79s51.31 5.61 70.3 15.79c21.56 11.56 33.43 27.84 33.43 45.84s-11.87 34.29-33.43 45.84c-18.99 10.18-43.96 15.79-70.3 15.79z m0-97.29c-44.5 0-77.75 18.82-77.75 35.65s33.25 35.65 77.75 35.65 77.75-18.82 77.75-35.65-33.25-35.65-77.75-35.65z" p-id="20423"></path></svg>