<svg t="1760593387207" class="icon" viewBox="0 0 1024 1024" version="1.1" xmlns="http://www.w3.org/2000/svg" p-id="78538" width="64" height="64"><path d="M97.45 905.42V535.96c0-4.42 3.61-8.03 8.03-8.03h369.46c4.42 0 8.03 3.61 8.03 8.03v369.46c0 4.42-3.61 8.03-8.03 8.03H105.48c-4.41 0.01-8.03-3.61-8.03-8.03z" fill="#949BA6" p-id="78539"></path><path d="M434.79 576.12v289.15H97.45v16.06c0 17.67 14.46 32.13 32.13 32.13h321.27c17.67 0 32.13-14.46 32.13-32.13V576.12h-48.19zM547.23 905.42V535.96c0-4.42 3.61-8.03 8.03-8.03h369.46c4.42 0 8.03 3.61 8.03 8.03v369.46c0 4.42-3.61 8.03-8.03 8.03H555.27c-4.42 0.01-8.04-3.61-8.04-8.03z" fill="#717582" p-id="78540"></path><path d="M884.57 576.12v289.15H547.23v16.06c0 17.67 14.46 32.13 32.13 32.13h321.27c17.67 0 32.13-14.46 32.13-32.13V576.12h-48.19z" fill="#515560" p-id="78541"></path><path d="M611.49 592.18m-16.06 0a16.06 16.06 0 1 0 32.12 0 16.06 16.06 0 1 0-32.12 0Z" fill="#DFE1E4" p-id="78542"></path><path d="M290.22 519.9V150.43c0-4.42 3.61-8.03 8.03-8.03h369.46c4.42 0 8.03 3.61 8.03 8.03V519.9c0 4.42-3.61 8.03-8.03 8.03H298.25c-4.42 0-8.03-3.61-8.03-8.03z" fill="#FFC600" p-id="78543"></path><path d="M627.55 190.59v289.15H290.22v16.06c0 17.67 14.46 32.13 32.13 32.13h321.27c17.67 0 32.13-14.46 32.13-32.13V190.59h-48.2z" fill="#FFA100" p-id="78544"></path><path d="M354.47 206.66m-16.06 0a16.06 16.06 0 1 0 32.12 0 16.06 16.06 0 1 0-32.12 0Z" fill="#FFEEB2" p-id="78545"></path><path d="M161.71 592.18m-16.06 0a16.06 16.06 0 1 0 32.12 0 16.06 16.06 0 1 0-32.12 0Z" fill="#DFE1E4" p-id="78546"></path><path d="M225.96 833.14h64.25c44.17 0 80.32-36.14 80.32-80.32 0-29.72-16.47-55.42-40.56-69.48 5.22-7.63 8.43-16.87 8.43-26.91 0-26.51-21.69-48.19-48.19-48.19h-64.25c-8.83 0-16.06 7.23-16.06 16.06v192.76c0 8.85 7.23 16.08 16.06 16.08z m80.32-176.7c0 8.83-7.23 16.06-16.06 16.06-8.83 0-16.06 7.23-16.06 16.06 0 8.84 7.23 16.06 16.06 16.06 26.5 0 48.19 21.69 48.19 48.19S316.72 801 290.22 801h-48.19V640.37h48.19c8.83 0 16.06 7.23 16.06 16.07z" fill="#090418" p-id="78547"></path><path d="M129.58 929.52h321.27c26.5 0 48.19-21.69 48.19-48.19V560.06c0-5.62-1.2-10.84-2.81-16.06h38.15c-1.61 5.22-2.81 10.44-2.81 16.06v321.27c0 26.51 21.69 48.19 48.19 48.19h321.27c26.51 0 48.19-21.69 48.19-48.19V560.06c0-26.51-21.69-48.19-48.19-48.19H689.4c1.61-5.22 2.81-10.44 2.81-16.06V174.53c0-26.5-21.69-48.19-48.19-48.19H322.34c-26.5 0-48.19 21.69-48.19 48.19V495.8c0 5.62 1.2 10.84 2.81 16.06H129.58c-26.5 0-48.19 21.69-48.19 48.19v321.27c0 26.51 21.68 48.2 48.19 48.2zM916.7 560.06v321.27c0 8.83-7.23 16.06-16.06 16.06H579.36c-8.83 0-16.06-7.23-16.06-16.06V560.06c0-8.84 7.23-16.06 16.06-16.06h321.27c8.84-0.01 16.07 7.22 16.07 16.06zM306.28 495.8V174.53c0-8.83 7.23-16.06 16.06-16.06h321.27c8.83 0 16.06 7.23 16.06 16.06V495.8c0 8.83-7.23 16.06-16.06 16.06H322.34c-8.83 0.01-16.06-7.22-16.06-16.06z m-192.76 64.26c0-8.84 7.23-16.06 16.06-16.06h321.27c8.83 0 16.06 7.23 16.06 16.06v321.27c0 8.83-7.23 16.06-16.06 16.06H129.58c-8.84 0-16.06-7.23-16.06-16.06V560.06z" fill="#090418" p-id="78548"></path><path d="M756.06 833.14c27.71 0 54.21-10.04 75.1-28.91 6.43-6.02 7.23-16.06 1.2-22.49s-16.06-7.23-22.49-1.2c-14.86 13.25-33.73 20.48-53.41 20.48-44.17 0-80.32-36.14-80.32-80.32 0-44.17 36.14-80.32 80.32-80.32 19.68 0 38.55 7.23 53.41 20.48 6.43 6.02 16.87 5.22 22.49-1.2 6.02-6.43 5.22-16.87-1.2-22.49-20.88-18.47-47.39-28.91-75.1-28.91-61.84 0-112.45 50.6-112.45 112.45s50.61 112.43 112.45 112.43zM514.3 383.36l17.67 53.41c2.41 6.83 8.43 10.84 15.26 10.84 1.61 0 3.21-0.4 5.22-0.8 8.43-2.81 12.85-12.05 10.04-20.48l-64.25-192.76c-2.01-6.43-8.43-10.84-15.26-10.84s-12.85 4.42-15.26 10.84l-64.25 192.76c-2.81 8.43 1.61 17.67 10.04 20.48 8.43 2.81 17.67-1.61 20.48-10.04l17.67-53.41h62.64z m-31.32-93.98l20.48 61.84H462.5l20.48-61.84zM129.58 479.74h96.38c8.84 0 16.06-7.23 16.06-16.06v-224.9c0-8.83-7.23-16.06-16.06-16.06-8.83 0-16.06 7.23-16.06 16.06v208.83h-80.32c-8.84 0-16.06 7.23-16.06 16.06 0 8.84 7.22 16.07 16.06 16.07z" fill="#090418" p-id="78549"></path><path d="M225.96 174.53m-16.06 0a16.06 16.06 0 1 0 32.12 0 16.06 16.06 0 1 0-32.12 0Z" fill="#090418" p-id="78550"></path><path d="M244.678333 130.138063a16.06 16.06 0 1 0 5.145898-31.705113 16.06 16.06 0 1 0-5.145898 31.705113Z" fill="#090418" p-id="78551"></path><path d="M740 463.68m-16.06 0a16.06 16.06 0 1 0 32.12 0 16.06 16.06 0 1 0-32.12 0Z" fill="#090418" p-id="78552"></path><path d="M804.25 463.68m-16.06 0a16.06 16.06 0 1 0 32.12 0 16.06 16.06 0 1 0-32.12 0Z" fill="#090418" p-id="78553"></path><path d="M868.51 463.68m-16.06 0a16.06 16.06 0 1 0 32.12 0 16.06 16.06 0 1 0-32.12 0Z" fill="#090418" p-id="78554"></path></svg>