<svg t="1760593564744" class="icon" viewBox="0 0 1024 1024" version="1.1" xmlns="http://www.w3.org/2000/svg" p-id="89014" width="64" height="64"><path d="M473.613474 998.561684a116.412632 116.412632 0 0 0 73.701052 0c162.896842-54.433684 221.696-98.896842 221.696-98.896842 169.337263-112.505263 170.846316-260.203789 170.846316-260.203789V173.379368c0-22.878316-19.132632-42.576842-42.576842-43.358315C777.202526 125.898105 600.104421 39.882105 535.296 6.251789c-15.548632-8.084211-34.223158-8.084211-49.798737 0-64.808421 33.495579-241.717895 119.646316-361.984 123.769264-23.713684 1.212632-42.361263 20.210526-42.496 43.358315V639.461053s1.482105 147.698526 170.738526 260.176842c0.080842 0 58.960842 44.463158 221.776843 98.896842h0.080842z" fill="#43BB01" p-id="89015"></path><path d="M479.622737 914.054737a97.845895 97.845895 0 0 0 61.682526 0c135.949474-45.325474 185.128421-82.539789 185.128421-82.53979 141.365895-93.857684 142.605474-217.249684 142.605474-217.249684V230.076632c-0.215579-19.267368-15.737263-35.031579-35.489684-36.109474-100.271158-3.449263-248.185263-75.317895-302.214737-103.370105a45.163789 45.163789 0 0 0-41.606737 0C435.752421 118.649263 287.919158 190.517895 187.567158 193.967158c-19.752421 0.997053-35.301053 16.815158-35.462737 36.109474V614.130526s1.293474 123.445895 142.551579 217.384421c-0.188632 0 49.017263 37.160421 184.966737 82.458948v0.080842z" fill="#5CD340" p-id="89016"></path><path d="M510.450526 85.611789a44.517053 44.517053 0 0 0-20.803368 5.066106C435.617684 118.703158 287.730526 190.571789 187.432421 194.021053c-19.752421 0.970105-35.301053 16.815158-35.462737 36.109473v384.053895s1.347368 123.418947 142.551579 217.357474c0 0 49.205895 37.160421 185.236211 82.485894 9.889684 3.341474 20.345263 4.985263 30.854737 4.985264V85.611789h-0.161685z" fill="#8FDE72" p-id="89017"></path><path d="M869.039158 557.244632v56.966736s-1.239579 123.418947-142.578526 217.357474c0 0-23.605895 17.812211-83.240421 43.816421l50.634105 65.805474c58.799158-28.456421 111.050105-61.305263 149.719579-102.912 63.676632-69.793684 89.653895-131.664842 95.717052-189.574737l-70.251789-91.459368z" fill="#299909" p-id="89018"></path><path d="M869.039158 614.211368v-56.966736l-159.178105-207.386948-199.410527 180.924632v171.493052l132.850527 173.029053c59.553684-26.058105 83.159579-43.870316 83.159579-43.870316 141.338947-93.722947 142.551579-217.168842 142.551579-217.168842v-0.053895z" fill="#16BF19" p-id="89019"></path><path d="M484.284632 554.522947L337.152 476.537263l173.271579 225.684211v-171.493053z" fill="#55C73A" p-id="89020"></path><path d="M478.895158 600.791579a32.229053 32.229053 0 0 1-22.528-8.973474l-112.101053-109.487158a30.504421 30.504421 0 0 1-9.350737-21.935158c0-8.245895 3.368421-16.141474 9.350737-21.935157 5.955368-5.820632 14.039579-9.108211 22.501053-9.108211 8.434526 0 16.518737 3.287579 22.474105 9.108211l89.70779 87.471157 181.463579-176.747789c5.955368-5.847579 14.066526-9.135158 22.501052-9.135158 8.461474 0 16.572632 3.287579 22.528 9.135158 6.009263 5.793684 9.377684 13.689263 9.377684 21.935158 0 8.245895-3.368421 16.141474-9.377684 21.935158l-203.991579 198.602105c-5.928421 5.928421-14.012632 9.216-22.501052 9.189053l-0.080842-0.053895z" fill="#FFFFFF" p-id="89021"></path></svg>