<svg t="1760602341108" class="icon" viewBox="0 0 1052 1024" version="1.1" xmlns="http://www.w3.org/2000/svg" p-id="37340" width="64" height="64"><path d="M514.809368 512.001258z m-512 0c0 282.767501 229.229983 511.998742 512 511.998742S1026.80811 794.768759 1026.80811 512.001258c0-282.771275-229.229983-512.001258-512-512.001258S2.809368 229.229983 2.809368 512.001258" fill="#3c8cff" p-id="37341"></path><path d="M514.809368 512.001258z m-357.665186 0c0 197.5306 160.13207 357.663928 357.663928 357.663928 197.533116 0 357.663928-160.133328 357.663928-357.663928 0-197.533116-160.130812-357.663928-357.663928-357.663928-197.531858-0.001258-357.663928 160.130812-357.663928 357.663928" fill="#3ECCA3" p-id="37342"></path><path d="M639.608236 801.085492h-0.758461c0.256594 0 0.503125-0.017609 0.758461-0.020125v0.020125z" fill="#E6EFF4" p-id="37343"></path><path d="M639.608236 821.552612h-0.759719v-20.472151l-19.155221-0.013836h19.155221v-20.453284l-0.320742 0.007547c0.327031-0.015094 0.589914-0.025156 0.855313-0.026415l20.141346-0.23521v41.171966l-19.916198 0.021383z" fill="#1B4551" p-id="37344"></path><path d="M152.027402 335.418262h431.271098v408.568845c0 31.535867 24.87072 57.099642 55.552533 57.099643H152.027402v-0.006289c-30.564836-0.140875-55.304744-25.644275-55.304744-57.093354V335.418262h55.304744z" fill="#E6EFF4" p-id="37345"></path><path d="M638.851033 821.552612H132.113719v-2.825046c-31.839-9.102787-55.304744-39.211037-55.304744-74.740459V314.948626H603.21344v429.038481c0 20.195433 15.988051 36.626233 35.637593 36.626234v40.939271zM153.407222 780.613341h418.933218c-5.712983-10.914036-8.955623-23.389018-8.955623-36.626234V355.88664H116.638856v388.100467c0 20.103612 15.91384 36.533155 35.477851 36.618687l1.290515 0.007547z" fill="#51E3C2" p-id="37346"></path><path d="M156.959283 801.055304h0.938328c-0.315711 0-0.625133-0.023898-0.938328-0.026414v0.026414z" fill="#F6F9FB" p-id="37347"></path><path d="M157.897611 821.52494H137.045601v-41.190834l20.160214 0.231438c0.288039 0.001258 0.57482 0.012578 0.859085 0.02264H157.897611v20.441964h18.979129l-18.979129 0.025156v20.469636z" fill="#51E3C2" p-id="37348"></path><path d="M826.769432 418.901773V226.51814H226.437056v504.092135c0 38.905389-30.685586 70.44503-68.539445 70.445029h600.636768v-0.007546c37.715499-0.166031 68.235054-31.636492 68.235053-70.437483V418.901773z" fill="#F6F9FB" p-id="37349"></path><path d="M758.534379 821.52494H157.897611v-40.938013c26.809009 0 48.624504-22.416729 48.624504-49.976652V206.049762h640.161v212.854526c0 11.305216-8.914115 20.46712-19.913683 20.46712-10.995794 0-19.913683-9.161904-19.913682-20.46712V246.987776H246.351996v483.622499c0 18.444558-5.374632 35.628788-14.595653 49.976652h525.0737l1.617547-0.005032c26.694548-0.122008 48.40816-22.539994 48.40816-49.97162V527.887426c0-11.297669 8.917888-20.465862 19.913682-20.465862 10.999568 0 19.913683 9.166935 19.913683 20.465862v202.722849c0 42.9002-29.193821 79.061043-68.233796 88.502181v2.403679l-19.91494 0.008805z" fill="#51E3C2" p-id="37350"></path><path d="M954.525417 709.414881c0 28.264298-22.292205 51.172831-49.785465 51.172832h-123.76243c-27.494517 0-49.786722-22.908533-49.786722-51.172832V643.881608c0-28.259267 22.292205-51.172831 49.786722-51.172831h123.76243c27.493259 0 49.785464 22.913565 49.785465 51.172831v65.533273z" fill="#E1C363" p-id="37351"></path><path d="M904.739952 781.054833h-123.76243c-38.431194 0-69.701663-32.137102-69.701663-71.639952V643.881608c0-39.501592 31.270469-71.638693 69.701663-71.638693h123.76243c38.432452 0 69.700405 32.137102 69.700405 71.638693v65.533273c0 39.50285-31.269211 71.639951-69.700405 71.639952z m-123.76243-167.873905c-16.469793 0-29.871782 13.775559-29.871782 30.70068v65.533273c0 16.928894 13.401989 30.70068 29.871782 30.70068h123.76243c16.469793 0 29.870524-13.771786 29.870524-30.70068V643.881608c0-16.925121-13.400731-30.70068-29.870524-30.70068h-123.76243z" fill="#51E3C2" p-id="37352"></path><path d="M920.792152 617.443654l-124.431587 119.051924a37.876499 37.876499 0 0 0 19.494831 5.379663h80.582996c21.509846 0 38.949412-17.922566 38.949412-40.028615v-53.174011c0.001258-12.635981-5.699147-23.892143-14.595652-31.228961z" fill="#FAB738" p-id="37353"></path><path d="M332.319686 554.758068c2.445187-0.271687 3.669038-1.820054 3.406155-4.336937-0.360992-3.360874-1.499312-6.343147-1.847726-9.706536-1.967218-18.747691 16.205652-60.684407 24.005346-78.251013 34.892968-79.45977 34.975984-78.622067 34.124445-86.741244-0.44275-4.201093-7.466373-18.701152-14.549114-17.923824-7.624858 0.849023-36.414921 23.012932-44.839747 29.319602-6.125545 4.6451-11.3027 7.774537-10.990763 15.94277-0.095594 1.711882-0.145906 6.529303 2.851461 6.195983 1.091781-0.122008 6.028694-2.93196 7.060099-3.621241l24.797768-12.947919 0.599976 0.50564c-6.784639 11.506466-25.685783 43.90645-41.999607 79.964153-6.029952 13.417083-14.468614 45.766754-13.005778 59.761173 1.534531 14.546598 13.449786 15.217012 24.40533 19.931292 1.440195 0.71318 4.616171 2.057781 5.982155 1.908101z m235.464958-165.437522c-1.173539-11.186982-4.001101-25.032978-16.669785-27.593884 1.699304-2.169726 8.232381-2.896741 7.906608-5.974608-0.645258-6.159506-15.400652-18.108722-26.559963-16.866004-17.699933 1.969734-57.053103 28.420266-78.160449 58.221611-17.738925 25.1814-33.6905 62.065485-30.372391 93.678079 2.495499 23.799065 19.87469 47.622027 44.720254 42.880075 65.120711-12.03852 104.782045-90.619079 99.135726-144.345269z m-48.111316 71.589638l-24.030502 28.149837c-5.642545 6.567037-21.946307 19.142644-30.118313 20.044495-7.6236 0.850281-10.417201-15.264809-10.70524-20.61051-1.402461-29.000118 15.931449-71.119217 61.968634-104.827326 0.183641 1.676664 1.065367 4.978421 3.247671 4.733147 2.71939-0.295586 8.715381-11.446091 15.798121-12.234739 7.624858-0.847765 11.457411 9.487677 12.081286 15.362918 1.940804 18.465941-17.704964 54.340002-28.241657 69.382178z m201.94049-88.661923c-1.173539-11.19956-4.004874-25.035494-16.673559-27.593884 1.703078-2.169726 8.234896-2.897999 7.912897-5.977124-0.650289-6.159506-15.403168-18.107464-26.562478-16.864746-17.702449 1.958414-57.061908 28.420266-78.170512 58.221611-17.738925 25.1814-33.693015 62.066743-30.359813 93.675563 2.491726 23.79026 19.872175 47.625801 44.720254 42.885107 65.103101-12.049841 104.779529-90.622853 99.133211-144.346527z m-48.110059 71.588381l-24.030502 28.148579c-5.647577 6.578358-21.947565 19.145159-30.122086 20.045753-7.6236 0.849023-10.412169-15.263551-10.702724-20.607995-1.404976-29.002634 15.927676-71.134311 61.968633-104.841162 0.179867 1.676664 1.076687 4.977163 3.248929 4.74321 2.718132-0.295586 8.711607-11.443575 15.796863-12.232224 7.621084-0.851539 11.458669 9.483904 12.081286 15.36166 1.939546 18.464683-17.703707 54.340002-28.240399 69.382179z m-38.297866 101.423686c10.753036-1.763453 30.551-4.42121 30.551001-4.42121-226.318148 14.154161-348.51586 75.171888-348.515861 75.171888s-8.173264 5.457647 0 9.287685c4.101726 1.923195 27.963681-9.287685 27.963681-9.287685 163.643882-59.69954 352.387406-75.185724 352.387406-75.185724-22.363901 0.898078-62.386227 4.435046-62.386227 4.435046z" fill="#FD3C50" p-id="37354"></path><path d="M697.608472 557.678708c-226.321921 14.155418-348.518376 75.18195-348.518376 75.18195s-8.173264 5.460163 0 9.287685c4.09921 1.923195 27.964938-9.287685 27.964938-9.287685 163.643882-59.69954 352.386148-75.18195 352.386149-75.18195-22.375221 0.8855-62.386227 4.422468-62.386227 4.422467 10.753036-1.774773 30.553516-4.422468 30.553516-4.422467z" fill="#FD3C50" p-id="37355"></path><path d="M965.706109 496.377973h-122.102118c-10.997052 0-19.91494-9.16442-19.914941-20.469636s8.917888-20.468378 19.914941-20.468378h122.102118c11.003341 0 19.91494 9.163162 19.914941 20.468378s-8.911599 20.469636-19.914941 20.469636z" fill="#51E3C2" p-id="37356"></path><path d="M905.70721 559.126449c-10.99831 0-19.913683-9.16442-19.913683-20.468377v-125.49947c0-11.303958 8.915373-20.468378 19.913683-20.468378s19.91494 9.16442 19.914941 20.468378v125.49947c0 11.303958-8.916631 20.468378-19.914941 20.468377z" fill="#51E3C2" p-id="37357"></path></svg>