<svg t="1760596795729" class="icon" viewBox="0 0 1024 1024" version="1.1" xmlns="http://www.w3.org/2000/svg" p-id="14703" width="64" height="64"><path d="M224.725 685.437l-43.301 25-49-84.87c0-0.001 40.837-21.269 92.301 59.87z" fill="#FFC912" p-id="14704"></path><path d="M290.765 559.647c-0.578-0.119-14.306-2.898-30.728 0.782-15.491 3.472-36.478 13.407-48.483 41.021-5.133 11.805-7.56 22.677-8.34 32.311-42.681-43.698-75.374-27.601-77.023-26.741a9.997 9.997 0 0 0-4.041 13.869l49 84.871a9.997 9.997 0 0 0 13.66 3.66l43.302-25a10 10 0 0 0 3.444-14.016c-1.56-2.46-3.113-4.82-4.66-7.109-3.389-8.55-8.241-28.016 3-53.87 16.384-37.685 55.046-30.541 56.824-30.19 5.397 1.103 10.67-2.363 11.795-7.758 1.126-5.407-2.343-10.703-7.75-11.83zM183.471 687.099l-36.734-63.627c2.841 0.228 6.163 0.834 9.913 2.08 12.105 4.023 30.624 15.498 52.264 46.858l-25.443 14.689z" fill="#723703" p-id="14705"></path><path d="M403.649 785.283l-25 43.301-84.87-49s24.732-38.837 109.87 5.699z" fill="#FFC912" p-id="14706"></path><path d="M469.673 683.437c-0.564-5.493-5.475-9.482-10.969-8.928-0.901 0.093-22.315 2.432-43.199 16.996-16.931 11.807-36.333 33.759-39.482 73.095-72.014-27.996-96.039 7.901-97.129 9.613a10 10 0 0 0 3.435 14.031l84.87 49a9.992 9.992 0 0 0 7.588 0.999 10 10 0 0 0 6.072-4.659l25-43.302a10 10 0 0 0-4.026-13.861 296.87 296.87 0 0 0-6.214-3.148c1.516-70.967 62.389-78.565 65.156-78.872 5.479-0.577 9.46-5.48 8.898-10.964zM368.537 814.924l-63.621-36.731c10.896-5.156 32.721-8.794 71.642 8.249a10.032 10.032 0 0 0 5.379 5.273l-13.4 23.209z" fill="#723703" p-id="14707"></path><path d="M223.355 411.728a310 310 0 1 0 620 0 310 310 0 1 0-620 0z" fill="#AEE2FF" p-id="14708"></path><path d="M880.82 413.437c0 91.646-35.688 177.806-100.491 242.608-59.526 59.526-137.077 94.461-220.343 99.76a23.88 23.88 0 0 0-12.261-3.369h-20c-13.255 0-24 10.745-24 24 0 12.92 10.21 23.45 23 23.975v117.026h20v-117h1c13.255 0 24-10.745 24-24 0-0.497-0.02-0.989-0.05-1.478 37.033-3.417 73.029-12.429 107.383-26.96 43.239-18.289 82.069-44.468 115.412-77.812 33.344-33.343 59.522-72.173 77.812-115.412 18.937-44.771 28.538-92.324 28.538-141.338h-20z" fill="#FFC912" p-id="14709"></path><path d="M536.725 916.437c-58.542 0-106 16.118-106 36h212c0-19.883-47.458-36-106-36z" fill="#FFC912" p-id="14710"></path><path d="M223.355 411.728a310 310 0 1 0 620 0 310 310 0 1 0-620 0z" fill="#AEE2FF" p-id="14711"></path><path d="M469.086 151.031s29.582-0.24 33.827 7.406c4.245 7.647-5.25 9.093 1.044 16.191 6.294 7.098 31.724 20.048 31.724 20.048l28.631 4.407 28.229 11.102 8.691 11.946s5.544 8.397 34.322 21.548c28.778 13.151 36.626 5.558 47.969 6.911 11.343 1.353 25.832 6.255 21.882 16.097-3.951 9.843-23.249 40.268 19.431 23.342 42.68-16.926 27.293-29.274 50.326-21.171s28.229 11.102 28.229 11.102 23.435 1.407 15.936 14.396c-7.5 12.99-11.946 8.691-17.249 29.876-5.304 21.185 18.132 22.592-5.706 27.881-23.837 5.289-27.131-7.004-30.185 10.284-3.054 17.289-5.544-8.397 1.74 26.984s25.832 6.254 6.681 45.425c-19.151 39.17-38.503 81.688-65.286 80.081-26.783-1.608-33.773-19.499-39.278 5.034-5.505 24.533-20.852 45.116-43.885 37.014-23.034-8.102-20.328-30.788-32.126-13.352s-23.597 34.871-27.44 20.529c-3.843-14.343-6.775-66.262-24.96-76.762-18.186-10.499-30.479-7.205-45.478 18.774-14.999 25.979-33.253 72.595-40.537 37.215s37.645-56.204 8.921-81.448-38.219-23.798-42.41-43.537c-4.191-19.739 4.808-35.327-7.338-23.288-12.147 12.039-7.902 19.686-8.504 29.729-0.603 10.044 19.029 30.038-5.304 21.185-24.332-8.852-53.861-20.705-41.807-53.581 12.053-32.876 5.96-43.322-1.941-23.636-7.902 19.686-18.455 49.964-7.916 64.708 10.539 14.744 20.877 32.837 20.877 32.837s-11.598 14.088-34.631 5.985c-23.033-8.102-47.915-19.004-44.273-1.313s-20.597 29.675-20.852 45.116c-0.255 15.441-3.161 41.474-3.161 41.474s-26.783-1.608-37.067-31.793c-10.284-30.185-33.063-53.728-30.21-67.669 2.853-13.941 7.902-19.686 7.902-19.686s-3.158-126.524 6.391-140.063c9.549-13.539 94.79-146.181 132.621-160.71 37.832-14.529 70.213-16.617 70.213-16.617l38.783-19.176s15.789 5.652 5.892 13.794c-9.897 8.142-26.288 12.534-14.597 19.284 11.688 6.75 18.732 12.548 21.879 16.097z" fill="#38ADFF" p-id="14712"></path><path d="M599.417 588.258c21.882 16.097 41.366 27.347 41.366 27.347s6.186 31.283-17.342 9.039-49.91-30.547-46.16-37.042 0.254-15.441 22.136 0.656z" fill="#38ADFF" p-id="14713"></path><path d="M732.368 645.966s1.809-30.131-14.784-22.391c-16.592 7.74-27.293 29.273-44.38 22.872-17.088-6.402-18.788-0.456-23.636 1.941-4.848 2.397-1.5 2.598-9.147 6.843s-23.234-4.755-31.979-4.607c-8.745 0.147-12.441-5.451-18.239 1.593-5.799 7.044-12.548 18.735-18.347 25.779-5.799 7.044-6.897 2.946-8.049 10.941-1.152 7.995-3.603 15.24-3.603 15.24s15.936 14.396 49.121-1.084 60.718-15.171 60.718-15.171 22.632 14.798 43.175-2.784 19.15-39.172 19.15-39.172z" fill="#38ADFF" p-id="14714"></path><path d="M591.127 98.673s-2.98 1.6-5.747 6.923c-5.369 10.331-21.038 3.441-0.255 15.441s38.822 13.754 38.822 13.754 5.397-0.348 16.74 1.005c11.343 1.353 25.631 9.602 25.631 9.602s35.327 4.808 39.92 17.852c4.593 13.044-9 15.588 3.039 27.734 12.039 12.147 14.838 10.299 25.43 12.95 10.593 2.652 37.871 18.401 40.817 25.298 2.946 6.897 16.833 21.842 16.833 21.842s21.239-6.789 6.308-37.925-108.604-93.878-108.604-93.878-36.974-10.955-43.67-11.357c-6.696-0.402-55.214-9.362-55.214-9.362l-0.05 0.121z" fill="#38ADFF" p-id="14715"></path><path d="M318.747 555.644a311.499 311.499 0 0 1-27.83-75.907c-3.702 13.208-20.273 23.609-20.484 36.367-0.255 15.44-3.161 41.474-3.161 41.474s-3.537-0.219-8.525-1.933c26.32 50.339 66.766 94.055 119.602 124.559 58.142 33.568 122.636 46.154 184.724 40.121-42.676-4.161-85.171-17.284-124.724-40.121-52.837-30.505-93.283-74.221-119.602-124.56z m143.048-439.987c-9.897 8.142-26.288 12.534-14.597 19.284 1.045 0.604 2.04 1.196 3.011 1.783a311.525 311.525 0 0 1 74.749-27.331 311.536 311.536 0 0 1 38.666-6.246c-33.213-3.238-66.532-1.031-98.666 6.246 0.384 1.839-0.35 3.951-3.163 6.264z" fill="#64D0FF" p-id="14716"></path><path d="M270.433 516.104c0.21-12.758 16.781-23.159 20.484-36.367-16.504-73.314-6.573-152.789 33.964-223.001 30.661-53.106 74.664-93.702 125.329-120.011-0.971-0.587-1.966-1.18-3.011-1.783-11.691-6.75 4.701-11.142 14.597-19.284 2.812-2.313 3.547-4.425 3.163-6.264-81.353 18.423-155.083 69.408-200.078 147.342-55.099 95.435-53.675 207.983-6.134 298.909 4.988 1.714 8.525 1.933 8.525 1.933s2.906-26.034 3.161-41.474z" fill="#1296DB" p-id="14717"></path><path d="M540.675 141.136a60 60 0 1 0 120 0 60 60 0 1 0-120 0z" fill="#FFFFFF" p-id="14718"></path><path d="M600.561 211.167c-12.13 0-24.101-3.182-34.887-9.409-33.427-19.299-44.92-62.194-25.621-95.621 9.349-16.192 24.443-27.775 42.504-32.615 18.061-4.838 36.924-2.356 53.117 6.993 33.427 19.298 44.921 62.194 25.622 95.622-9.349 16.192-24.443 27.775-42.504 32.614a70.383 70.383 0 0 1-18.231 2.416z m0.195-120.052c-4.343 0-8.714 0.57-13.021 1.725-12.9 3.457-23.683 11.73-30.36 23.297-13.785 23.876-5.575 54.516 18.301 68.301 11.566 6.678 25.041 8.453 37.941 4.995 12.9-3.456 23.683-11.729 30.36-23.296 13.785-23.877 5.575-54.517-18.302-68.302-7.705-4.448-16.255-6.72-24.919-6.72z" fill="#723703" p-id="14719"></path><path d="M574.666 158.472a16 16 0 1 0 32 0 16 16 0 1 0-32 0z" fill="#723703" p-id="14720"></path><path d="M683.535 223.616a60 60 0 1 0 120 0 60 60 0 1 0-120 0z" fill="#FFFFFF" p-id="14721"></path><path d="M743.421 293.646c-12.13 0-24.1-3.181-34.886-9.408-33.427-19.298-44.921-62.194-25.622-95.622 19.298-33.426 62.194-44.92 95.622-25.621 33.427 19.299 44.92 62.194 25.621 95.621-9.349 16.192-24.443 27.775-42.504 32.615a70.425 70.425 0 0 1-18.231 2.415z m0.197-120.02c-17.294 0-34.134 8.967-43.385 24.989-13.785 23.877-5.575 54.517 18.302 68.302 11.566 6.677 25.039 8.454 37.94 4.995 12.9-3.457 23.683-11.73 30.36-23.297 6.678-11.566 8.451-25.04 4.995-37.94-3.457-12.9-11.729-23.683-23.296-30.36a49.699 49.699 0 0 0-24.916-6.689z" fill="#723703" p-id="14722"></path><path d="M717.525 240.952a16 16 0 1 0 32 0 16 16 0 1 0-32 0z" fill="#723703" p-id="14723"></path><path d="M609.521 550.388a32 32 0 1 0 64 0 32 32 0 1 0-64 0z" fill="#FFFFFF" p-id="14724"></path><path d="M858.425 416.914c-2.004-6.79-4.077-13.812-10.843-15.293-5.394-1.186-10.727 2.234-11.907 7.63a9.976 9.976 0 0 0 1.88 8.284c3.765 9.142 22.909 82.288-10.999 123.562-24.923 30.336-73.275 36.088-143.78 17.128 3.222-17.05-4.398-35.054-20.255-44.209-20.056-11.578-45.794-4.684-57.373 15.373-5.609 9.716-7.1 21.034-4.196 31.871 2.904 10.836 9.854 19.894 19.569 25.502 6.472 3.736 13.653 5.646 20.932 5.646 3.647 0 7.32-0.479 10.938-1.449 8.768-2.349 16.37-7.35 21.924-14.319 29.893 8.263 56.492 12.402 79.687 12.402 35.634 0 63.256-9.741 82.538-29.191 18.412-18.571 28.382-45.04 29.633-78.669 0.926-24.898-3.395-49.524-7.748-64.268zM660.574 561.388a21.862 21.862 0 0 1-13.359 10.251c-5.676 1.521-11.604 0.74-16.693-2.198s-8.729-7.683-10.251-13.358a21.857 21.857 0 0 1 2.198-16.694c4.07-7.05 11.48-10.995 19.09-10.995 3.729 0 7.507 0.947 10.963 2.942 10.504 6.065 14.117 19.547 8.052 30.052z" fill="#723703" p-id="14725"></path><path d="M328.929 388.388a32 32 0 1 0 64 0 32 32 0 1 0-64 0z" fill="#FFFFFF" p-id="14726"></path><path d="M401.498 377.518c-2.903-10.836-9.854-19.894-19.569-25.503-15.857-9.157-35.259-6.753-48.414 4.563-51.67-51.577-70.865-96.328-57.055-133.08 18.788-50.003 91.709-69.996 101.508-71.306a9.999 9.999 0 0 0 8.115-2.516c4.081-3.721 4.373-10.046 0.652-14.127-4.666-5.118-11.786-3.401-18.671-1.741-14.947 3.603-38.436 12.175-59.531 25.425-28.496 17.897-46.432 39.765-53.308 64.995-11.89 43.623 10.525 93.701 66.579 148.879-7.432 18.996-0.069 41.149 18.124 51.653 6.472 3.736 13.654 5.646 20.932 5.646 3.648 0 7.321-0.479 10.939-1.449 10.836-2.904 19.894-9.854 25.502-19.569 5.61-9.715 7.1-21.033 4.197-31.87z m-21.517 21.87a21.86 21.86 0 0 1-13.358 10.251 21.857 21.857 0 0 1-16.694-2.198c-10.505-6.065-14.117-19.547-8.053-30.053 4.07-7.05 11.48-10.995 19.09-10.995 3.73 0 7.508 0.947 10.963 2.942a21.862 21.862 0 0 1 10.251 13.359 21.856 21.856 0 0 1-2.199 16.694z" fill="#723703" p-id="14727"></path><path d="M799.056 472.576a8 8 0 0 1-7.738-10.054c11.753-44.291 3.243-75.662 3.156-75.974-1.19-4.246 1.278-8.665 5.521-9.866 4.24-1.194 8.656 1.249 9.867 5.488 0.41 1.432 9.876 35.627-3.08 84.455a8.001 8.001 0 0 1-7.726 5.951zM773.208 534.198a8 8 0 0 1-6.439-12.739c10.735-14.607 14.642-28.62 14.681-28.761 1.163-4.256 5.559-6.772 9.81-5.622 4.258 1.152 6.782 5.525 5.639 9.786-0.183 0.683-4.631 16.921-17.236 34.071a7.992 7.992 0 0 1-6.455 3.265z" fill="#FFFFFF" p-id="14728"></path></svg>