<svg t="1760593890819" class="icon" viewBox="0 0 1024 1024" version="1.1" xmlns="http://www.w3.org/2000/svg" p-id="113264" width="64" height="64"><path d="M778.170326 1011.847989l226.467821-839.452164-409.476618 242.999737v0.016192c0.412893 58.582245-29.234451 115.917715-83.169625 147.920979s-118.419362 30.529802-169.666683 2.104945l-215.821655 128.077822c127.527298 137.744378 338.539963 173.066979 506.360771 73.478781 1.562517-0.931033 3.068362-1.943026 4.614687-2.874059l1.611093 13.325922 139.080209 234.401845z" fill="#FFBE08" p-id="113265"></path><path d="M511.991904 563.332733c-53.935174 32.003264-118.419362 30.529802-169.666683 2.104945L157.065752 675.396779c125.203762 78.773528 289.243765 86.553729 425.004637 5.990998 135.768968-80.578923 207.523313-228.248928 198.35061-375.910837L595.161529 415.411754c0.412893 58.582245-29.234451 115.917715-83.169625 147.920979z" fill="#FF960B" p-id="113266"></path><path d="M256.127714 420.196456c-0.412893-58.598437 29.218259-115.917715 83.161529-147.920979 53.918982-32.003264 118.451746-30.545994 169.666682-2.121137l215.821656-128.094014C597.266474 4.332139 386.229522-30.990461 218.433002 68.613929 50.612194 168.194031-19.498675 370.325446 40.289866 548.249991l215.837848-128.053535z" fill="#FFBE08" p-id="113267"></path><path d="M339.281147 272.275477c53.918982-32.003264 118.451746-30.545994 169.666682-2.121137l185.275662-109.959101c-125.236146-78.822104-289.251861-86.569921-425.004637-6.00719C133.457981 234.766972 61.663157 382.436977 70.852052 530.115078l185.275662-109.910526c-0.412893-58.606533 29.218259-115.925811 83.153433-147.929075z" fill="#FF960B" p-id="113268"></path><path d="M40.289866 560.393906a12.127723 12.127723 0 0 1-11.504335-8.28215c-62.516874-186.03668 14.645561-393.770488 183.454074-493.94969C381.048118-42.017136 600.351029-10.224367 733.683118 133.802464a12.160107 12.160107 0 0 1-2.712141 18.693533L515.149322 280.598107a12.135819 12.135819 0 0 1-12.087243 0.170015c-49.199047-27.315713-109.570496-26.554694-157.57944 1.943026-48.025135 28.49772-77.607712 81.137543-77.211011 137.396253a12.160107 12.160107 0 0 1-5.942422 10.532822L46.483263 558.693758c-1.894451 1.125336-4.039876 1.700148-6.193397 1.700148zM425.284352 24.256256c-69.034108 0-138.473013 17.892035-200.649858 54.801439C69.937211 170.857596-3.06391 358.513465 47.268569 529.985543l196.804285-116.751598c1.967314-62.18494 35.605958-119.714713 89.014896-151.402235s120.022359-33.654836 175.528146-5.594296L705.403988 139.43724C629.812166 63.877802 527.997584 24.256256 425.284352 24.256256z" fill="#33363A" p-id="113269"></path><path d="M501.944838 372.511351c25.016465 42.155577 11.131922 96.584603-31.023654 121.584875-42.139385 25.016465-96.584603 11.148114-121.609164-31.023654-25.000273-42.123193-11.099538-96.600795 31.039847-121.592972 42.139385-25.024561 96.576507-11.107634 121.592971 31.031751z" fill="#FFBE08" p-id="113270"></path><path d="M349.31202 463.064476c-25.000273-42.123193-11.099538-96.600795 31.039847-121.592972 42.139385-25.016465 96.584603-11.099538 121.592971 31.039847" fill="#FF960B" p-id="113271"></path><path d="M425.794396 518.707894c-8.363109 0-16.774794-1.052473-25.097424-3.17361a100.243969 100.243969 0 0 1-61.836814-46.276412 100.171106 100.171106 0 0 1-10.978099-76.417608 100.227777 100.227777 0 0 1 46.268315-61.820623c47.806545-28.376281 109.837662-12.573 138.238231 35.282121a100.16301 100.16301 0 0 1 10.994291 76.417608 100.114434 100.114434 0 0 1-46.276411 61.804431 100.009187 100.009187 0 0 1-51.312089 14.184093z m-0.29955-177.49546a76.101867 76.101867 0 0 0-38.949583 10.702837 76.077579 76.077579 0 0 0-35.128297 46.940279 76.069483 76.069483 0 0 0 8.330725 58.015529 76.061387 76.061387 0 0 0 46.948375 35.136394 75.964236 75.964236 0 0 0 58.023625-8.355014 76.053291 76.053291 0 0 0 35.136394-46.915991 76.118058 76.118058 0 0 0-8.355013-58.023625 76.644295 76.644295 0 0 0-66.006226-37.500409zM172.269933 580.30183a12.143915 12.143915 0 0 1-6.209588-22.587682l107.837964-63.990335a12.143915 12.143915 0 0 1 12.402985 20.887533l-107.837964 63.990336c-1.951122 1.149624-4.088451 1.700148-6.193397 1.700148zM110.141665 617.114084c-3.165514 0-6.314836-1.295351-8.589796-3.562215a12.006284 12.006284 0 0 1-3.554119-8.5817c0-3.157418 1.295351-6.314836 3.554119-8.5817 4.541824-4.460865 12.710631-4.460865 17.1634 0a12.135819 12.135819 0 0 1-8.573604 20.725615zM53.542925 650.712249c-3.157418 0-6.241972-1.295351-8.589795-3.562216a12.305834 12.305834 0 0 1-3.554119-8.581699c0-3.165514 1.295351-6.314836 3.554119-8.589796 4.614688-4.533728 12.637767-4.533728 17.163399 0 2.266864 2.266864 3.562215 5.424282 3.562215 8.589796 0 3.157418-1.295351 6.30674-3.562215 8.581699a12.224874 12.224874 0 0 1-8.573604 3.562216zM571.181345 343.560257a12.143915 12.143915 0 0 1-6.209588-22.587681l107.821772-63.957952a12.143915 12.143915 0 0 1 12.402985 20.887534l-107.821772 63.957951c-1.951122 1.149624-4.080355 1.700148-6.193397 1.700148zM741.131386 242.749572c-3.230281 0-6.395795-1.295351-8.5817-3.554119-2.266864-2.266864-3.562215-5.424282-3.562215-8.589796 0-3.230281 1.295351-6.395795 3.562215-8.654563 4.533728-4.541824 12.548712-4.541824 17.1634 0 2.258768 2.258768 3.554119 5.424282 3.554119 8.654563 0 3.165514-1.295351 6.314836-3.554119 8.589796-2.266864 2.258768-5.416186 3.554119-8.5817 3.554119zM797.705837 209.151408a12.143915 12.143915 0 0 1-6.209588-22.587682L955.325757 89.315256a12.152011 12.152011 0 0 1 12.402985 20.887533L803.899234 207.451259c-1.943026 1.15772-4.080355 1.700148-6.193397 1.700149z" fill="#33363A" p-id="113272"></path><path d="M778.170326 1023.991904a12.143915 12.143915 0 0 1-10.443766-5.942422l-139.088306-234.401845a3.125034 3.125034 0 0 0-0.105247-0.170015c-167.318859 92.77951-380.371702 59.335168-510.95117-81.704259a12.160107 12.160107 0 0 1 2.712141-18.693533l215.821655-128.077823a12.152011 12.152011 0 0 1 12.087243-0.170014c49.207143 27.291425 109.586688 26.530406 157.57944-1.926835 48.033231-28.505816 77.623904-81.145639 77.227202-137.396253a12.160107 12.160107 0 0 1 5.942423-10.532822l409.476617-243.007833a12.143915 12.143915 0 1 1 17.924419 13.609281L789.901348 1015.013503a12.143915 12.143915 0 0 1-11.731022 8.978401zM650.837331 773.446748l123.106913 207.474738 211.18268-782.812945-377.910535 224.249532c-1.967314 62.18494-35.614054 119.722809-89.031088 151.418427-53.38465 31.679426-120.006167 33.622452-175.528146 5.578105L145.877158 696.138586c126.393866 126.361482 326.096498 152.203733 480.785686 60.411929l4.558016-2.841676a12.160107 12.160107 0 0 1 18.32112 8.937921l1.295351 10.799988z" fill="#33363A" p-id="113273"></path><path d="M743.131084 756.469555a12.152011 12.152011 0 0 1-10.743317-6.48485L647.679913 589.231655a12.143915 12.143915 0 0 1 15.179894-16.961001l80.271277 31.468932 80.271277-31.468932a12.143915 12.143915 0 1 1 15.179894 16.961001L753.874401 749.984705a12.143915 12.143915 0 0 1-10.743317 6.48485zM684.38692 606.791756l58.744164 111.481139 58.744164-111.481139-54.307587 21.292331a12.079147 12.079147 0 0 1-8.873154 0l-54.307587-21.292331z" fill="#33363A" p-id="113274"></path></svg>