<svg t="1760602430087" class="icon" viewBox="0 0 1033 1024" version="1.1" xmlns="http://www.w3.org/2000/svg" p-id="50129" width="64" height="64"><path d="M40.546516 21.942914h928.564282v591.229879H40.546516z" fill="#9CBAB8" p-id="50130"></path><path d="M969.110798 619.157224H40.546516a5.984431 5.984431 0 0 1-5.984431-5.984431V21.942914a5.984431 5.984431 0 0 1 5.984431-5.984431h928.564282a5.984431 5.984431 0 0 1 5.984431 5.984431v591.229879a5.984431 5.984431 0 0 1-5.984431 5.984431z m-922.579851-11.968862h916.59542V27.927345H46.530947v579.261017z" fill="#6E6E96" p-id="50131"></path><path d="M9.974052 582.608308h978.23506v59.010481H9.974052z" fill="#E4BC96" p-id="50132"></path><path d="M988.209112 647.60322H9.974052a5.984431 5.984431 0 0 1-5.984431-5.984431v-59.010481a5.984431 5.984431 0 0 1 5.984431-5.984431h978.23506a5.984431 5.984431 0 0 1 5.984431 5.984431v59.010481a5.984431 5.984431 0 0 1-5.984431 5.984431zM15.958483 635.634357h966.266198v-47.041618H15.958483v47.041618z" fill="#6E6E96" p-id="50133"></path><path d="M9.974052 618.056088h978.23506v23.562701H9.974052z" fill="#6E6E96" opacity=".15" p-id="50134"></path><path d="M820.449549 549.374767h83.750119v33.221572h-83.750119z" fill="#FFFFFF" p-id="50135"></path><path d="M904.203658 588.58077h-83.750119a5.984431 5.984431 0 0 1-5.984431-5.984431v-33.221572a5.984431 5.984431 0 0 1 5.984431-5.984431h83.750119a5.984431 5.984431 0 0 1 5.984431 5.984431v33.221572a5.984431 5.984431 0 0 1-5.984431 5.984431z m-77.769678-11.968862h71.781257v-21.25271h-71.781257v21.25271z" fill="#6E6E96" p-id="50136"></path><path d="M168.593394 386.059642a109.160013 85.134517 90 1 0 170.269034 0 109.160013 85.134517 90 1 0-170.269034 0Z" fill="#B08F81" p-id="50137"></path><path d="M253.727911 501.383619c-50.345024 0-91.298481-51.733412-91.298481-115.323977S203.386876 270.735664 253.727911 270.735664s91.298481 51.733412 91.298481 115.323978-40.957447 115.323977-91.298481 115.323977z m0-218.320027c-43.546711 0-78.970553 46.203798-78.970553 102.99605s35.427832 102.996049 78.970553 102.996049 78.970553-46.203798 78.970553-102.996049S297.274621 283.063592 253.727911 283.063592z" fill="#6E6E96" p-id="50138"></path><path d="M397.410113 659.751615s4.512261 6.068213-26.902013 151.174709c-16.732469 77.314861-28.023096 124.695597-28.023096 157.191058-0.291242 3.490918-0.307201 8.892865 1.512066 13.656472 0.953519 1.551962 1.508077 3.267499 1.508077 5.102725 0 6.503082-6.73448 11.77736-15.04486 11.77736-6.714532 0-12.395752-3.447032-14.334707-8.20665h0.275283v-375.499115l81.00925 44.803441z" fill="#EDC5B5" p-id="50139"></path><path d="M330.460287 1003.640965c-8.577685 0-16.19786-4.548168-18.950699-11.310575a4.967078 4.967078 0 0 1-0.091761-3.514855v-373.867361a4.995005 4.995005 0 0 1 7.400747-4.364645l81.009249 44.799451c0.622381 0.343107 1.164969 0.817872 1.587869 1.388388 1.452222 1.950925 5.864743 7.88748-26.028286 155.204227-1.99481 9.208045-3.905839 17.99319-5.737074 26.375383-13.353261 61.22472-22.174312 101.667506-22.174313 129.758425 0 0.135647-0.00399 0.275284-0.015958 0.41492-0.203471 2.473565-0.331139 7.133442 1.065229 11.095136 1.308596 2.286053 1.970873 4.727701 1.970872 7.249141-0.00399 9.25592-8.988616 16.772366-20.035875 16.772365z m-9.072398-13.931755c1.528025 2.10652 4.815472 3.957704 9.072398 3.957703 5.453812 0 10.057834-3.107915 10.057834-6.790334 0-0.83782-0.251346-1.651703-0.766007-2.489523a4.959099 4.959099 0 0 1-0.414921-0.837821c-2.094551-5.489718-2.162374-11.494097-1.839215-15.635324 0.039896-29.152159 8.94473-69.969969 22.40172-131.685412 1.827246-8.382193 3.742264-17.159359 5.733085-26.359424 24.252905-112.024561 26.902013-140.322941 27.025691-147.041462l-71.274574-39.417453v366.29905z" fill="#6E6E96" p-id="50140"></path><path d="M316.404853 990.459258h0.011969v-0.079792l-0.011969 0.079792z m-0.247356 3.335323c0 10.584464 6.921992 24.109278 15.45579 24.109278 8.537788 0 15.455791-13.516835 15.455791-24.109278a22.820631 22.820631 0 0 0-1.847194-9.096335c0.175543 0.710152 0.287253 1.428284 0.287252 2.178333 0 6.499092-6.73448 11.773371-15.044859 11.773371-6.507071 0-12.016738-3.247551-14.115279-7.775771a24.93513 24.93513 0 0 0-0.191501 2.920402z" fill="#FFFFFF" p-id="50141"></path><path d="M331.613287 1023.030522c-12.563316 0-20.582453-17.314954-20.582453-29.235941a29.854332 29.854332 0 0 1 0.271294-3.845994 5.094746 5.094746 0 0 1 5.741064-4.655888c2.290042 0.283263 4.069413 2.050665 4.428479 4.256926 1.631755 2.377814 5.15858 3.969673 8.984626 3.969672 5.378009 0 9.918197-3.044081 9.918197-6.646708a3.977652 3.977652 0 0 0-0.135647-0.94554 5.126663 5.126663 0 0 1 9.674831-3.275478c1.508077 3.46698 2.274084 7.217224 2.274084 11.14301 0.007979 11.920987-8.011158 29.235941-20.574475 29.235941z m-8.681414-20.458775c2.098541 5.733085 5.796919 10.20545 8.677425 10.20545 3.068018 0 7.065618-5.074798 9.068408-11.334513-5.122673 2.52942-12.108499 3.016153-17.745833 1.129063z" fill="#6E6E96" p-id="50142"></path><path d="M228.681072 659.751615s2.928382 6.068213 34.346645 151.174709c16.736459 77.314861 28.015117 124.695597 28.015117 157.191058 0.295232 3.490918 0.31917 8.892865-1.508077 13.656472a9.706747 9.706747 0 0 0-1.504087 5.102725c0 6.503082 6.73448 11.77736 15.036881 11.77736 6.722511 0 12.395752-3.447032 14.330718-8.20665h-0.267305v-375.499115l-88.449892 44.803441z" fill="#EDC5B5" p-id="50143"></path><path d="M303.067551 1003.640965c-11.039281 0-20.023907-7.520435-20.023907-16.764386 0-2.52144 0.662277-4.955109 1.966883-7.249141 1.041291-2.94035 1.416315-6.862148 1.061239-11.091146a4.747649 4.747649 0 0 1-0.015958-0.41492c0-28.134806-8.841-68.677332-22.226177-130.045678-1.811288-8.298411-3.706358-16.987805-5.677231-26.09212-29.862311-137.91321-33.959652-149.973834-34.119236-150.416682-1.180928-2.445638-0.031917-5.034901 2.393772-6.259715l88.445903-44.799451a4.995005 4.995005 0 0 1 7.241161 4.448427v374.210468c0.31917 1.037301 0.31518 2.146416-0.09974 3.167759-2.748849 6.762407-10.361045 11.306585-18.946709 11.306585z m-7.033702-35.731043c0.331139 4.149206 0.263315 10.157574-1.835225 15.647292a5.186507 5.186507 0 0 1-0.402952 0.817873c-0.518651 0.849789-0.769997 1.667661-0.769997 2.501492 0 3.68242 4.600033 6.790335 10.049855 6.790334 4.260915 0 7.552352-1.855174 9.072398-3.965683v-366.634178l-77.526311 39.269837c3.690399 13.788129 13.824036 57.642041 33.285406 147.532186 1.970873 9.100325 3.861953 17.785729 5.673241 26.080151 13.488908 61.85508 22.4097 102.768641 22.453585 131.960696z" fill="#6E6E96" p-id="50144"></path><path d="M405.521012 516.983036c10.83182-4.94713 26.443206-9.407526 32.024686-5.669251l-12.052645-31.944893s-31.258679-66.06413-53.684337-82.968153c0 0-29.259879 30.337076-12.51544 84.79141 13.265489 43.111842 19.194065 59.872239 26.155954 70.775872 0-0.047875-0.534609-25.585438 20.071782-34.984985z" fill="#FFFFFF" p-id="50145"></path><path d="M385.44524 557.094683c-1.715537 0-3.359261-0.865748-4.320759-2.369834-7.600228-11.901039-14.107299-30.983395-26.734449-72.024624-17.434643-56.692511 12.443627-88.529684 13.724296-89.858228a5.122673 5.122673 0 0 1 6.774376-0.534609c23.163738 17.46257 53.931693 82.122354 55.232309 84.867212 0.059844 0.127668 0.111709 0.251346 0.163575 0.383004l12.052644 31.944893a5.122673 5.122673 0 0 1-7.652093 6.072203c-0.031917-0.023938-0.805903-0.52264-3.263509-0.52264-5.585469 0-15.140611 2.649108-23.77814 6.594843-17.235162 7.863543-17.087546 29.323713-17.075577 30.233346a5.134642 5.134642 0 0 1-5.122673 5.214434z m-12.962278-153.369001c-6.634739 9.267889-20.797893 35.276227-8.290432 75.96238 8.94473 29.068377 14.394552 45.545511 18.862927 56.245673 2.83662-8.505871 8.605612-18.260494 20.339087-23.610576 7.412715-3.387188 17.937335-6.989816 26.235746-7.46857l-8.852969-23.474928c-1.727506-3.606617-28.035065-58.252453-48.294359-77.653979z" fill="#6E6E96" p-id="50146"></path><path d="M379.692207 408.557113s30.005938 29.587027-19.724685 95.515511l-4.791535-15.120663 24.51622-80.394848z" opacity=".094" p-id="50147"></path><path d="M359.233432 508.357476l-6.148006-19.393546 25.661241-84.145092 2.345897 2.313981c1.276679 1.256731 30.672204 31.577848-19.533183 98.14068l-2.325949 3.083977z m-1.970873-19.413494l3.427084 10.807882c36.808241-50.520568 25.282227-78.360141 19.78054-86.901919l-23.207624 76.094037z" fill="#6E6E96" p-id="50148"></path><path d="M264.874911 587.272175l46.507009 16.377393-4.755627 12.527409H256.959504l-40.682163-26.163933c-56.951836-37.901397-45.058777-65.349988-45.058777-65.349988s0-13.604607 17.602207-17.610186c17.614176-3.9976 24.647877 13.740254 24.647877 13.740254s-9.040481 18.910802 15.491697 36.313528c13.345281 9.447422 35.914566 30.161533 35.914566 30.161533z" fill="#EDC5B5" p-id="50149"></path><path d="M306.626293 621.160013H256.959504c-0.957509 0-1.89507-0.275284-2.696984-0.789945l-40.686152-26.159943c-54.370552-36.18586-49.12819-64.647815-47.312913-70.472661 0.438858-6.351476 5.286247-17.869511 21.456181-21.543952a27.727864 27.727864 0 0 1 6.132047-0.710152c17.127442 0 23.969641 16.764386 24.256894 17.474539 0.506682 1.296627 0.458806 2.744859-0.139637 3.98962-0.259325 0.582485-6.686604 15.511645 13.875901 30.09371 12.220208 8.649498 31.525983 26.108078 35.643272 29.862311l45.5495 16.038275a4.987026 4.987026 0 0 1 3.008174 6.471165l-4.755628 12.527409c-0.73808 1.938956-2.593253 3.219624-4.663866 3.219624z m-48.198609-9.974051h44.755566l1.723516-4.52822-41.687547-14.685794a4.971067 4.971067 0 0 1-1.715537-1.029322c-0.223419-0.203471-22.493482-20.610381-35.423843-29.762571-20.135616-14.282842-20.897634-31.306554-18.041065-40.167502-1.703568-3.111904-6.20785-9.555142-14.183102-9.555141-1.248751 0-2.569316 0.155595-3.925786 0.462796-13.054039 2.968278-13.692378 11.817257-13.720306 12.810672-0.019948 0.63435-0.159585 1.336523-0.410931 1.915018-0.055855 0.159585-8.769186 24.600002 43.247489 59.217941l39.377557 25.326112z" fill="#6E6E96" p-id="50150"></path><path d="M264.874911 587.272175l46.507009 16.377393-4.755627 12.527409H256.959504l-40.682163-26.163933c-56.951836-37.901397-45.058777-65.349988-45.058777-65.349988s0-13.604607 17.602207-17.610186c17.614176-3.9976 24.647877 13.740254 24.647877 13.740254s-9.040481 18.910802 15.491697 36.313528c13.345281 9.447422 35.914566 30.161533 35.914566 30.161533z" fill="#EDC5B5" opacity=".365" p-id="50151"></path><path d="M306.626293 621.160013H256.959504c-0.957509 0-1.89507-0.275284-2.696984-0.789945l-40.686152-26.159943c-54.370552-36.18586-49.12819-64.647815-47.312913-70.472661 0.438858-6.351476 5.286247-17.869511 21.456181-21.543952a27.727864 27.727864 0 0 1 6.132047-0.710152c17.127442 0 23.969641 16.764386 24.256894 17.474539 0.506682 1.296627 0.458806 2.744859-0.139637 3.98962-0.259325 0.582485-6.686604 15.511645 13.875901 30.09371 12.220208 8.649498 31.525983 26.108078 35.643272 29.862311l45.5495 16.038275a4.987026 4.987026 0 0 1 3.008174 6.471165l-4.755628 12.527409c-0.73808 1.938956-2.593253 3.219624-4.663866 3.219624z m-48.198609-9.974051h44.755566l1.723516-4.52822-41.687547-14.685794a4.971067 4.971067 0 0 1-1.715537-1.029322c-0.223419-0.203471-22.493482-20.610381-35.423843-29.762571-20.135616-14.282842-20.897634-31.306554-18.041065-40.167502-1.703568-3.111904-6.20785-9.555142-14.183102-9.555141-1.248751 0-2.569316 0.155595-3.925786 0.462796-13.054039 2.968278-13.692378 11.817257-13.720306 12.810672-0.019948 0.63435-0.159585 1.336523-0.410931 1.915018-0.055855 0.159585-8.769186 24.600002 43.247489 59.217941l39.377557 25.326112z" fill="#6E6E96" p-id="50152"></path><path d="M306.630282 616.172987s9.934156-0.94155 9.934156-22.980215c0-8.20665-12.092541-5.485729-18.571685 10.013948-4.572105 10.951509-3.451022 12.962278-3.451022 12.962278l12.088551 0.003989z" fill="#EDC0AF" p-id="50153"></path><path d="M306.722043 618.167798l-13.35326-0.00399-0.570516-1.025332c-1.316575-2.361855 1.097146-9.295816 3.355271-14.701753 4.52822-10.83581 11.701558-15.766981 16.453196-15.766981 3.618586 0 5.952514 2.561337 5.952514 6.52303 0 23.578659-11.262699 24.919171-11.741454 24.967047l-0.095751 0.007979z m-10.213429-3.993611h9.974052c0.873727-0.203471 8.086961-2.465586 8.086961-20.981415 0-2.533409-1.376419-2.533409-1.962893-2.533409-2.784755 0-8.717321 3.614596-12.770776 13.313364-2.337918 5.601428-3.095946 8.657477-3.327344 10.20146z" fill="#6E6E96" p-id="50154"></path><path d="M294.537742 616.172987s15.978431-3.933766 15.978431-34.988974c0-12.958288-14.362635-11.67363-14.362635 6.032307 0 13.297406-13.289427 28.956667-13.289427 28.956667h11.673631z" fill="#EDC0AF" p-id="50155"></path><path d="M294.781109 618.167798h-16.217809l2.784755-3.283458c0.127668-0.151606 12.814662-15.264289 12.814662-27.66802 0-10.94353 5.26231-16.672625 10.460786-16.672625 3.802109 0 7.89147 3.327344 7.89147 10.640318 0 32.244115-16.784335 36.748397-17.498477 36.923941l-0.235387 0.059844z m-7.835616-3.989621h7.304996c1.839215-0.598443 14.270873-5.669251 14.270873-32.994164 0-3.977652-1.567921-6.650698-3.901849-6.650697-2.685015 0-6.471165 3.933766-6.471165 12.683004 0.00399 10.257315-7.213234 21.520014-11.202855 26.961857z" fill="#6E6E96" p-id="50156"></path><path d="M276.121652 602.747914s8.856958-28.4061 18.420079-26.92994c5.653293 0.873727 0.251346 37.011712-11.661661 39.728643-0.00399 0-13.907818 4.899254-6.758418-12.798703z" fill="#EDC0AF" p-id="50157"></path><path d="M279.161743 618.163808c-3.343302 0-5.05086-1.492118-5.896659-2.740869-1.859163-2.756828-1.528025-7.1494 1.005384-13.425074 1.47217-4.739669 9.954104-29.834384 20.570485-28.154754 2.429679 0.375024 3.750244 3.036101 3.921797 7.903439 0.398962 11.266689-5.15858 33.393126-15.447812 35.739023-0.147616 0.071813-2.030717 0.678236-4.153195 0.678235z m14.653877-40.406879c-5.389978 0-12.475544 14.961078-15.790919 25.581449-2.740869 6.798314-1.926987 9.15219-1.452222 9.854363 0.438858 0.650308 1.308596 0.981447 2.585275 0.981446 1.547973 0 3.004184-0.494713 3.068018-0.514661 3.937756-0.913623 7.68002-6.698573 10.213429-15.543562 2.936361-10.245346 2.681025-18.982616 1.567921-20.382972-0.007979 0.023938-0.10373 0.027927-0.191502 0.023937z" fill="#6E6E96" p-id="50158"></path><path d="M262.070208 395.674628s38.71129 8.326339 38.71129-20.09572v-14.211029h32.910382s-2.573305 35.356019 25.529583 35.356019c0 0 26.842168 60.394879-9.822446 71.609703-36.648656 11.222803-87.328809-54.07133-87.328809-72.658973z" fill="#EDC5B5" p-id="50159"></path><path d="M340.565996 474.605285c-39.114242 0-83.482814-59.716643-83.482814-78.934647a4.987026 4.987026 0 0 1 6.028317-4.875316c0.047875 0.007979 4.903244 1.025333 10.903634 1.025332 21.77535 0 21.77535-12.224198 21.77535-16.245736v-14.211029c0-2.752838 2.234188-4.987026 4.987026-4.987026h32.910381a4.991016 4.991016 0 0 1 4.975057 5.350082c-0.007979 0.151606-1.013364 16.157964 6.953909 24.691763 3.335323 3.5747 7.78774 5.314175 13.604607 5.314174 1.970873 0 3.754233 1.16098 4.556147 2.960299 0.698184 1.567921 16.915992 38.60756 6.283652 61.926893-3.730295 8.174733-10.189491 13.720306-19.202044 16.477134a35.052808 35.052808 0 0 1-10.293222 1.508077z m-72.092447-73.037987c7.400746 19.194065 42.441586 63.067925 72.092447 63.067924a25.134611 25.134611 0 0 0 7.372819-1.069218c6.247746-1.911028 10.51664-5.533604 13.04606-11.067208 7.304996-15.99439-1.815277-42.341845-5.170548-50.943467-7.089556-0.666267-12.970257-3.47496-17.518425-8.362245-7.556342-8.126857-9.267889-20.003958-9.587059-26.838179h-22.936329v9.224003c0 16.664646-11.57389 26.219788-31.749402 26.219788a70.815768 70.815768 0 0 1-5.549563-0.231398z" fill="#6E6E96" p-id="50160"></path><path d="M381.563339 789.980816c17.953293-55.348009 23.714306-155.47951 8.545768-170.648049-22.174312-39.325692-110.428713-37.729843-97.865397-37.729843l20.502661-20.502661c-21.683589 0-80.203346 26.92994-80.203346 59.840321-21.907008 14.067403 2.405741 113.700202 17.362829 169.064169 0-0.023938 41.986769 35.882649 131.657485-0.023937z" fill="#FF8092" p-id="50161"></path><path d="M307.567843 811.065961c-38.811031 0-58.663384-15.260299-60.869644-17.063608a5.134642 5.134642 0 0 1-1.743464-2.661077c-35.603376-131.789142-28.134806-163.315125-17.434643-172.993945 2.820662-34.92913 61.75135-62.373731 85.226279-62.373731a5.126663 5.126663 0 0 1 3.626565 8.749238l-12.443627 12.443627c23.786119 2.006779 73.205551 9.690789 90.336983 39.106263 16.736459 18.986605 9.702758 121.252554-7.823647 175.291967-0.470775 1.448232-1.555952 2.609212-2.972267 3.179728-27.057608 10.827831-52.591181 16.321538-75.902535 16.321538z m-53.169676-24.101299c4.608012 3.239572 22.058613 13.847974 53.173666 13.847974 21.36043 0 44.847327-4.94314 69.84629-14.705742 17.889459-57.354788 21.192865-151.023104 9.068408-163.155541a5.014953 5.014953 0 0 1-0.83782-1.105125c-18.707332-33.173697-91.182782-35.060787-94.25878-35.124621l-0.343108-0.007979v0.003989-0.003989c-5.098735-0.247356-5.142621-5.090756-5.142621-5.142621a5.142621 5.142621 0 0 1 4.129258-5.006974l7.46458-7.464581c-9.040481 2.756828-19.928156 7.460591-30.257284 13.919787-11.039281 6.906034-29.56309 21.017322-29.563089 37.917356 0 1.747454-0.889685 3.37123-2.357866 4.31278-6.283653 4.033507-16.93594 27.87947 19.078366 161.715287z" fill="#6E6E96" p-id="50162"></path><path d="M372.099959 511.872332c24.420469-30.771945 34.406489-90.26517-3.347292-117.179151-28.08294 0-9.874311 34.07934-26.806262 51.996727-28.262473 29.898218-47.955241-54.350604-83.187582-52.07253-1.78336 0-3.490918 0.071813-5.126663 0.199481h-0.011969c-9.343692-0.63435-49.008501 8.382193-62.493419 31.87707-25.629324 44.635877-29.786509 81.515931-29.786509 81.515931s1.607817 23.582648 18.974637 27.911387c26.239736 6.554947 35.774929-9.287837 35.774929-9.287837l16.636718-34.374572c2.73688 5.828836 14.382583 17.833605 17.366819 22.477523 44.117226 68.781062-117.418528 135.49949 62.038603 135.499489 173.129593-0.015958 9.04846-74.410417 59.96799-138.563518z" fill="#FFFFFF" p-id="50163"></path><path d="M312.135959 655.554534c-54.582002 0-81.308471-5.972462-89.363515-19.968052-7.217224-12.535388 1.448232-27.464549 11.486118-44.755566 13.010153-22.417679 27.759781-47.823584 11.526014-73.137727-0.997405-1.555952-3.618586-4.639929-6.151995-7.624165a289.546726 289.546726 0 0 1-6.148006-7.404737l-12.774765 26.395331a7.025722 7.025722 0 0 1-0.223419 0.414921c-0.331139 0.546578-8.270484 13.36124-28.110868 13.36124-4.197081 0-8.673436-0.586474-13.297406-1.743464-20.746028-5.174538-22.772755-31.422253-22.848558-32.535358a5.47376 5.47376 0 0 1 0.019948-0.921602c0.171554-1.547973 4.572105-38.451965 30.432827-83.494783 14.262894-24.851348 54.976974-35.008922 66.889982-34.462344 1.659682-0.123678 3.387188-0.187512 5.186507-0.187512 0.251346-0.027927 0.829841-0.043886 1.404346-0.043886 18.148785 0 31.809246 18.292411 43.86588 34.434416 8.852968 11.853163 18.005158 24.113268 25.617355 24.109279 2.700973 0 5.505677-1.5759 8.573695-4.819462 5.976452-6.323549 6.710542-15.67921 7.416705-24.72368 1.009374-12.866527 2.266105-28.876875 23.111873-28.876875 1.069218 0 2.10652 0.331139 2.976257 0.953519 14.510251 10.345087 23.618555 26.008338 26.347456 45.298154 3.698378 26.183881-5.126663 58.029034-21.958873 79.241848-18.966657 23.897828-4.304801 50.161502 8.633539 73.333219 9.774571 17.502466 19.002564 34.031465 11.298606 47.161307-8.230588 14.011548-33.325302 19.99199-83.909703 19.995979z m-79.405422-168.230338h0.027927c1.978852 0.011969 3.770192 1.16098 4.612002 2.948329 1.360461 2.896465 6.399352 8.829031 10.073792 13.161759 3.000195 3.538794 5.593448 6.590853 6.965878 8.725301 19.612976 30.580443 2.481544 60.099647-11.290627 83.817942-8.438048 14.542168-15.727085 27.097504-11.470159 34.494261 5.665261 9.842394 32.742818 14.82942 80.47863 14.829421 43.993548 0 69.247847-5.026922 75.064714-14.937141 4.73568-8.063024-3.103925-22.106489-11.406326-36.975805-13.788129-24.691763-30.947488-55.427801-7.711937-84.703638 15.196465-19.15018 23.167728-47.855501 19.836395-71.434159-2.234188-15.822836-9.411515-28.709311-20.793904-37.386736-8.992605 0.498703-10.173533 5.497697-11.262699 19.381577-0.809893 10.31317-1.727506 22.006748-10.189491 30.963447-5.038891 5.330133-10.428869 8.035096-16.026307 8.035096-12.750828 0-22.992184-13.712327-33.831984-28.230556-11.434253-15.312164-23.207624-31.111063-36.720469-30.281222-1.974862 0.011969-3.550762 0.075803-5.058839 0.195491a6.666656 6.666656 0 0 1-0.402952 0.015959 23.439022 23.439022 0 0 0-1.017353-0.031917c-9.690789 0-45.266237 8.825041-57.039608 29.331692-23.243531 40.478692-28.473923 74.597929-29.076356 79.050345 0.323159 2.932371 2.692994 19.768571 15.056828 22.848558 3.818067 0.953519 7.456601 1.436263 10.815862 1.436264 12.958288 0 18.51982-7.233182 19.245931-8.270484l16.497082-34.08732a5.15858 5.15858 0 0 1 4.62397-2.896464z" fill="#6E6E96" p-id="50164"></path><path d="M262.744454 171.426024S303.530347 232.419347 194.861057 295.71468c0 0-50.432796-67.336819 67.883397-124.288656z" fill="#855000" p-id="50165"></path><path d="M292.183865 159.955865s25.330102 49.415443-30.995363 74.58197l1.555952-63.111811s7.233182-14.30279 29.439411-11.470159z" fill="#855000" p-id="50166"></path><path d="M421.902395 192.682724c-28.661435-54.765524-72.291928-84.919078-162.804454-37.542331-93.544638 48.964615-89.614861 99.181972-60.949437 153.947496 13.748233 26.263673 39.142169 39.561079 65.808795 50.548494 31.214793 12.858548 64.492219 20.438827 87.612071 10.225398 63.303312-27.971231 102.389627-115.922421 70.337014-177.179057z" fill="#EDC0AF" p-id="50167"></path><path d="M326.32704 376.604241c-17.526404 0-38.763155-5.090756-63.12378-15.124653-30.520599-12.579274-53.564648-26.139995-66.818168-51.466107-26.522999-50.676163-37.398705-104.727545 61.787256-156.64847 30.532568-15.978431 56.524947-23.750212 79.453298-23.750212 36.520988 0 63.861859 19.744633 86.044151 62.138343 14.242946 27.217193 15.547552 60.90555 3.67444 94.857223-13.445022 38.471913-41.476097 70.27318-74.968963 85.070684-7.388778 3.271489-16.157964 4.923192-26.048234 4.923192z m11.298606-242.995832c-21.958873 0-48.07493 7.835615-77.602113 23.291406-90.735945 47.500425-89.654758 94.821316-60.107627 151.262482 12.698963 24.256894 35.088715 37.386736 64.799421 49.630882 23.88187 9.838405 44.60795 14.821441 61.607723 14.821441h0.00399c9.335713 0 17.554331-1.539994 24.436427-4.576095 32.50743-14.362635 59.724623-45.290175 72.818558-82.736755 11.506066-32.902402 10.281253-65.469677-3.447032-91.693454-21.420274-40.933509-47.640061-60.003896-82.505358-60.003896z" fill="#6E6E96" p-id="50168"></path><path d="M421.902395 192.682724c-23.67441-45.246289-57.578207-73.692285-119.704581-55.495625-13.069998 3.830036-27.380767 9.714727-43.103863 17.953294-93.544638 48.964615-89.614861 99.181972-60.949436 153.947496 12.479534 23.833994 35.830784 34.741618 59.604934 46.048202 33.089915 15.739054 68.860854 25.745023 93.815932 14.72968 63.307302-27.975221 102.393617-115.92641 70.337014-177.179058z" fill="#FFFFFF" opacity=".129" p-id="50169"></path><path d="M327.160871 380.681633c-19.936135 0-44.18505-6.722511-72.06053-19.976031l-0.797925-0.386993c-23.754202-11.302596-48.326276-22.988195-61.615703-48.374152-26.211808-50.06974-39.158128-108.505716 63.554659-162.273834 15.667241-8.20665 30.548526-14.398541 44.224946-18.404121 13.185697-3.861953 25.685178-5.816867 37.159328-5.816867 38.244505 0 66.758324 20.450796 89.742529 64.368541 14.785535 28.246515 16.173923 63.1158 3.917808 98.164619-13.824036 39.545121-42.696921 72.260011-77.231079 87.52031-7.78375 3.435063-16.83221 5.178528-26.890044 5.178528z m10.460785-242.90008c-10.301201 0-21.639703 1.79134-33.696337 5.322154-12.898444 3.774181-27.021701 9.662861-41.9748 17.490497-87.671916 45.892608-86.734355 91.410191-58.348203 145.633126 11.382388 21.743433 33.054008 32.048624 55.990337 42.960237l0.797925 0.379014c38.284401 18.208629 69.004481 23.339281 88.6773 14.657866 31.474118-13.907818 57.85748-43.925724 70.576391-80.307076 11.111094-31.797277 9.974052-63.187613-3.207655-88.382068-20.61437-39.401495-45.66121-57.75375-78.814958-57.75375z" fill="#6E6E96" p-id="50170"></path><path d="M300.733623 133.468773c1.328544 4.260915-42.944278 39.676778-57.434581 53.377136C198.531508 229.195733 181.288367 264.842994 159.864104 262.501087c0 0-55.032829-47.344829 6.167953-122.880319 39.090304-48.254463 100.195336-70.955405 120.957322-62.258032 25.122642 10.508661 13.744243 56.106037 13.744244 56.106037z" fill="#B08F81" p-id="50171"></path><path d="M161.858914 268.77676c-0.885696 0-1.771392-0.047875-2.665067-0.147616a6.191891 6.191891 0 0 1-3.351281-1.452221c-20.602402-17.725885-45.992348-68.007075 5.397957-131.434067 33.656441-41.543921 84.795399-66.367341 114.797347-66.367341 5.202465 0 9.686799 0.773986 13.333313 2.302011 27.344861 11.442232 19.449401 53.815994 17.646092 61.986738 0.243367 4.975057-5.78894 11.15099-38.683362 39.405484-8.322349 7.1494-16.185891 13.899839-20.793904 18.260494-16.289622 15.407915-29.14019 30.213398-39.469318 42.110447-18.479923 21.276647-30.684173 35.336071-46.211777 35.336071z m114.178956-187.073317c-22.242136 0-71.063125 19.640903-105.218268 61.799226-51.809215 63.941652-16.568895 104.903088-8.430069 112.934194 9.77856-0.454817 20.973436-13.353261 36.365394-31.083135 10.504671-12.10052 23.578659-27.157348 40.311128-42.984174 4.823451-4.560137 12.794714-11.406326 21.232761-18.655466 11.705547-10.053844 31.019301-26.642687 34.390531-31.446191a3.247551 3.247551 0 0 1 0.063834-0.283263c0.099741-0.406941 9.475349-40.726049-10.141616-48.936688-2.098541-0.881706-5.062829-1.344502-8.573695-1.344503z" fill="#6E6E96" p-id="50172"></path><path d="M550.204608 386.211247c1.727506-8.972657 9.331723-45.824784 16.560916-29.088325l5.070808 32.351835c1.464191 24.448396-15.790919 26.890044-33.413074 53.983558-6.423289 13.768181-17.446612 30.935519-33.732243 51.266627-45.713075 57.087483-81.045156 71.884987-99.708602 69.447329-11.075187-1.428284-19.309764-12.898444-21.428253-21.651672-2.349887-9.718716 10.736069-29.634903 38.974605-43.454949 18.432048-9.020533 38.033055-20.111678 62.018655-38.914761 18.61557-14.586053 29.614955-26.965847 36.656635-36.313528l-0.335128-0.766008c0.750049-1.727506 1.559942-3.303406 2.41372-4.743659 1.903049-7.807688 0.323159-16.83221-2.170353-30.588422 0.307201-8.146806 2.517451-10.947519 7.35686-6.30759 4.496303 4.344697 7.57629 11.414305 9.834416 20.92556 1.779371-1.388388 3.542783-2.601233 5.238372-3.754233 3.399157-3.099935 5.920597-6.686604 6.662666-12.391762" fill="#EDC5B5" p-id="50173"></path><path d="M408.980013 569.410643c-1.595848 0-3.15978-0.095751-4.643919-0.291243-13.054039-1.68362-22.952288-14.358645-25.629323-25.421863-3.056049-12.631139 11.67762-34.450375 41.631692-49.104252 16.054234-7.859553 35.87467-18.559716 61.132959-38.360204 14.219008-11.139021 25.505645-22.174312 34.438406-33.672399 0.051865-0.502692 0.179533-0.997405 0.386994-1.46818 0.702173-1.619786 1.47217-3.163769 2.294031-4.604023 1.428284-6.830231-0.179533-15.711127-2.381803-27.847553a5.15459 5.15459 0 0 1-0.075803-1.081187c0.335128-8.852968 3.163769-13.345281 8.410121-13.345281 2.41771 0 4.83542 1.184917 7.380798 3.626565 3.857963 3.730295 6.854168 8.952709 9.224003 16.165943 2.118489-2.150406 3.606617-4.556147 4.113299-8.434058 7.245151-37.733833 13.967662-37.733833 17.578269-37.733833 3.546773 0 6.407331 2.461596 8.505872 7.312975 0.167564 0.386993 0.283263 0.789945 0.351086 1.204865l5.070808 32.351835c0.023938 0.155595 0.039896 0.31518 0.051865 0.474765 1.05326 17.586248-6.610802 25.45777-16.313559 35.419853-5.401946 5.545573-11.514045 11.821246-17.709926 21.292606-6.973857 14.845379-18.483913 32.319918-34.207009 51.952841-51.729423 64.58797-86.89394 71.561827-99.608861 71.561828z m117.199099-145.940327c0.087772 1.188907-0.247356 2.393772-0.989426 3.375219-9.658872 12.822641-21.946904 25.002953-37.566269 37.23513-25.98839 20.371004-46.379341 31.382357-62.90435 39.469318-27.069577 13.245541-37.87347 31.374378-36.321508 37.801657 1.57989 6.51904 8.142816 16.708532 17.219204 17.87749 1.061239 0.135647 2.178333 0.20746 3.355271 0.207461 8.801103 0 41.424232-4.895265 91.821121-67.827543 15.344081-19.154169 26.483103-36.066172 33.105873-50.257252 0.095751-0.21145 0.21145-0.414921 0.339118-0.610412 6.798314-10.448817 13.624555-17.46257 19.114273-23.099904 9.160169-9.407526 14.230977-14.61797 13.516835-27.636103l-4.580084-29.24791c-1.926987 4.356666-4.584074 12.866527-7.189297 26.39932-0.989426 7.648103-4.899254 12.120468-8.190691 15.132632a4.727701 4.727701 0 0 1-0.566527 0.446837 92.160239 92.160239 0 0 0-4.975057 3.558742 4.991016 4.991016 0 0 1-7.919397-2.780765c-1.89507-7.983231-4.276873-13.636524-7.25712-17.207235a31.845153 31.845153 0 0 0-0.075803 1.097146c2.437658 13.46497 4.165164 23.255499 2.010769 32.108468a5.026922 5.026922 0 0 1-0.562536 1.372429c-0.474765 0.809893-0.94155 1.675641-1.384399 2.585275z" fill="#6E6E96" p-id="50174"></path><path d="M310.408453 99.357515s-21.36043 29.886249 5.733085 43.97759c27.097504 14.09533 121.683433 66.06812 121.683433 66.068119 75.483625 16.552937-67.919304-193.492617-127.416518-110.045709z" fill="#B08F81" p-id="50175"></path><path d="M445.536908 216.504749a6.163964 6.163964 0 1 1 0-12.327928c2.84061 0 4.83542-0.602433 5.928576-1.795329 1.36445-1.484139 1.647713-4.137237 1.647714-6.10013 0-29.56309-60.849696-110.428713-107.328778-110.428713a6.163964 6.163964 0 1 1 0-12.327928c34.111257 0 67.396663 33.369188 80.123554 47.711874 23.646482 26.650667 39.533152 56.80821 39.533152 75.044767 0 6.040286-1.647713 10.899644-4.899254 14.438437-3.522835 3.834026-8.573695 5.78495-15.004964 5.78495z" fill="#6E6E96" p-id="50176"></path><path d="M317.126974 990.379466v0.071813h0.011969l-0.011969-0.071813z m0.055855 0.486734c-2.094551 4.536199-7.600228 7.77976-14.111289 7.77976-8.30639 0-15.036881-5.266299-15.03688-11.77736 0-0.750049 0.111709-1.46818 0.287253-2.178333a22.760786 22.760786 0 0 0-1.843205 9.096335c0 10.584464 6.918002 24.113268 15.45978 24.113268s15.455791-13.520825 15.455791-24.113268a26.060203 26.060203 0 0 0-0.21145-2.920402z" fill="#FFFFFF" p-id="50177"></path><path d="M301.938488 1023.030522c-12.563316 0-20.586443-17.318944-20.586443-29.23993 0-3.933766 0.766007-7.68401 2.270094-11.143011a5.130652 5.130652 0 0 1 9.67882 3.26351 4.244956 4.244956 0 0 0-0.139637 0.957509c0 3.602628 4.536199 6.650698 9.906229 6.650697 3.853974 0 7.400746-1.615796 9.012553-4.017548a5.146611 5.146611 0 0 1 4.723711-4.20506 5.074798 5.074798 0 0 1 5.441843 4.787545l0.019948 0.135647c0.143626 1.145021 0.231398 2.31398 0.247356 3.506877 0.00399 11.984821-8.011158 29.303764-20.574474 29.303764z m-9.068408-21.583848c2.00279 6.255725 5.9964 11.330523 9.064419 11.330523 2.880506 0 6.578885-4.476354 8.677425-10.20944-5.617386 1.887091-12.611191 1.412326-17.741844-1.121083z" fill="#6E6E96" p-id="50178"></path><path d="M341.778841 531.110283c-1.823257 0-3.734285-0.083782-5.733085-0.275283a4.987026 4.987026 0 1 1 0.929582-9.926177c21.232762 1.970873 28.705321-9.610996 29.012522-10.109699a5.006974 5.006974 0 0 1 6.83422-1.655692c2.333928 1.416315 3.111904 4.4205 1.723516 6.774376-0.386993 0.662277-9.25592 15.192476-32.766755 15.192475z" fill="#6E6E96" p-id="50179"></path><path d="M316.763919 814.293564c-2.752838 0-4.987026-2.234188-4.987026-4.987026v-40.450764a4.987026 4.987026 0 0 1 9.974052 0v40.450764c0 2.752838-2.230198 4.987026-4.987026 4.987026z" fill="#6E6E96" p-id="50180"></path><path d="M228.294079 507.599448a4.987026 4.987026 0 0 1-4.707753-6.638729c3.658482-10.440838 13.736264-27.412684 17.295006-30.971426a4.987026 4.987026 0 1 1 7.05365 7.05365c-1.919008 1.922997-11.450212 17.263089-14.933151 27.213203a4.987026 4.987026 0 0 1-4.707752 3.343302z" fill="#6E6E96" p-id="50181"></path><path d="M315.658794 93.010029s-26.798283 32.475513 102.126312 80.821737c0 0 44.843337 28.645477 14.362635-35.260268 0 0 37.267047 64.508178 17.88148 71.262605-19.385567 6.754428-139.720508-72.327835-139.720509-72.327834s-19.589038-31.521994 5.350082-44.49624z" fill="#6E6E96" opacity=".25" p-id="50182"></path><path d="M293.340855 95.73494S207.173026 203.566409 178.41584 238.096577l10.085761 4.903244L300.737612 133.472762c-0.00399 0 2.038696-37.737823-7.396757-37.737822z" fill="#6E6E96" opacity=".25" p-id="50183"></path><path d="M300.733623 133.472762l107.133286 82.501368s16.118068 88.015023-55.778888 121.483952-145.573282-29.838374-145.573282-29.838374 26.076161 70.464682 119.533027 66.885992c93.460856-3.5747 122.988039-134.370427 107.360695-167.524175L300.733623 133.472762z" fill="#6E6E96" opacity=".1" p-id="50184"></path><path d="M185.262029 327.216725s38.136785 60.981353 111.777205 60.981353l41.815215-2.569315v-9.742654s-98.216484-19.988-125.477562-47.249079c-0.00399 0-25.058808 2.234188-28.114858-1.420305z" fill="#6E6E96" opacity=".15" p-id="50185"></path><path d="M163.16352 497.956535s18.444017 38.487871 37.685958 19.241941c19.245931-19.241941 19.832405-66.937857 44.627897-57.01966 24.791503 9.918197 9.918197 30.987384 9.918197 30.987384s-10.361045 14.681804 3.554753 56.943857c0 0-5.629355-45.377946-24.627929-50.743986l-18.224588 29.45537s-18.483913 29.902208-41.504025 6.898054c-23.020112-23.024101-11.430263-35.76296-11.430263-35.76296z" fill="#6E6E96" opacity=".1" p-id="50186"></path><path d="M354.362105 401.455588s14.853358 2.83662 21.276647 22.776745c8.190691 25.433832 5.78096 69.910124-24.791503 76.860044 0 0-39.668799 6.199871-31.609765 31.601786 8.059034 25.417874 42.684952-4.871327 42.684952 10.277263v-15.14859s68.019044-104.125112 9.547163-131.055052c-0.007979 0.00399-17.107494-2.94434-17.107494 4.687804z" fill="#6E6E96" opacity=".1" p-id="50187"></path><path d="M345.963953 541.040449s-0.869737 22.457575 8.597633 44.336656c8.553747 19.768571-137.043473 95.327998-112.714766 21.069187 0 0-52.104447 43.96961 53.217552 43.96961 85.489593 0 107.903283-15.786929 89.870197-51.063156s-23.008143-51.43818-23.008143-61.480055l-15.962473 3.167758z" fill="#6E6E96" opacity=".1" p-id="50188"></path><path d="M249.909844 789.996774s-36.828189-117.841428 55.068735-117.841428c91.900914 0 76.58476 117.829459 76.58476 117.829459s26.423258-117.777594 14.897244-154.194852c0 0-130.289045 35.679178-165.968223 0-0.00399-0.011969-13.843984 38.60357 19.417484 154.206821z" fill="#6E6E96" opacity=".1" p-id="50189"></path><path d="M317.130964 975.865226s6.439248-153.708119 22.557316-153.708119 2.804703 152.686776 2.804703 152.686776l31.924945-182.110229-51.099062 12.383783-6.187902 170.747789z" fill="#6E6E96" opacity=".1" p-id="50190"></path><path d="M321.196388 975.949008s-6.443238-153.708119-22.561306-153.708119-2.804703 152.686776-2.804703 152.686776l-31.924945-182.110229 51.095072 12.383783 6.195882 170.747789z" fill="#6E6E96" opacity=".1" p-id="50191"></path><path d="M322.373326 317.573812c-8.896854 0-18.603602-2.720921-28.677394-9.730685a5.984431 5.984431 0 0 1 6.83422-9.826436c30.177491 21.005353 53.030039-8.565716 53.983558-9.830426a5.988421 5.988421 0 0 1 9.583069 7.173339c-7.133442 9.555142-22.541357 22.214208-41.723453 22.214208zM342.377284 228.042733a5.984431 5.984431 0 0 1-4.907233-9.403537 27.089525 27.089525 0 0 1 37.65404-6.746448 5.984431 5.984431 0 0 1-6.83422 9.826436 15.104704 15.104704 0 0 0-20.997374 3.762212 5.976452 5.976452 0 0 1-4.915213 2.561337zM257.725511 243.21925a5.984431 5.984431 0 0 1-4.903244-9.403536 26.862117 26.862117 0 0 1 17.426664-11.174928 26.838179 26.838179 0 0 1 20.219397 4.428479 5.984431 5.984431 0 1 1-6.838209 9.822446 14.925171 14.925171 0 0 0-11.270679-2.469575 14.977036 14.977036 0 0 0-9.714727 6.231788 5.984431 5.984431 0 0 1-4.919202 2.565326z" fill="#6E6E96" p-id="50192"></path><path d="M209.211723 310.360578c-13.472949 5.948525-30.121637-2.190302-37.179276-18.180702-7.057639-15.98641-1.855174-33.76815 11.621765-39.716675" fill="#EDC5B5" p-id="50193"></path><path d="M199.887979 317.310497c-4.619981 0-9.323744-1.113104-13.863932-3.331333-8.078982-3.949725-14.665846-10.975447-18.555726-19.78453s-4.639929-18.40811-2.114499-27.03766c2.613202-8.93675 8.398152-15.77496 16.285632-19.253909a4.987026 4.987026 0 1 1 4.025527 9.124262c-5.1506 2.274084-8.964678 6.866137-10.736069 12.930361-1.867143 6.375414-1.272689 13.548752 1.663671 20.207429 2.94035 6.658677 7.843594 11.932956 13.812067 14.853358 5.68122 2.780766 11.645703 3.060039 16.788325 0.781966a4.987026 4.987026 0 0 1 4.025527 9.124263 27.903408 27.903408 0 0 1-11.330523 2.385793z" fill="#6E6E96" p-id="50194"></path><path d="M549.151348 429.406871s-94.773441 201.643412-169.307535 164.863099c0 0-35.850732-46.794262-17.925366-73.249437 0 0 19.022512 46.842137 67.979148 16.018327 50.201398-31.613755 119.253754-107.631989 119.253753-107.631989z" fill="#6E6E96" opacity=".15" p-id="50195"></path></svg>